<ttFont>
<head>
    <!-- Most of this table will be recalculated by the compiler -->
    <tableVersion value="1.0"/>
    <fontRevision value="1.002"/>
    <checkSumAdjustment value="0x3ce23885"/>
    <magicNumber value="0x5f0f3cf5"/>
    <flags value="00000000 00000011"/>
    <unitsPerEm value="1000"/>
    <created value="Sun Jan 10 02:33:01 2016"/>
    <modified value="Sun Jan 10 02:33:04 2016"/>
    <xMin value="-91"/>
    <yMin value="-328"/>
    <xMax value="1033"/>
    <yMax value="1200"/>
    <macStyle value="00000000 00000000"/>
    <lowestRecPPEM value="6"/>
    <fontDirectionHint value="2"/>
    <indexToLocFormat value="0"/>
    <glyphDataFormat value="0"/>
  </head>
    <TTGlyph name=".notdef" xMin="0" yMin="-200" xMax="500" yMax="800">
      <contour>
        <pt x="0" y="-200" on="1"/>
        <pt x="0" y="800" on="1"/>
        <pt x="500" y="800" on="1"/>
        <pt x="500" y="-200" on="1"/>
      </contour>
      <contour>
        <pt x="71" y="750" on="1"/>
        <pt x="250" y="360" on="1"/>
        <pt x="429" y="750" on="1"/>
      </contour>
      <contour>
        <pt x="450" y="676" on="1"/>
        <pt x="278" y="300" on="1"/>
        <pt x="450" y="-76" on="1"/>
      </contour>
      <contour>
        <pt x="50" y="-76" on="1"/>
        <pt x="222" y="300" on="1"/>
        <pt x="50" y="676" on="1"/>
      </contour>
      <contour>
        <pt x="250" y="240" on="1"/>
        <pt x="71" y="-150" on="1"/>
        <pt x="429" y="-150" on="1"/>
      </contour>
    </TTGlyph>
    <TTGlyph name="A" xMin="1" yMin="-4" xMax="598" yMax="620">
      <contour>
        <pt x="388" y="-4" on="1"/>
        <pt x="384" y="23" on="0"/>
        <pt x="373" y="78" on="0"/>
        <pt x="368" y="105" on="1"/>
        <pt x="225" y="105" on="1"/>
        <pt x="221" y="79" on="0"/>
        <pt x="210" y="26" on="0"/>
        <pt x="206" y="0" on="1"/>
        <pt x="1" y="0" on="1"/>
        <pt x="37" y="154" on="0"/>
        <pt x="117" y="467" on="0"/>
        <pt x="160" y="620" on="1"/>
        <pt x="438" y="620" on="1"/>
        <pt x="482" y="466" on="0"/>
        <pt x="562" y="158" on="0"/>
        <pt x="598" y="4" on="1"/>
      </contour>
      <contour>
        <pt x="290" y="452" on="1"/>
        <pt x="280" y="402" on="0"/>
        <pt x="261" y="301" on="0"/>
        <pt x="252" y="251" on="1"/>
        <pt x="341" y="251" on="1"/>
        <pt x="331" y="301" on="0"/>
        <pt x="312" y="402" on="0"/>
        <pt x="302" y="452" on="1"/>
      </contour>
    </TTGlyph>
    <TTGlyph name="A.sc" xMin="2" yMin="-4" xMax="567" yMax="552">
      <contour>
        <pt x="361" y="-4" on="1"/>
        <pt x="357" y="19" on="0"/>
        <pt x="347" y="65" on="0"/>
        <pt x="343" y="88" on="1"/>
        <pt x="218" y="88" on="1"/>
        <pt x="214" y="66" on="0"/>
        <pt x="205" y="22" on="0"/>
        <pt x="201" y="0" on="1"/>
        <pt x="2" y="0" on="1"/>
        <pt x="37" y="137" on="0"/>
        <pt x="111" y="415" on="0"/>
        <pt x="151" y="552" on="1"/>
        <pt x="415" y="552" on="1"/>
        <pt x="456" y="415" on="0"/>
        <pt x="532" y="141" on="0"/>
        <pt x="567" y="4" on="1"/>
      </contour>
      <contour>
        <pt x="276" y="391" on="1"/>
        <pt x="268" y="349" on="0"/>
        <pt x="252" y="264" on="0"/>
        <pt x="244" y="222" on="1"/>
        <pt x="318" y="222" on="1"/>
        <pt x="310" y="264" on="0"/>
        <pt x="294" y="349" on="0"/>
        <pt x="286" y="391" on="1"/>
      </contour>
    </TTGlyph>
    <TTGlyph name="AE" xMin="-17" yMin="0" xMax="790" yMax="620">
      <contour>
        <pt x="354" y="459" on="1"/>
        <pt x="335" y="408" on="0"/>
        <pt x="298" y="306" on="0"/>
        <pt x="279" y="255" on="1"/>
        <pt x="362" y="255" on="1"/>
        <pt x="362" y="459" on="1"/>
      </contour>
      <contour>
        <pt x="362" y="0" on="1"/>
        <pt x="362" y="109" on="1"/>
        <pt x="227" y="109" on="1"/>
        <pt x="217" y="82" on="0"/>
        <pt x="199" y="27" on="0"/>
        <pt x="189" y="0" on="1"/>
        <pt x="-17" y="0" on="1"/>
        <pt x="41" y="150" on="0"/>
        <pt x="171" y="469" on="0"/>
        <pt x="236" y="620" on="1"/>
        <pt x="782" y="620" on="1"/>
        <pt x="782" y="459" on="1"/>
        <pt x="559" y="459" on="1"/>
        <pt x="559" y="373" on="1"/>
        <pt x="736" y="373" on="1"/>
        <pt x="736" y="249" on="1"/>
        <pt x="559" y="249" on="1"/>
        <pt x="559" y="161" on="1"/>
        <pt x="790" y="161" on="1"/>
        <pt x="779" y="0" on="1"/>
      </contour>
    </TTGlyph>
    <TTGlyph name="AE.sc" xMin="-13" yMin="0" xMax="749" yMax="552">
      <contour>
        <pt x="335" y="404" on="1"/>
        <pt x="318" y="360" on="0"/>
        <pt x="284" y="271" on="0"/>
        <pt x="268" y="227" on="1"/>
        <pt x="345" y="227" on="1"/>
        <pt x="345" y="404" on="1"/>
      </contour>
      <contour>
        <pt x="345" y="0" on="1"/>
        <pt x="345" y="93" on="1"/>
        <pt x="219" y="93" on="1"/>
        <pt x="211" y="70" on="0"/>
        <pt x="193" y="23" on="0"/>
        <pt x="185" y="0" on="1"/>
        <pt x="-13" y="0" on="1"/>
        <pt x="41" y="137" on="0"/>
        <pt x="160" y="416" on="0"/>
        <pt x="221" y="552" on="1"/>
        <pt x="741" y="552" on="1"/>
        <pt x="741" y="403" on="1"/>
        <pt x="534" y="403" on="1"/>
        <pt x="534" y="333" on="1"/>
        <pt x="697" y="333" on="1"/>
        <pt x="697" y="220" on="1"/>
        <pt x="534" y="220" on="1"/>
        <pt x="534" y="148" on="1"/>
        <pt x="749" y="148" on="1"/>
        <pt x="738" y="0" on="1"/>
      </contour>
    </TTGlyph>
    <TTGlyph name="AEacute" xMin="-17" yMin="0" xMax="790" yMax="914">
      <contour>
        <pt x="338" y="737" on="1"/>
        <pt x="398" y="771" on="0"/>
        <pt x="523" y="865" on="0"/>
        <pt x="575" y="914" on="1"/>
        <pt x="687" y="770" on="1"/>
        <pt x="616" y="725" on="0"/>
        <pt x="446" y="667" on="0"/>
        <pt x="368" y="657" on="1"/>
      </contour>
      <contour>
        <pt x="354" y="459" on="1"/>
        <pt x="335" y="408" on="0"/>
        <pt x="298" y="306" on="0"/>
        <pt x="279" y="255" on="1"/>
        <pt x="362" y="255" on="1"/>
        <pt x="362" y="459" on="1"/>
      </contour>
      <contour>
        <pt x="362" y="0" on="1"/>
        <pt x="362" y="109" on="1"/>
        <pt x="227" y="109" on="1"/>
        <pt x="217" y="82" on="0"/>
        <pt x="199" y="27" on="0"/>
        <pt x="189" y="0" on="1"/>
        <pt x="-17" y="0" on="1"/>
        <pt x="41" y="150" on="0"/>
        <pt x="171" y="469" on="0"/>
        <pt x="236" y="620" on="1"/>
        <pt x="782" y="620" on="1"/>
        <pt x="782" y="459" on="1"/>
        <pt x="559" y="459" on="1"/>
        <pt x="559" y="373" on="1"/>
        <pt x="736" y="373" on="1"/>
        <pt x="736" y="249" on="1"/>
        <pt x="559" y="249" on="1"/>
        <pt x="559" y="161" on="1"/>
        <pt x="790" y="161" on="1"/>
        <pt x="779" y="0" on="1"/>
      </contour>
    </TTGlyph>
    <TTGlyph name="AEacute.sc" xMin="-13" yMin="0" xMax="749" yMax="846">
      <contour>
        <pt x="297" y="669" on="1"/>
        <pt x="357" y="703" on="0"/>
        <pt x="482" y="797" on="0"/>
        <pt x="534" y="846" on="1"/>
        <pt x="646" y="702" on="1"/>
        <pt x="575" y="657" on="0"/>
        <pt x="405" y="599" on="0"/>
        <pt x="327" y="589" on="1"/>
      </contour>
      <contour>
        <pt x="335" y="404" on="1"/>
        <pt x="318" y="360" on="0"/>
        <pt x="284" y="271" on="0"/>
        <pt x="268" y="227" on="1"/>
        <pt x="345" y="227" on="1"/>
        <pt x="345" y="404" on="1"/>
      </contour>
      <contour>
        <pt x="345" y="0" on="1"/>
        <pt x="345" y="93" on="1"/>
        <pt x="219" y="93" on="1"/>
        <pt x="211" y="70" on="0"/>
        <pt x="193" y="23" on="0"/>
        <pt x="185" y="0" on="1"/>
        <pt x="-13" y="0" on="1"/>
        <pt x="41" y="137" on="0"/>
        <pt x="160" y="416" on="0"/>
        <pt x="221" y="552" on="1"/>
        <pt x="741" y="552" on="1"/>
        <pt x="741" y="403" on="1"/>
        <pt x="534" y="403" on="1"/>
        <pt x="534" y="333" on="1"/>
        <pt x="697" y="333" on="1"/>
        <pt x="697" y="220" on="1"/>
        <pt x="534" y="220" on="1"/>
        <pt x="534" y="148" on="1"/>
        <pt x="749" y="148" on="1"/>
        <pt x="738" y="0" on="1"/>
      </contour>
    </TTGlyph>
    <TTGlyph name="Aacute" xMin="1" yMin="-4" xMax="598" yMax="914">
      <contour>
        <pt x="152" y="737" on="1"/>
        <pt x="212" y="771" on="0"/>
        <pt x="337" y="865" on="0"/>
        <pt x="389" y="914" on="1"/>
        <pt x="501" y="770" on="1"/>
        <pt x="430" y="725" on="0"/>
        <pt x="260" y="667" on="0"/>
        <pt x="182" y="657" on="1"/>
      </contour>
      <contour>
        <pt x="388" y="-4" on="1"/>
        <pt x="384" y="23" on="0"/>
        <pt x="373" y="78" on="0"/>
        <pt x="368" y="105" on="1"/>
        <pt x="225" y="105" on="1"/>
        <pt x="221" y="79" on="0"/>
        <pt x="210" y="26" on="0"/>
        <pt x="206" y="0" on="1"/>
        <pt x="1" y="0" on="1"/>
        <pt x="37" y="154" on="0"/>
        <pt x="117" y="467" on="0"/>
        <pt x="160" y="620" on="1"/>
        <pt x="438" y="620" on="1"/>
        <pt x="482" y="466" on="0"/>
        <pt x="562" y="158" on="0"/>
        <pt x="598" y="4" on="1"/>
      </contour>
      <contour>
        <pt x="290" y="452" on="1"/>
        <pt x="280" y="402" on="0"/>
        <pt x="261" y="301" on="0"/>
        <pt x="252" y="251" on="1"/>
        <pt x="341" y="251" on="1"/>
        <pt x="331" y="301" on="0"/>
        <pt x="312" y="402" on="0"/>
        <pt x="302" y="452" on="1"/>
      </contour>
    </TTGlyph>
    <TTGlyph name="Aacute.sc" xMin="2" yMin="-4" xMax="567" yMax="846">
      <contour>
        <pt x="137" y="669" on="1"/>
        <pt x="197" y="703" on="0"/>
        <pt x="322" y="797" on="0"/>
        <pt x="374" y="846" on="1"/>
        <pt x="486" y="702" on="1"/>
        <pt x="415" y="657" on="0"/>
        <pt x="245" y="599" on="0"/>
        <pt x="167" y="589" on="1"/>
      </contour>
      <contour>
        <pt x="361" y="-4" on="1"/>
        <pt x="357" y="19" on="0"/>
        <pt x="347" y="65" on="0"/>
        <pt x="343" y="88" on="1"/>
        <pt x="218" y="88" on="1"/>
        <pt x="214" y="66" on="0"/>
        <pt x="205" y="22" on="0"/>
        <pt x="201" y="0" on="1"/>
        <pt x="2" y="0" on="1"/>
        <pt x="37" y="137" on="0"/>
        <pt x="111" y="415" on="0"/>
        <pt x="151" y="552" on="1"/>
        <pt x="415" y="552" on="1"/>
        <pt x="456" y="415" on="0"/>
        <pt x="532" y="141" on="0"/>
        <pt x="567" y="4" on="1"/>
      </contour>
      <contour>
        <pt x="276" y="391" on="1"/>
        <pt x="268" y="349" on="0"/>
        <pt x="252" y="264" on="0"/>
        <pt x="244" y="222" on="1"/>
        <pt x="318" y="222" on="1"/>
        <pt x="310" y="264" on="0"/>
        <pt x="294" y="349" on="0"/>
        <pt x="286" y="391" on="1"/>
      </contour>
    </TTGlyph>
    <TTGlyph name="Abreve" xMin="1" yMin="-4" xMax="598" yMax="885">
      <contour>
        <pt x="297" y="661" on="1"/>
        <pt x="228" y="661" on="0"/>
        <pt x="124" y="750" on="0"/>
        <pt x="90" y="823" on="1"/>
        <pt x="206" y="885" on="1"/>
        <pt x="231" y="849" on="0"/>
        <pt x="283" y="813" on="0"/>
        <pt x="311" y="813" on="1"/>
        <pt x="339" y="813" on="0"/>
        <pt x="390" y="850" on="0"/>
        <pt x="413" y="884" on="1"/>
        <pt x="510" y="839" on="1"/>
        <pt x="476" y="763" on="0"/>
        <pt x="369" y="661" on="0"/>
      </contour>
      <contour>
        <pt x="388" y="-4" on="1"/>
        <pt x="384" y="23" on="0"/>
        <pt x="373" y="78" on="0"/>
        <pt x="368" y="105" on="1"/>
        <pt x="225" y="105" on="1"/>
        <pt x="221" y="79" on="0"/>
        <pt x="210" y="26" on="0"/>
        <pt x="206" y="0" on="1"/>
        <pt x="1" y="0" on="1"/>
        <pt x="37" y="154" on="0"/>
        <pt x="117" y="467" on="0"/>
        <pt x="160" y="620" on="1"/>
        <pt x="438" y="620" on="1"/>
        <pt x="482" y="466" on="0"/>
        <pt x="562" y="158" on="0"/>
        <pt x="598" y="4" on="1"/>
      </contour>
      <contour>
        <pt x="290" y="452" on="1"/>
        <pt x="280" y="402" on="0"/>
        <pt x="261" y="301" on="0"/>
        <pt x="252" y="251" on="1"/>
        <pt x="341" y="251" on="1"/>
        <pt x="331" y="301" on="0"/>
        <pt x="312" y="402" on="0"/>
        <pt x="302" y="452" on="1"/>
      </contour>
    </TTGlyph>
    <TTGlyph name="Abreve.sc" xMin="2" yMin="-4" xMax="567" yMax="817">
      <contour>
        <pt x="282" y="593" on="1"/>
        <pt x="213" y="593" on="0"/>
        <pt x="109" y="682" on="0"/>
        <pt x="75" y="755" on="1"/>
        <pt x="191" y="817" on="1"/>
        <pt x="216" y="781" on="0"/>
        <pt x="268" y="745" on="0"/>
        <pt x="296" y="745" on="1"/>
        <pt x="324" y="745" on="0"/>
        <pt x="375" y="782" on="0"/>
        <pt x="398" y="816" on="1"/>
        <pt x="495" y="771" on="1"/>
        <pt x="461" y="695" on="0"/>
        <pt x="354" y="593" on="0"/>
      </contour>
      <contour>
        <pt x="361" y="-4" on="1"/>
        <pt x="357" y="19" on="0"/>
        <pt x="347" y="65" on="0"/>
        <pt x="343" y="88" on="1"/>
        <pt x="218" y="88" on="1"/>
        <pt x="214" y="66" on="0"/>
        <pt x="205" y="22" on="0"/>
        <pt x="201" y="0" on="1"/>
        <pt x="2" y="0" on="1"/>
        <pt x="37" y="137" on="0"/>
        <pt x="111" y="415" on="0"/>
        <pt x="151" y="552" on="1"/>
        <pt x="415" y="552" on="1"/>
        <pt x="456" y="415" on="0"/>
        <pt x="532" y="141" on="0"/>
        <pt x="567" y="4" on="1"/>
      </contour>
      <contour>
        <pt x="276" y="391" on="1"/>
        <pt x="268" y="349" on="0"/>
        <pt x="252" y="264" on="0"/>
        <pt x="244" y="222" on="1"/>
        <pt x="318" y="222" on="1"/>
        <pt x="310" y="264" on="0"/>
        <pt x="294" y="349" on="0"/>
        <pt x="286" y="391" on="1"/>
      </contour>
    </TTGlyph>
    <TTGlyph name="Acircumflex" xMin="1" yMin="-4" xMax="598" yMax="894">
      <contour>
        <pt x="403" y="656" on="1"/>
        <pt x="290" y="742" on="1"/>
        <pt x="179" y="656" on="1"/>
        <pt x="101" y="747" on="1"/>
        <pt x="282" y="894" on="1"/>
        <pt x="321" y="894" on="1"/>
        <pt x="500" y="759" on="1"/>
      </contour>
      <contour>
        <pt x="388" y="-4" on="1"/>
        <pt x="384" y="23" on="0"/>
        <pt x="373" y="78" on="0"/>
        <pt x="368" y="105" on="1"/>
        <pt x="225" y="105" on="1"/>
        <pt x="221" y="79" on="0"/>
        <pt x="210" y="26" on="0"/>
        <pt x="206" y="0" on="1"/>
        <pt x="1" y="0" on="1"/>
        <pt x="37" y="154" on="0"/>
        <pt x="117" y="467" on="0"/>
        <pt x="160" y="620" on="1"/>
        <pt x="438" y="620" on="1"/>
        <pt x="482" y="466" on="0"/>
        <pt x="562" y="158" on="0"/>
        <pt x="598" y="4" on="1"/>
      </contour>
      <contour>
        <pt x="290" y="452" on="1"/>
        <pt x="280" y="402" on="0"/>
        <pt x="261" y="301" on="0"/>
        <pt x="252" y="251" on="1"/>
        <pt x="341" y="251" on="1"/>
        <pt x="331" y="301" on="0"/>
        <pt x="312" y="402" on="0"/>
        <pt x="302" y="452" on="1"/>
      </contour>
    </TTGlyph>
    <TTGlyph name="Acircumflex.sc" xMin="2" yMin="-4" xMax="567" yMax="826">
      <contour>
        <pt x="388" y="588" on="1"/>
        <pt x="275" y="674" on="1"/>
        <pt x="164" y="588" on="1"/>
        <pt x="86" y="679" on="1"/>
        <pt x="267" y="826" on="1"/>
        <pt x="306" y="826" on="1"/>
        <pt x="485" y="691" on="1"/>
      </contour>
      <contour>
        <pt x="361" y="-4" on="1"/>
        <pt x="357" y="19" on="0"/>
        <pt x="347" y="65" on="0"/>
        <pt x="343" y="88" on="1"/>
        <pt x="218" y="88" on="1"/>
        <pt x="214" y="66" on="0"/>
        <pt x="205" y="22" on="0"/>
        <pt x="201" y="0" on="1"/>
        <pt x="2" y="0" on="1"/>
        <pt x="37" y="137" on="0"/>
        <pt x="111" y="415" on="0"/>
        <pt x="151" y="552" on="1"/>
        <pt x="415" y="552" on="1"/>
        <pt x="456" y="415" on="0"/>
        <pt x="532" y="141" on="0"/>
        <pt x="567" y="4" on="1"/>
      </contour>
      <contour>
        <pt x="276" y="391" on="1"/>
        <pt x="268" y="349" on="0"/>
        <pt x="252" y="264" on="0"/>
        <pt x="244" y="222" on="1"/>
        <pt x="318" y="222" on="1"/>
        <pt x="310" y="264" on="0"/>
        <pt x="294" y="349" on="0"/>
        <pt x="286" y="391" on="1"/>
      </contour>
    </TTGlyph>
    <TTGlyph name="Adieresis" xMin="1" yMin="-4" xMax="598" yMax="845">
      <contour>
        <pt x="508" y="675" on="1"/>
        <pt x="324" y="675" on="1"/>
        <pt x="326" y="845" on="1"/>
        <pt x="511" y="845" on="1"/>
      </contour>
      <contour>
        <pt x="271" y="675" on="1"/>
        <pt x="86" y="675" on="1"/>
        <pt x="89" y="845" on="1"/>
        <pt x="273" y="845" on="1"/>
      </contour>
      <contour>
        <pt x="388" y="-4" on="1"/>
        <pt x="384" y="23" on="0"/>
        <pt x="373" y="78" on="0"/>
        <pt x="368" y="105" on="1"/>
        <pt x="225" y="105" on="1"/>
        <pt x="221" y="79" on="0"/>
        <pt x="210" y="26" on="0"/>
        <pt x="206" y="0" on="1"/>
        <pt x="1" y="0" on="1"/>
        <pt x="37" y="154" on="0"/>
        <pt x="117" y="467" on="0"/>
        <pt x="160" y="620" on="1"/>
        <pt x="438" y="620" on="1"/>
        <pt x="482" y="466" on="0"/>
        <pt x="562" y="158" on="0"/>
        <pt x="598" y="4" on="1"/>
      </contour>
      <contour>
        <pt x="290" y="452" on="1"/>
        <pt x="280" y="402" on="0"/>
        <pt x="261" y="301" on="0"/>
        <pt x="252" y="251" on="1"/>
        <pt x="341" y="251" on="1"/>
        <pt x="331" y="301" on="0"/>
        <pt x="312" y="402" on="0"/>
        <pt x="302" y="452" on="1"/>
      </contour>
    </TTGlyph>
    <TTGlyph name="Adieresis.sc" xMin="2" yMin="-4" xMax="567" yMax="777">
      <contour>
        <pt x="494" y="607" on="1"/>
        <pt x="310" y="607" on="1"/>
        <pt x="312" y="777" on="1"/>
        <pt x="497" y="777" on="1"/>
      </contour>
      <contour>
        <pt x="257" y="607" on="1"/>
        <pt x="72" y="607" on="1"/>
        <pt x="75" y="777" on="1"/>
        <pt x="259" y="777" on="1"/>
      </contour>
      <contour>
        <pt x="361" y="-4" on="1"/>
        <pt x="357" y="19" on="0"/>
        <pt x="347" y="65" on="0"/>
        <pt x="343" y="88" on="1"/>
        <pt x="218" y="88" on="1"/>
        <pt x="214" y="66" on="0"/>
        <pt x="205" y="22" on="0"/>
        <pt x="201" y="0" on="1"/>
        <pt x="2" y="0" on="1"/>
        <pt x="37" y="137" on="0"/>
        <pt x="111" y="415" on="0"/>
        <pt x="151" y="552" on="1"/>
        <pt x="415" y="552" on="1"/>
        <pt x="456" y="415" on="0"/>
        <pt x="532" y="141" on="0"/>
        <pt x="567" y="4" on="1"/>
      </contour>
      <contour>
        <pt x="276" y="391" on="1"/>
        <pt x="268" y="349" on="0"/>
        <pt x="252" y="264" on="0"/>
        <pt x="244" y="222" on="1"/>
        <pt x="318" y="222" on="1"/>
        <pt x="310" y="264" on="0"/>
        <pt x="294" y="349" on="0"/>
        <pt x="286" y="391" on="1"/>
      </contour>
    </TTGlyph>
    <TTGlyph name="Agrave" xMin="1" yMin="-4" xMax="598" yMax="914">
      <contour>
        <pt x="444" y="737" on="1"/>
        <pt x="409" y="656" on="1"/>
        <pt x="332" y="671" on="0"/>
        <pt x="166" y="728" on="0"/>
        <pt x="96" y="769" on="1"/>
        <pt x="200" y="914" on="1"/>
        <pt x="254" y="869" on="0"/>
        <pt x="384" y="774" on="0"/>
      </contour>
      <contour>
        <pt x="388" y="-4" on="1"/>
        <pt x="384" y="23" on="0"/>
        <pt x="373" y="78" on="0"/>
        <pt x="368" y="105" on="1"/>
        <pt x="225" y="105" on="1"/>
        <pt x="221" y="79" on="0"/>
        <pt x="210" y="26" on="0"/>
        <pt x="206" y="0" on="1"/>
        <pt x="1" y="0" on="1"/>
        <pt x="37" y="154" on="0"/>
        <pt x="117" y="467" on="0"/>
        <pt x="160" y="620" on="1"/>
        <pt x="438" y="620" on="1"/>
        <pt x="482" y="466" on="0"/>
        <pt x="562" y="158" on="0"/>
        <pt x="598" y="4" on="1"/>
      </contour>
      <contour>
        <pt x="290" y="452" on="1"/>
        <pt x="280" y="402" on="0"/>
        <pt x="261" y="301" on="0"/>
        <pt x="252" y="251" on="1"/>
        <pt x="341" y="251" on="1"/>
        <pt x="331" y="301" on="0"/>
        <pt x="312" y="402" on="0"/>
        <pt x="302" y="452" on="1"/>
      </contour>
    </TTGlyph>
    <TTGlyph name="Agrave.sc" xMin="2" yMin="-4" xMax="567" yMax="846">
      <contour>
        <pt x="430" y="669" on="1"/>
        <pt x="395" y="588" on="1"/>
        <pt x="318" y="603" on="0"/>
        <pt x="152" y="660" on="0"/>
        <pt x="82" y="701" on="1"/>
        <pt x="186" y="846" on="1"/>
        <pt x="240" y="801" on="0"/>
        <pt x="370" y="706" on="0"/>
      </contour>
      <contour>
        <pt x="361" y="-4" on="1"/>
        <pt x="357" y="19" on="0"/>
        <pt x="347" y="65" on="0"/>
        <pt x="343" y="88" on="1"/>
        <pt x="218" y="88" on="1"/>
        <pt x="214" y="66" on="0"/>
        <pt x="205" y="22" on="0"/>
        <pt x="201" y="0" on="1"/>
        <pt x="2" y="0" on="1"/>
        <pt x="37" y="137" on="0"/>
        <pt x="111" y="415" on="0"/>
        <pt x="151" y="552" on="1"/>
        <pt x="415" y="552" on="1"/>
        <pt x="456" y="415" on="0"/>
        <pt x="532" y="141" on="0"/>
        <pt x="567" y="4" on="1"/>
      </contour>
      <contour>
        <pt x="276" y="391" on="1"/>
        <pt x="268" y="349" on="0"/>
        <pt x="252" y="264" on="0"/>
        <pt x="244" y="222" on="1"/>
        <pt x="318" y="222" on="1"/>
        <pt x="310" y="264" on="0"/>
        <pt x="294" y="349" on="0"/>
        <pt x="286" y="391" on="1"/>
      </contour>
    </TTGlyph>
    <TTGlyph name="Amacron" xMin="1" yMin="-4" xMax="598" yMax="841">
      <contour>
        <pt x="486" y="841" on="1"/>
        <pt x="486" y="680" on="1"/>
        <pt x="110" y="680" on="1"/>
        <pt x="110" y="841" on="1"/>
      </contour>
      <contour>
        <pt x="388" y="-4" on="1"/>
        <pt x="384" y="23" on="0"/>
        <pt x="373" y="78" on="0"/>
        <pt x="368" y="105" on="1"/>
        <pt x="225" y="105" on="1"/>
        <pt x="221" y="79" on="0"/>
        <pt x="210" y="26" on="0"/>
        <pt x="206" y="0" on="1"/>
        <pt x="1" y="0" on="1"/>
        <pt x="37" y="154" on="0"/>
        <pt x="117" y="467" on="0"/>
        <pt x="160" y="620" on="1"/>
        <pt x="438" y="620" on="1"/>
        <pt x="482" y="466" on="0"/>
        <pt x="562" y="158" on="0"/>
        <pt x="598" y="4" on="1"/>
      </contour>
      <contour>
        <pt x="290" y="452" on="1"/>
        <pt x="280" y="402" on="0"/>
        <pt x="261" y="301" on="0"/>
        <pt x="252" y="251" on="1"/>
        <pt x="341" y="251" on="1"/>
        <pt x="331" y="301" on="0"/>
        <pt x="312" y="402" on="0"/>
        <pt x="302" y="452" on="1"/>
      </contour>
    </TTGlyph>
    <TTGlyph name="Amacron.sc" xMin="2" yMin="-4" xMax="567" yMax="773">
      <contour>
        <pt x="472" y="773" on="1"/>
        <pt x="472" y="612" on="1"/>
        <pt x="96" y="612" on="1"/>
        <pt x="96" y="773" on="1"/>
      </contour>
      <contour>
        <pt x="361" y="-4" on="1"/>
        <pt x="357" y="19" on="0"/>
        <pt x="347" y="65" on="0"/>
        <pt x="343" y="88" on="1"/>
        <pt x="218" y="88" on="1"/>
        <pt x="214" y="66" on="0"/>
        <pt x="205" y="22" on="0"/>
        <pt x="201" y="0" on="1"/>
        <pt x="2" y="0" on="1"/>
        <pt x="37" y="137" on="0"/>
        <pt x="111" y="415" on="0"/>
        <pt x="151" y="552" on="1"/>
        <pt x="415" y="552" on="1"/>
        <pt x="456" y="415" on="0"/>
        <pt x="532" y="141" on="0"/>
        <pt x="567" y="4" on="1"/>
      </contour>
      <contour>
        <pt x="276" y="391" on="1"/>
        <pt x="268" y="349" on="0"/>
        <pt x="252" y="264" on="0"/>
        <pt x="244" y="222" on="1"/>
        <pt x="318" y="222" on="1"/>
        <pt x="310" y="264" on="0"/>
        <pt x="294" y="349" on="0"/>
        <pt x="286" y="391" on="1"/>
      </contour>
    </TTGlyph>
    <TTGlyph name="Aogonek" xMin="1" yMin="-245" xMax="598" yMax="620">
      <contour>
        <pt x="570" y="-245" on="1"/>
        <pt x="496" y="-241" on="0"/>
        <pt x="396" y="-214" on="0"/>
        <pt x="337" y="-177" on="0"/>
        <pt x="312" y="-132" on="0"/>
        <pt x="312" y="-110" on="1"/>
        <pt x="312" y="-80" on="0"/>
        <pt x="348" y="-23" on="0"/>
        <pt x="387" y="3" on="1"/>
        <pt x="383" y="28" on="0"/>
        <pt x="372" y="80" on="0"/>
        <pt x="368" y="105" on="1"/>
        <pt x="225" y="105" on="1"/>
        <pt x="221" y="79" on="0"/>
        <pt x="210" y="26" on="0"/>
        <pt x="206" y="0" on="1"/>
        <pt x="1" y="0" on="1"/>
        <pt x="37" y="154" on="0"/>
        <pt x="117" y="467" on="0"/>
        <pt x="160" y="620" on="1"/>
        <pt x="438" y="620" on="1"/>
        <pt x="482" y="466" on="0"/>
        <pt x="562" y="158" on="0"/>
        <pt x="598" y="4" on="1"/>
        <pt x="520" y="-20" on="0"/>
        <pt x="468" y="-51" on="0"/>
        <pt x="468" y="-64" on="1"/>
        <pt x="468" y="-78" on="0"/>
        <pt x="523" y="-97" on="0"/>
        <pt x="583" y="-101" on="1"/>
      </contour>
      <contour>
        <pt x="290" y="452" on="1"/>
        <pt x="280" y="402" on="0"/>
        <pt x="261" y="301" on="0"/>
        <pt x="252" y="251" on="1"/>
        <pt x="341" y="251" on="1"/>
        <pt x="331" y="301" on="0"/>
        <pt x="312" y="402" on="0"/>
        <pt x="302" y="452" on="1"/>
      </contour>
    </TTGlyph>
    <TTGlyph name="Aogonek.sc" xMin="2" yMin="-245" xMax="567" yMax="552">
      <contour>
        <pt x="539" y="-245" on="1"/>
        <pt x="465" y="-240" on="0"/>
        <pt x="365" y="-215" on="0"/>
        <pt x="306" y="-179" on="0"/>
        <pt x="281" y="-134" on="0"/>
        <pt x="281" y="-110" on="1"/>
        <pt x="281" y="-79" on="0"/>
        <pt x="320" y="-23" on="0"/>
        <pt x="360" y="2" on="1"/>
        <pt x="356" y="24" on="0"/>
        <pt x="347" y="66" on="0"/>
        <pt x="343" y="88" on="1"/>
        <pt x="218" y="88" on="1"/>
        <pt x="214" y="66" on="0"/>
        <pt x="205" y="22" on="0"/>
        <pt x="201" y="0" on="1"/>
        <pt x="2" y="0" on="1"/>
        <pt x="37" y="137" on="0"/>
        <pt x="111" y="415" on="0"/>
        <pt x="151" y="552" on="1"/>
        <pt x="415" y="552" on="1"/>
        <pt x="456" y="415" on="0"/>
        <pt x="532" y="141" on="0"/>
        <pt x="567" y="4" on="1"/>
        <pt x="489" y="-21" on="0"/>
        <pt x="437" y="-52" on="0"/>
        <pt x="437" y="-65" on="1"/>
        <pt x="437" y="-81" on="0"/>
        <pt x="492" y="-97" on="0"/>
        <pt x="552" y="-101" on="1"/>
      </contour>
      <contour>
        <pt x="276" y="391" on="1"/>
        <pt x="268" y="349" on="0"/>
        <pt x="252" y="264" on="0"/>
        <pt x="244" y="222" on="1"/>
        <pt x="318" y="222" on="1"/>
        <pt x="310" y="264" on="0"/>
        <pt x="294" y="349" on="0"/>
        <pt x="286" y="391" on="1"/>
      </contour>
    </TTGlyph>
    <TTGlyph name="Aring" xMin="1" yMin="-4" xMax="598" yMax="919">
      <contour>
        <pt x="297" y="919" on="1"/>
        <pt x="363" y="919" on="0"/>
        <pt x="450" y="842" on="0"/>
        <pt x="450" y="791" on="1"/>
        <pt x="450" y="734" on="0"/>
        <pt x="366" y="658" on="0"/>
        <pt x="297" y="658" on="1"/>
        <pt x="230" y="658" on="0"/>
        <pt x="145" y="733" on="0"/>
        <pt x="145" y="786" on="1"/>
        <pt x="145" y="843" on="0"/>
        <pt x="228" y="919" on="0"/>
      </contour>
      <contour>
        <pt x="388" y="-4" on="1"/>
        <pt x="384" y="23" on="0"/>
        <pt x="373" y="78" on="0"/>
        <pt x="368" y="105" on="1"/>
        <pt x="225" y="105" on="1"/>
        <pt x="221" y="79" on="0"/>
        <pt x="210" y="26" on="0"/>
        <pt x="206" y="0" on="1"/>
        <pt x="1" y="0" on="1"/>
        <pt x="37" y="154" on="0"/>
        <pt x="117" y="467" on="0"/>
        <pt x="160" y="620" on="1"/>
        <pt x="438" y="620" on="1"/>
        <pt x="482" y="466" on="0"/>
        <pt x="562" y="158" on="0"/>
        <pt x="598" y="4" on="1"/>
      </contour>
      <contour>
        <pt x="290" y="452" on="1"/>
        <pt x="280" y="402" on="0"/>
        <pt x="261" y="301" on="0"/>
        <pt x="252" y="251" on="1"/>
        <pt x="341" y="251" on="1"/>
        <pt x="331" y="301" on="0"/>
        <pt x="312" y="402" on="0"/>
        <pt x="302" y="452" on="1"/>
      </contour>
    </TTGlyph>
    <TTGlyph name="Aring.sc" xMin="2" yMin="-4" xMax="567" yMax="851">
      <contour>
        <pt x="283" y="851" on="1"/>
        <pt x="349" y="851" on="0"/>
        <pt x="436" y="774" on="0"/>
        <pt x="436" y="723" on="1"/>
        <pt x="436" y="666" on="0"/>
        <pt x="352" y="590" on="0"/>
        <pt x="283" y="590" on="1"/>
        <pt x="216" y="590" on="0"/>
        <pt x="131" y="665" on="0"/>
        <pt x="131" y="718" on="1"/>
        <pt x="131" y="775" on="0"/>
        <pt x="214" y="851" on="0"/>
      </contour>
      <contour>
        <pt x="361" y="-4" on="1"/>
        <pt x="357" y="19" on="0"/>
        <pt x="347" y="65" on="0"/>
        <pt x="343" y="88" on="1"/>
        <pt x="218" y="88" on="1"/>
        <pt x="214" y="66" on="0"/>
        <pt x="205" y="22" on="0"/>
        <pt x="201" y="0" on="1"/>
        <pt x="2" y="0" on="1"/>
        <pt x="37" y="137" on="0"/>
        <pt x="111" y="415" on="0"/>
        <pt x="151" y="552" on="1"/>
        <pt x="415" y="552" on="1"/>
        <pt x="456" y="415" on="0"/>
        <pt x="532" y="141" on="0"/>
        <pt x="567" y="4" on="1"/>
      </contour>
      <contour>
        <pt x="276" y="391" on="1"/>
        <pt x="268" y="349" on="0"/>
        <pt x="252" y="264" on="0"/>
        <pt x="244" y="222" on="1"/>
        <pt x="318" y="222" on="1"/>
        <pt x="310" y="264" on="0"/>
        <pt x="294" y="349" on="0"/>
        <pt x="286" y="391" on="1"/>
      </contour>
    </TTGlyph>
    <TTGlyph name="Aringacute" xMin="1" yMin="-4" xMax="598" yMax="1200">
      <contour>
        <pt x="152" y="1023" on="1"/>
        <pt x="212" y="1057" on="0"/>
        <pt x="337" y="1151" on="0"/>
        <pt x="389" y="1200" on="1"/>
        <pt x="501" y="1056" on="1"/>
        <pt x="430" y="1011" on="0"/>
        <pt x="260" y="953" on="0"/>
        <pt x="182" y="943" on="1"/>
      </contour>
      <contour>
        <pt x="297" y="919" on="1"/>
        <pt x="363" y="919" on="0"/>
        <pt x="450" y="842" on="0"/>
        <pt x="450" y="791" on="1"/>
        <pt x="450" y="734" on="0"/>
        <pt x="366" y="658" on="0"/>
        <pt x="297" y="658" on="1"/>
        <pt x="230" y="658" on="0"/>
        <pt x="145" y="733" on="0"/>
        <pt x="145" y="786" on="1"/>
        <pt x="145" y="843" on="0"/>
        <pt x="228" y="919" on="0"/>
      </contour>
      <contour>
        <pt x="388" y="-4" on="1"/>
        <pt x="384" y="23" on="0"/>
        <pt x="373" y="78" on="0"/>
        <pt x="368" y="105" on="1"/>
        <pt x="225" y="105" on="1"/>
        <pt x="221" y="79" on="0"/>
        <pt x="210" y="26" on="0"/>
        <pt x="206" y="0" on="1"/>
        <pt x="1" y="0" on="1"/>
        <pt x="37" y="154" on="0"/>
        <pt x="117" y="467" on="0"/>
        <pt x="160" y="620" on="1"/>
        <pt x="438" y="620" on="1"/>
        <pt x="482" y="466" on="0"/>
        <pt x="562" y="158" on="0"/>
        <pt x="598" y="4" on="1"/>
      </contour>
      <contour>
        <pt x="290" y="452" on="1"/>
        <pt x="280" y="402" on="0"/>
        <pt x="261" y="301" on="0"/>
        <pt x="252" y="251" on="1"/>
        <pt x="341" y="251" on="1"/>
        <pt x="331" y="301" on="0"/>
        <pt x="312" y="402" on="0"/>
        <pt x="302" y="452" on="1"/>
      </contour>
    </TTGlyph>
    <TTGlyph name="Aringacute.sc" xMin="2" yMin="-4" xMax="567" yMax="1132">
      <contour>
        <pt x="137" y="955" on="1"/>
        <pt x="197" y="989" on="0"/>
        <pt x="322" y="1083" on="0"/>
        <pt x="374" y="1132" on="1"/>
        <pt x="486" y="988" on="1"/>
        <pt x="415" y="943" on="0"/>
        <pt x="245" y="885" on="0"/>
        <pt x="167" y="875" on="1"/>
      </contour>
      <contour>
        <pt x="283" y="851" on="1"/>
        <pt x="349" y="851" on="0"/>
        <pt x="436" y="774" on="0"/>
        <pt x="436" y="723" on="1"/>
        <pt x="436" y="666" on="0"/>
        <pt x="352" y="590" on="0"/>
        <pt x="283" y="590" on="1"/>
        <pt x="216" y="590" on="0"/>
        <pt x="131" y="665" on="0"/>
        <pt x="131" y="718" on="1"/>
        <pt x="131" y="775" on="0"/>
        <pt x="214" y="851" on="0"/>
      </contour>
      <contour>
        <pt x="361" y="-4" on="1"/>
        <pt x="357" y="19" on="0"/>
        <pt x="347" y="65" on="0"/>
        <pt x="343" y="88" on="1"/>
        <pt x="218" y="88" on="1"/>
        <pt x="214" y="66" on="0"/>
        <pt x="205" y="22" on="0"/>
        <pt x="201" y="0" on="1"/>
        <pt x="2" y="0" on="1"/>
        <pt x="37" y="137" on="0"/>
        <pt x="111" y="415" on="0"/>
        <pt x="151" y="552" on="1"/>
        <pt x="415" y="552" on="1"/>
        <pt x="456" y="415" on="0"/>
        <pt x="532" y="141" on="0"/>
        <pt x="567" y="4" on="1"/>
      </contour>
      <contour>
        <pt x="276" y="391" on="1"/>
        <pt x="268" y="349" on="0"/>
        <pt x="252" y="264" on="0"/>
        <pt x="244" y="222" on="1"/>
        <pt x="318" y="222" on="1"/>
        <pt x="310" y="264" on="0"/>
        <pt x="294" y="349" on="0"/>
        <pt x="286" y="391" on="1"/>
      </contour>
    </TTGlyph>
    <TTGlyph name="Atilde" xMin="1" yMin="-4" xMax="598" yMax="873">
      <contour>
        <pt x="383" y="666" on="1"/>
        <pt x="358" y="666" on="0"/>
        <pt x="313" y="684" on="0"/>
        <pt x="275" y="707" on="0"/>
        <pt x="242" y="725" on="0"/>
        <pt x="229" y="725" on="1"/>
        <pt x="217" y="725" on="0"/>
        <pt x="194" y="700" on="0"/>
        <pt x="179" y="669" on="1"/>
        <pt x="84" y="705" on="1"/>
        <pt x="106" y="777" on="0"/>
        <pt x="179" y="872" on="0"/>
        <pt x="233" y="872" on="1"/>
        <pt x="257" y="872" on="0"/>
        <pt x="301" y="853" on="0"/>
        <pt x="339" y="831" on="0"/>
        <pt x="372" y="812" on="0"/>
        <pt x="385" y="812" on="1"/>
        <pt x="397" y="812" on="0"/>
        <pt x="421" y="839" on="0"/>
        <pt x="439" y="873" on="1"/>
        <pt x="534" y="838" on="1"/>
        <pt x="511" y="764" on="0"/>
        <pt x="437" y="666" on="0"/>
      </contour>
      <contour>
        <pt x="388" y="-4" on="1"/>
        <pt x="384" y="23" on="0"/>
        <pt x="373" y="78" on="0"/>
        <pt x="368" y="105" on="1"/>
        <pt x="225" y="105" on="1"/>
        <pt x="221" y="79" on="0"/>
        <pt x="210" y="26" on="0"/>
        <pt x="206" y="0" on="1"/>
        <pt x="1" y="0" on="1"/>
        <pt x="37" y="154" on="0"/>
        <pt x="117" y="467" on="0"/>
        <pt x="160" y="620" on="1"/>
        <pt x="438" y="620" on="1"/>
        <pt x="482" y="466" on="0"/>
        <pt x="562" y="158" on="0"/>
        <pt x="598" y="4" on="1"/>
      </contour>
      <contour>
        <pt x="290" y="452" on="1"/>
        <pt x="280" y="402" on="0"/>
        <pt x="261" y="301" on="0"/>
        <pt x="252" y="251" on="1"/>
        <pt x="341" y="251" on="1"/>
        <pt x="331" y="301" on="0"/>
        <pt x="312" y="402" on="0"/>
        <pt x="302" y="452" on="1"/>
      </contour>
    </TTGlyph>
    <TTGlyph name="Atilde.sc" xMin="2" yMin="-4" xMax="567" yMax="805">
      <contour>
        <pt x="368" y="598" on="1"/>
        <pt x="343" y="598" on="0"/>
        <pt x="298" y="616" on="0"/>
        <pt x="260" y="639" on="0"/>
        <pt x="227" y="657" on="0"/>
        <pt x="214" y="657" on="1"/>
        <pt x="202" y="657" on="0"/>
        <pt x="179" y="632" on="0"/>
        <pt x="164" y="601" on="1"/>
        <pt x="69" y="637" on="1"/>
        <pt x="91" y="709" on="0"/>
        <pt x="164" y="804" on="0"/>
        <pt x="218" y="804" on="1"/>
        <pt x="242" y="804" on="0"/>
        <pt x="286" y="785" on="0"/>
        <pt x="324" y="763" on="0"/>
        <pt x="357" y="744" on="0"/>
        <pt x="370" y="744" on="1"/>
        <pt x="382" y="744" on="0"/>
        <pt x="406" y="771" on="0"/>
        <pt x="424" y="805" on="1"/>
        <pt x="519" y="770" on="1"/>
        <pt x="496" y="696" on="0"/>
        <pt x="422" y="598" on="0"/>
      </contour>
      <contour>
        <pt x="361" y="-4" on="1"/>
        <pt x="357" y="19" on="0"/>
        <pt x="347" y="65" on="0"/>
        <pt x="343" y="88" on="1"/>
        <pt x="218" y="88" on="1"/>
        <pt x="214" y="66" on="0"/>
        <pt x="205" y="22" on="0"/>
        <pt x="201" y="0" on="1"/>
        <pt x="2" y="0" on="1"/>
        <pt x="37" y="137" on="0"/>
        <pt x="111" y="415" on="0"/>
        <pt x="151" y="552" on="1"/>
        <pt x="415" y="552" on="1"/>
        <pt x="456" y="415" on="0"/>
        <pt x="532" y="141" on="0"/>
        <pt x="567" y="4" on="1"/>
      </contour>
      <contour>
        <pt x="276" y="391" on="1"/>
        <pt x="268" y="349" on="0"/>
        <pt x="252" y="264" on="0"/>
        <pt x="244" y="222" on="1"/>
        <pt x="318" y="222" on="1"/>
        <pt x="310" y="264" on="0"/>
        <pt x="294" y="349" on="0"/>
        <pt x="286" y="391" on="1"/>
      </contour>
    </TTGlyph>
    <TTGlyph name="B" xMin="57" yMin="-8" xMax="573" yMax="628">
      <contour>
        <pt x="217" y="-8" on="1"/>
        <pt x="180" y="-8" on="0"/>
        <pt x="100" y="-4" on="0"/>
        <pt x="57" y="0" on="1"/>
        <pt x="57" y="620" on="1"/>
        <pt x="107" y="624" on="0"/>
        <pt x="198" y="628" on="0"/>
        <pt x="238" y="628" on="1"/>
        <pt x="393" y="628" on="0"/>
        <pt x="555" y="555" on="0"/>
        <pt x="555" y="467" on="1"/>
        <pt x="555" y="421" on="0"/>
        <pt x="506" y="349" on="0"/>
        <pt x="463" y="324" on="1"/>
        <pt x="518" y="307" on="0"/>
        <pt x="573" y="242" on="0"/>
        <pt x="573" y="188" on="1"/>
        <pt x="573" y="85" on="0"/>
        <pt x="383" y="-8" on="0"/>
      </contour>
      <contour>
        <pt x="266" y="363" on="1"/>
        <pt x="319" y="363" on="0"/>
        <pt x="362" y="390" on="0"/>
        <pt x="362" y="420" on="1"/>
        <pt x="362" y="448" on="0"/>
        <pt x="318" y="475" on="0"/>
        <pt x="278" y="475" on="1"/>
        <pt x="273" y="475" on="0"/>
        <pt x="262" y="475" on="0"/>
        <pt x="256" y="474" on="1"/>
        <pt x="256" y="363" on="1"/>
        <pt x="258" y="363" on="0"/>
        <pt x="264" y="363" on="0"/>
      </contour>
      <contour>
        <pt x="294" y="143" on="1"/>
        <pt x="336" y="143" on="0"/>
        <pt x="373" y="173" on="0"/>
        <pt x="373" y="201" on="1"/>
        <pt x="373" y="230" on="0"/>
        <pt x="332" y="253" on="0"/>
        <pt x="293" y="253" on="1"/>
        <pt x="285" y="253" on="0"/>
        <pt x="266" y="252" on="0"/>
        <pt x="256" y="251" on="1"/>
        <pt x="256" y="146" on="1"/>
        <pt x="266" y="145" on="0"/>
        <pt x="286" y="143" on="0"/>
      </contour>
    </TTGlyph>
    <TTGlyph name="B.sc" xMin="52" yMin="-8" xMax="544" yMax="561">
      <contour>
        <pt x="209" y="-8" on="1"/>
        <pt x="173" y="-8" on="0"/>
        <pt x="94" y="-4" on="0"/>
        <pt x="52" y="0" on="1"/>
        <pt x="52" y="552" on="1"/>
        <pt x="102" y="556" on="0"/>
        <pt x="192" y="561" on="0"/>
        <pt x="232" y="561" on="1"/>
        <pt x="375" y="561" on="0"/>
        <pt x="528" y="494" on="0"/>
        <pt x="528" y="416" on="1"/>
        <pt x="528" y="375" on="0"/>
        <pt x="482" y="309" on="0"/>
        <pt x="442" y="287" on="1"/>
        <pt x="492" y="272" on="0"/>
        <pt x="544" y="216" on="0"/>
        <pt x="544" y="165" on="1"/>
        <pt x="544" y="75" on="0"/>
        <pt x="365" y="-8" on="0"/>
      </contour>
      <contour>
        <pt x="255" y="319" on="1"/>
        <pt x="301" y="319" on="0"/>
        <pt x="339" y="342" on="0"/>
        <pt x="339" y="367" on="1"/>
        <pt x="339" y="390" on="0"/>
        <pt x="300" y="413" on="0"/>
        <pt x="266" y="413" on="1"/>
        <pt x="262" y="413" on="0"/>
        <pt x="252" y="412" on="0"/>
        <pt x="248" y="412" on="1"/>
        <pt x="248" y="319" on="1"/>
        <pt x="249" y="319" on="0"/>
        <pt x="254" y="319" on="0"/>
      </contour>
      <contour>
        <pt x="280" y="138" on="1"/>
        <pt x="317" y="138" on="0"/>
        <pt x="349" y="163" on="0"/>
        <pt x="349" y="186" on="1"/>
        <pt x="349" y="211" on="0"/>
        <pt x="312" y="229" on="0"/>
        <pt x="278" y="229" on="1"/>
        <pt x="271" y="229" on="0"/>
        <pt x="256" y="229" on="0"/>
        <pt x="248" y="228" on="1"/>
        <pt x="248" y="140" on="1"/>
        <pt x="257" y="139" on="0"/>
        <pt x="273" y="138" on="0"/>
      </contour>
    </TTGlyph>
    <TTGlyph name="C" xMin="29" yMin="-8" xMax="494" yMax="630">
      <contour>
        <pt x="494" y="164" on="1"/>
        <pt x="482" y="-5" on="1"/>
        <pt x="462" y="-6" on="0"/>
        <pt x="424" y="-8" on="0"/>
        <pt x="406" y="-8" on="1"/>
        <pt x="298" y="-8" on="0"/>
        <pt x="153" y="40" on="0"/>
        <pt x="66" y="121" on="0"/>
        <pt x="29" y="232" on="0"/>
        <pt x="29" y="295" on="1"/>
        <pt x="29" y="362" on="0"/>
        <pt x="74" y="483" on="0"/>
        <pt x="179" y="574" on="0"/>
        <pt x="353" y="629" on="0"/>
        <pt x="480" y="630" on="1"/>
        <pt x="488" y="447" on="1"/>
        <pt x="476" y="447" on="0"/>
        <pt x="453" y="448" on="0"/>
        <pt x="442" y="448" on="1"/>
        <pt x="378" y="448" on="0"/>
        <pt x="300" y="434" on="0"/>
        <pt x="258" y="404" on="0"/>
        <pt x="244" y="355" on="0"/>
        <pt x="244" y="320" on="1"/>
        <pt x="244" y="233" on="0"/>
        <pt x="352" y="164" on="0"/>
      </contour>
    </TTGlyph>
    <TTGlyph name="C.sc" xMin="27" yMin="-7" xMax="466" yMax="562">
      <contour>
        <pt x="466" y="151" on="1"/>
        <pt x="455" y="-3" on="1"/>
        <pt x="430" y="-5" on="0"/>
        <pt x="384" y="-7" on="0"/>
        <pt x="363" y="-7" on="1"/>
        <pt x="265" y="-7" on="0"/>
        <pt x="135" y="36" on="0"/>
        <pt x="58" y="109" on="0"/>
        <pt x="27" y="208" on="0"/>
        <pt x="27" y="262" on="1"/>
        <pt x="27" y="322" on="0"/>
        <pt x="70" y="431" on="0"/>
        <pt x="169" y="513" on="0"/>
        <pt x="333" y="561" on="0"/>
        <pt x="454" y="562" on="1"/>
        <pt x="461" y="393" on="1"/>
        <pt x="448" y="394" on="0"/>
        <pt x="423" y="394" on="0"/>
        <pt x="412" y="394" on="1"/>
        <pt x="356" y="394" on="0"/>
        <pt x="287" y="382" on="0"/>
        <pt x="250" y="357" on="0"/>
        <pt x="238" y="315" on="0"/>
        <pt x="238" y="285" on="1"/>
        <pt x="238" y="210" on="0"/>
        <pt x="335" y="151" on="0"/>
      </contour>
    </TTGlyph>
    <TTGlyph name="Cacute" xMin="29" yMin="-8" xMax="507" yMax="910">
      <contour>
        <pt x="158" y="733" on="1"/>
        <pt x="218" y="767" on="0"/>
        <pt x="343" y="861" on="0"/>
        <pt x="395" y="910" on="1"/>
        <pt x="507" y="766" on="1"/>
        <pt x="436" y="721" on="0"/>
        <pt x="266" y="663" on="0"/>
        <pt x="188" y="653" on="1"/>
      </contour>
      <contour>
        <pt x="494" y="164" on="1"/>
        <pt x="482" y="-5" on="1"/>
        <pt x="462" y="-6" on="0"/>
        <pt x="424" y="-8" on="0"/>
        <pt x="406" y="-8" on="1"/>
        <pt x="298" y="-8" on="0"/>
        <pt x="153" y="40" on="0"/>
        <pt x="66" y="121" on="0"/>
        <pt x="29" y="232" on="0"/>
        <pt x="29" y="295" on="1"/>
        <pt x="29" y="362" on="0"/>
        <pt x="74" y="483" on="0"/>
        <pt x="179" y="574" on="0"/>
        <pt x="353" y="629" on="0"/>
        <pt x="480" y="630" on="1"/>
        <pt x="488" y="447" on="1"/>
        <pt x="476" y="447" on="0"/>
        <pt x="453" y="448" on="0"/>
        <pt x="442" y="448" on="1"/>
        <pt x="378" y="448" on="0"/>
        <pt x="300" y="434" on="0"/>
        <pt x="258" y="404" on="0"/>
        <pt x="244" y="355" on="0"/>
        <pt x="244" y="320" on="1"/>
        <pt x="244" y="233" on="0"/>
        <pt x="352" y="164" on="0"/>
      </contour>
    </TTGlyph>
    <TTGlyph name="Cacute.sc" xMin="27" yMin="-7" xMax="478" yMax="844">
      <contour>
        <pt x="129" y="667" on="1"/>
        <pt x="189" y="701" on="0"/>
        <pt x="314" y="795" on="0"/>
        <pt x="366" y="844" on="1"/>
        <pt x="478" y="700" on="1"/>
        <pt x="407" y="655" on="0"/>
        <pt x="237" y="597" on="0"/>
        <pt x="159" y="587" on="1"/>
      </contour>
      <contour>
        <pt x="466" y="151" on="1"/>
        <pt x="455" y="-3" on="1"/>
        <pt x="430" y="-5" on="0"/>
        <pt x="384" y="-7" on="0"/>
        <pt x="363" y="-7" on="1"/>
        <pt x="265" y="-7" on="0"/>
        <pt x="135" y="36" on="0"/>
        <pt x="58" y="109" on="0"/>
        <pt x="27" y="208" on="0"/>
        <pt x="27" y="262" on="1"/>
        <pt x="27" y="322" on="0"/>
        <pt x="70" y="431" on="0"/>
        <pt x="169" y="513" on="0"/>
        <pt x="333" y="561" on="0"/>
        <pt x="454" y="562" on="1"/>
        <pt x="461" y="393" on="1"/>
        <pt x="448" y="394" on="0"/>
        <pt x="423" y="394" on="0"/>
        <pt x="412" y="394" on="1"/>
        <pt x="356" y="394" on="0"/>
        <pt x="287" y="382" on="0"/>
        <pt x="250" y="357" on="0"/>
        <pt x="238" y="315" on="0"/>
        <pt x="238" y="285" on="1"/>
        <pt x="238" y="210" on="0"/>
        <pt x="335" y="151" on="0"/>
      </contour>
    </TTGlyph>
    <TTGlyph name="Ccaron" xMin="29" yMin="-8" xMax="505" yMax="896">
      <contour>
        <pt x="325" y="658" on="1"/>
        <pt x="286" y="658" on="1"/>
        <pt x="106" y="793" on="1"/>
        <pt x="204" y="896" on="1"/>
        <pt x="317" y="811" on="1"/>
        <pt x="428" y="896" on="1"/>
        <pt x="505" y="805" on="1"/>
      </contour>
      <contour>
        <pt x="494" y="164" on="1"/>
        <pt x="482" y="-5" on="1"/>
        <pt x="462" y="-6" on="0"/>
        <pt x="424" y="-8" on="0"/>
        <pt x="406" y="-8" on="1"/>
        <pt x="298" y="-8" on="0"/>
        <pt x="153" y="40" on="0"/>
        <pt x="66" y="121" on="0"/>
        <pt x="29" y="232" on="0"/>
        <pt x="29" y="295" on="1"/>
        <pt x="29" y="362" on="0"/>
        <pt x="74" y="483" on="0"/>
        <pt x="179" y="574" on="0"/>
        <pt x="353" y="629" on="0"/>
        <pt x="480" y="630" on="1"/>
        <pt x="488" y="447" on="1"/>
        <pt x="476" y="447" on="0"/>
        <pt x="453" y="448" on="0"/>
        <pt x="442" y="448" on="1"/>
        <pt x="378" y="448" on="0"/>
        <pt x="300" y="434" on="0"/>
        <pt x="258" y="404" on="0"/>
        <pt x="244" y="355" on="0"/>
        <pt x="244" y="320" on="1"/>
        <pt x="244" y="233" on="0"/>
        <pt x="352" y="164" on="0"/>
      </contour>
    </TTGlyph>
    <TTGlyph name="Ccaron.sc" xMin="27" yMin="-7" xMax="476" yMax="830">
      <contour>
        <pt x="296" y="592" on="1"/>
        <pt x="257" y="592" on="1"/>
        <pt x="77" y="727" on="1"/>
        <pt x="175" y="830" on="1"/>
        <pt x="288" y="745" on="1"/>
        <pt x="399" y="830" on="1"/>
        <pt x="476" y="739" on="1"/>
      </contour>
      <contour>
        <pt x="466" y="151" on="1"/>
        <pt x="455" y="-3" on="1"/>
        <pt x="430" y="-5" on="0"/>
        <pt x="384" y="-7" on="0"/>
        <pt x="363" y="-7" on="1"/>
        <pt x="265" y="-7" on="0"/>
        <pt x="135" y="36" on="0"/>
        <pt x="58" y="109" on="0"/>
        <pt x="27" y="208" on="0"/>
        <pt x="27" y="262" on="1"/>
        <pt x="27" y="322" on="0"/>
        <pt x="70" y="431" on="0"/>
        <pt x="169" y="513" on="0"/>
        <pt x="333" y="561" on="0"/>
        <pt x="454" y="562" on="1"/>
        <pt x="461" y="393" on="1"/>
        <pt x="448" y="394" on="0"/>
        <pt x="423" y="394" on="0"/>
        <pt x="412" y="394" on="1"/>
        <pt x="356" y="394" on="0"/>
        <pt x="287" y="382" on="0"/>
        <pt x="250" y="357" on="0"/>
        <pt x="238" y="315" on="0"/>
        <pt x="238" y="285" on="1"/>
        <pt x="238" y="210" on="0"/>
        <pt x="335" y="151" on="0"/>
      </contour>
    </TTGlyph>
    <TTGlyph name="Ccedilla" xMin="29" yMin="-279" xMax="494" yMax="630">
      <contour>
        <pt x="494" y="164" on="1"/>
        <pt x="482" y="-5" on="1"/>
        <pt x="462" y="-6" on="0"/>
        <pt x="424" y="-8" on="0"/>
        <pt x="406" y="-8" on="1"/>
        <pt x="298" y="-8" on="0"/>
        <pt x="153" y="40" on="0"/>
        <pt x="66" y="121" on="0"/>
        <pt x="29" y="232" on="0"/>
        <pt x="29" y="295" on="1"/>
        <pt x="29" y="362" on="0"/>
        <pt x="74" y="483" on="0"/>
        <pt x="179" y="574" on="0"/>
        <pt x="353" y="629" on="0"/>
        <pt x="480" y="630" on="1"/>
        <pt x="488" y="447" on="1"/>
        <pt x="476" y="447" on="0"/>
        <pt x="453" y="448" on="0"/>
        <pt x="442" y="448" on="1"/>
        <pt x="378" y="448" on="0"/>
        <pt x="300" y="434" on="0"/>
        <pt x="258" y="404" on="0"/>
        <pt x="244" y="355" on="0"/>
        <pt x="244" y="320" on="1"/>
        <pt x="244" y="233" on="0"/>
        <pt x="352" y="164" on="0"/>
      </contour>
      <contour>
        <pt x="205" y="-99" on="1"/>
        <pt x="230" y="-20" on="1"/>
        <pt x="333" y="-42" on="0"/>
        <pt x="422" y="-116" on="0"/>
        <pt x="422" y="-161" on="1"/>
        <pt x="422" y="-210" on="0"/>
        <pt x="318" y="-279" on="0"/>
        <pt x="217" y="-279" on="1"/>
        <pt x="210" y="-279" on="0"/>
        <pt x="194" y="-279" on="0"/>
        <pt x="187" y="-278" on="1"/>
        <pt x="184" y="-154" on="1"/>
        <pt x="197" y="-155" on="0"/>
        <pt x="221" y="-155" on="0"/>
        <pt x="231" y="-155" on="1"/>
        <pt x="266" y="-155" on="0"/>
        <pt x="295" y="-147" on="0"/>
        <pt x="295" y="-137" on="1"/>
        <pt x="295" y="-127" on="0"/>
        <pt x="253" y="-109" on="0"/>
      </contour>
    </TTGlyph>
    <TTGlyph name="Ccedilla.sc" xMin="27" yMin="-279" xMax="466" yMax="562">
      <contour>
        <pt x="466" y="151" on="1"/>
        <pt x="455" y="-3" on="1"/>
        <pt x="430" y="-5" on="0"/>
        <pt x="384" y="-7" on="0"/>
        <pt x="363" y="-7" on="1"/>
        <pt x="265" y="-7" on="0"/>
        <pt x="135" y="36" on="0"/>
        <pt x="58" y="109" on="0"/>
        <pt x="27" y="208" on="0"/>
        <pt x="27" y="262" on="1"/>
        <pt x="27" y="322" on="0"/>
        <pt x="70" y="431" on="0"/>
        <pt x="169" y="513" on="0"/>
        <pt x="333" y="561" on="0"/>
        <pt x="454" y="562" on="1"/>
        <pt x="461" y="393" on="1"/>
        <pt x="448" y="394" on="0"/>
        <pt x="423" y="394" on="0"/>
        <pt x="412" y="394" on="1"/>
        <pt x="356" y="394" on="0"/>
        <pt x="287" y="382" on="0"/>
        <pt x="250" y="357" on="0"/>
        <pt x="238" y="315" on="0"/>
        <pt x="238" y="285" on="1"/>
        <pt x="238" y="210" on="0"/>
        <pt x="335" y="151" on="0"/>
      </contour>
      <contour>
        <pt x="173" y="-99" on="1"/>
        <pt x="198" y="-20" on="1"/>
        <pt x="301" y="-42" on="0"/>
        <pt x="390" y="-116" on="0"/>
        <pt x="390" y="-161" on="1"/>
        <pt x="390" y="-210" on="0"/>
        <pt x="286" y="-279" on="0"/>
        <pt x="185" y="-279" on="1"/>
        <pt x="178" y="-279" on="0"/>
        <pt x="162" y="-279" on="0"/>
        <pt x="155" y="-278" on="1"/>
        <pt x="152" y="-154" on="1"/>
        <pt x="165" y="-155" on="0"/>
        <pt x="189" y="-155" on="0"/>
        <pt x="199" y="-155" on="1"/>
        <pt x="234" y="-155" on="0"/>
        <pt x="263" y="-147" on="0"/>
        <pt x="263" y="-137" on="1"/>
        <pt x="263" y="-127" on="0"/>
        <pt x="221" y="-109" on="0"/>
      </contour>
    </TTGlyph>
    <TTGlyph name="Cdotaccent" xMin="29" yMin="-8" xMax="494" yMax="848">
      <contour>
        <pt x="405" y="678" on="1"/>
        <pt x="201" y="678" on="1"/>
        <pt x="207" y="848" on="1"/>
        <pt x="411" y="848" on="1"/>
      </contour>
      <contour>
        <pt x="494" y="164" on="1"/>
        <pt x="482" y="-5" on="1"/>
        <pt x="462" y="-6" on="0"/>
        <pt x="424" y="-8" on="0"/>
        <pt x="406" y="-8" on="1"/>
        <pt x="298" y="-8" on="0"/>
        <pt x="153" y="40" on="0"/>
        <pt x="66" y="121" on="0"/>
        <pt x="29" y="232" on="0"/>
        <pt x="29" y="295" on="1"/>
        <pt x="29" y="362" on="0"/>
        <pt x="74" y="483" on="0"/>
        <pt x="179" y="574" on="0"/>
        <pt x="353" y="629" on="0"/>
        <pt x="480" y="630" on="1"/>
        <pt x="488" y="447" on="1"/>
        <pt x="476" y="447" on="0"/>
        <pt x="453" y="448" on="0"/>
        <pt x="442" y="448" on="1"/>
        <pt x="378" y="448" on="0"/>
        <pt x="300" y="434" on="0"/>
        <pt x="258" y="404" on="0"/>
        <pt x="244" y="355" on="0"/>
        <pt x="244" y="320" on="1"/>
        <pt x="244" y="233" on="0"/>
        <pt x="352" y="164" on="0"/>
      </contour>
    </TTGlyph>
    <TTGlyph name="Cdotaccent.sc" xMin="27" yMin="-7" xMax="466" yMax="782">
      <contour>
        <pt x="377" y="612" on="1"/>
        <pt x="173" y="612" on="1"/>
        <pt x="179" y="782" on="1"/>
        <pt x="383" y="782" on="1"/>
      </contour>
      <contour>
        <pt x="466" y="151" on="1"/>
        <pt x="455" y="-3" on="1"/>
        <pt x="430" y="-5" on="0"/>
        <pt x="384" y="-7" on="0"/>
        <pt x="363" y="-7" on="1"/>
        <pt x="265" y="-7" on="0"/>
        <pt x="135" y="36" on="0"/>
        <pt x="58" y="109" on="0"/>
        <pt x="27" y="208" on="0"/>
        <pt x="27" y="262" on="1"/>
        <pt x="27" y="322" on="0"/>
        <pt x="70" y="431" on="0"/>
        <pt x="169" y="513" on="0"/>
        <pt x="333" y="561" on="0"/>
        <pt x="454" y="562" on="1"/>
        <pt x="461" y="393" on="1"/>
        <pt x="448" y="394" on="0"/>
        <pt x="423" y="394" on="0"/>
        <pt x="412" y="394" on="1"/>
        <pt x="356" y="394" on="0"/>
        <pt x="287" y="382" on="0"/>
        <pt x="250" y="357" on="0"/>
        <pt x="238" y="315" on="0"/>
        <pt x="238" y="285" on="1"/>
        <pt x="238" y="210" on="0"/>
        <pt x="335" y="151" on="0"/>
      </contour>
    </TTGlyph>
    <TTGlyph name="D" xMin="57" yMin="-8" xMax="601" yMax="628">
      <contour>
        <pt x="601" y="324" on="1"/>
        <pt x="601" y="171" on="0"/>
        <pt x="395" y="-8" on="0"/>
        <pt x="188" y="-8" on="1"/>
        <pt x="157" y="-8" on="0"/>
        <pt x="92" y="-4" on="0"/>
        <pt x="57" y="0" on="1"/>
        <pt x="57" y="620" on="1"/>
        <pt x="98" y="624" on="0"/>
        <pt x="175" y="628" on="0"/>
        <pt x="209" y="628" on="1"/>
        <pt x="416" y="628" on="0"/>
        <pt x="601" y="478" on="0"/>
      </contour>
      <contour>
        <pt x="397" y="306" on="1"/>
        <pt x="397" y="384" on="0"/>
        <pt x="336" y="464" on="0"/>
        <pt x="275" y="464" on="1"/>
        <pt x="271" y="464" on="0"/>
        <pt x="263" y="463" on="0"/>
        <pt x="259" y="463" on="1"/>
        <pt x="259" y="159" on="1"/>
        <pt x="266" y="158" on="0"/>
        <pt x="281" y="157" on="0"/>
        <pt x="288" y="157" on="1"/>
        <pt x="344" y="157" on="0"/>
        <pt x="397" y="227" on="0"/>
      </contour>
    </TTGlyph>
    <TTGlyph name="D.sc" xMin="52" yMin="-9" xMax="568" yMax="560">
      <contour>
        <pt x="568" y="289" on="1"/>
        <pt x="568" y="153" on="0"/>
        <pt x="375" y="-9" on="0"/>
        <pt x="182" y="-9" on="1"/>
        <pt x="152" y="-9" on="0"/>
        <pt x="87" y="-4" on="0"/>
        <pt x="52" y="0" on="1"/>
        <pt x="52" y="552" on="1"/>
        <pt x="93" y="556" on="0"/>
        <pt x="169" y="560" on="0"/>
        <pt x="203" y="560" on="1"/>
        <pt x="395" y="560" on="0"/>
        <pt x="568" y="426" on="0"/>
      </contour>
      <contour>
        <pt x="368" y="273" on="1"/>
        <pt x="368" y="342" on="0"/>
        <pt x="314" y="408" on="0"/>
        <pt x="262" y="408" on="1"/>
        <pt x="250" y="408" on="1"/>
        <pt x="250" y="146" on="1"/>
        <pt x="257" y="145" on="0"/>
        <pt x="270" y="144" on="0"/>
        <pt x="276" y="144" on="1"/>
        <pt x="322" y="144" on="0"/>
        <pt x="368" y="204" on="0"/>
      </contour>
    </TTGlyph>
    <TTGlyph name="Dcaron" xMin="57" yMin="-8" xMax="601" yMax="901">
      <contour>
        <pt x="319" y="663" on="1"/>
        <pt x="280" y="663" on="1"/>
        <pt x="100" y="798" on="1"/>
        <pt x="198" y="901" on="1"/>
        <pt x="311" y="816" on="1"/>
        <pt x="422" y="901" on="1"/>
        <pt x="499" y="810" on="1"/>
      </contour>
      <contour>
        <pt x="601" y="324" on="1"/>
        <pt x="601" y="171" on="0"/>
        <pt x="395" y="-8" on="0"/>
        <pt x="188" y="-8" on="1"/>
        <pt x="157" y="-8" on="0"/>
        <pt x="92" y="-4" on="0"/>
        <pt x="57" y="0" on="1"/>
        <pt x="57" y="620" on="1"/>
        <pt x="98" y="624" on="0"/>
        <pt x="175" y="628" on="0"/>
        <pt x="209" y="628" on="1"/>
        <pt x="416" y="628" on="0"/>
        <pt x="601" y="478" on="0"/>
      </contour>
      <contour>
        <pt x="397" y="306" on="1"/>
        <pt x="397" y="384" on="0"/>
        <pt x="336" y="464" on="0"/>
        <pt x="275" y="464" on="1"/>
        <pt x="271" y="464" on="0"/>
        <pt x="263" y="463" on="0"/>
        <pt x="259" y="463" on="1"/>
        <pt x="259" y="159" on="1"/>
        <pt x="266" y="158" on="0"/>
        <pt x="281" y="157" on="0"/>
        <pt x="288" y="157" on="1"/>
        <pt x="344" y="157" on="0"/>
        <pt x="397" y="227" on="0"/>
      </contour>
    </TTGlyph>
    <TTGlyph name="Dcaron.sc" xMin="52" yMin="-9" xMax="568" yMax="833">
      <contour>
        <pt x="301" y="595" on="1"/>
        <pt x="262" y="595" on="1"/>
        <pt x="82" y="730" on="1"/>
        <pt x="180" y="833" on="1"/>
        <pt x="293" y="748" on="1"/>
        <pt x="404" y="833" on="1"/>
        <pt x="481" y="742" on="1"/>
      </contour>
      <contour>
        <pt x="568" y="289" on="1"/>
        <pt x="568" y="153" on="0"/>
        <pt x="375" y="-9" on="0"/>
        <pt x="182" y="-9" on="1"/>
        <pt x="152" y="-9" on="0"/>
        <pt x="87" y="-4" on="0"/>
        <pt x="52" y="0" on="1"/>
        <pt x="52" y="552" on="1"/>
        <pt x="93" y="556" on="0"/>
        <pt x="169" y="560" on="0"/>
        <pt x="203" y="560" on="1"/>
        <pt x="395" y="560" on="0"/>
        <pt x="568" y="426" on="0"/>
      </contour>
      <contour>
        <pt x="368" y="273" on="1"/>
        <pt x="368" y="342" on="0"/>
        <pt x="314" y="408" on="0"/>
        <pt x="262" y="408" on="1"/>
        <pt x="250" y="408" on="1"/>
        <pt x="250" y="146" on="1"/>
        <pt x="257" y="145" on="0"/>
        <pt x="270" y="144" on="0"/>
        <pt x="276" y="144" on="1"/>
        <pt x="322" y="144" on="0"/>
        <pt x="368" y="204" on="0"/>
      </contour>
    </TTGlyph>
    <TTGlyph name="Dcroat" xMin="3" yMin="-8" xMax="601" yMax="628">
      <contour>
        <pt x="188" y="-8" on="1"/>
        <pt x="157" y="-8" on="0"/>
        <pt x="92" y="-4" on="0"/>
        <pt x="57" y="0" on="1"/>
        <pt x="57" y="256" on="1"/>
        <pt x="3" y="256" on="1"/>
        <pt x="3" y="368" on="1"/>
        <pt x="57" y="368" on="1"/>
        <pt x="57" y="620" on="1"/>
        <pt x="98" y="624" on="0"/>
        <pt x="175" y="628" on="0"/>
        <pt x="209" y="628" on="1"/>
        <pt x="416" y="628" on="0"/>
        <pt x="601" y="478" on="0"/>
        <pt x="601" y="324" on="1"/>
        <pt x="601" y="171" on="0"/>
        <pt x="395" y="-8" on="0"/>
      </contour>
      <contour>
        <pt x="287" y="152" on="1"/>
        <pt x="345" y="152" on="0"/>
        <pt x="402" y="222" on="0"/>
        <pt x="402" y="306" on="1"/>
        <pt x="402" y="390" on="0"/>
        <pt x="335" y="469" on="0"/>
        <pt x="272" y="469" on="1"/>
        <pt x="268" y="469" on="0"/>
        <pt x="258" y="468" on="0"/>
        <pt x="254" y="468" on="1"/>
        <pt x="254" y="368" on="1"/>
        <pt x="335" y="368" on="1"/>
        <pt x="329" y="256" on="1"/>
        <pt x="254" y="256" on="1"/>
        <pt x="254" y="154" on="1"/>
        <pt x="263" y="153" on="0"/>
        <pt x="280" y="152" on="0"/>
      </contour>
    </TTGlyph>
    <TTGlyph name="Dcroat.sc" xMin="1" yMin="-10" xMax="568" yMax="561">
      <contour>
        <pt x="186" y="-10" on="1"/>
        <pt x="155" y="-10" on="0"/>
        <pt x="88" y="-4" on="0"/>
        <pt x="52" y="0" on="1"/>
        <pt x="52" y="227" on="1"/>
        <pt x="1" y="227" on="1"/>
        <pt x="1" y="329" on="1"/>
        <pt x="52" y="329" on="1"/>
        <pt x="52" y="552" on="1"/>
        <pt x="95" y="556" on="0"/>
        <pt x="173" y="561" on="0"/>
        <pt x="208" y="561" on="1"/>
        <pt x="397" y="561" on="0"/>
        <pt x="568" y="424" on="0"/>
        <pt x="568" y="289" on="1"/>
        <pt x="568" y="221" on="0"/>
        <pt x="520" y="111" on="0"/>
        <pt x="426" y="33" on="0"/>
        <pt x="282" y="-10" on="0"/>
      </contour>
      <contour>
        <pt x="273" y="139" on="1"/>
        <pt x="322" y="139" on="0"/>
        <pt x="371" y="200" on="0"/>
        <pt x="371" y="273" on="1"/>
        <pt x="371" y="345" on="0"/>
        <pt x="314" y="414" on="0"/>
        <pt x="260" y="414" on="1"/>
        <pt x="257" y="414" on="0"/>
        <pt x="250" y="413" on="0"/>
        <pt x="246" y="413" on="1"/>
        <pt x="246" y="329" on="1"/>
        <pt x="312" y="329" on="1"/>
        <pt x="307" y="227" on="1"/>
        <pt x="246" y="227" on="1"/>
        <pt x="246" y="141" on="1"/>
        <pt x="253" y="140" on="0"/>
        <pt x="267" y="139" on="0"/>
      </contour>
    </TTGlyph>
    <TTGlyph name="E" xMin="57" yMin="0" xMax="495" yMax="620">
      <contour>
        <pt x="495" y="161" on="1"/>
        <pt x="484" y="0" on="1"/>
        <pt x="57" y="0" on="1"/>
        <pt x="57" y="620" on="1"/>
        <pt x="487" y="620" on="1"/>
        <pt x="487" y="459" on="1"/>
        <pt x="264" y="459" on="1"/>
        <pt x="264" y="373" on="1"/>
        <pt x="441" y="373" on="1"/>
        <pt x="441" y="249" on="1"/>
        <pt x="264" y="249" on="1"/>
        <pt x="264" y="161" on="1"/>
      </contour>
    </TTGlyph>
    <TTGlyph name="E.sc" xMin="52" yMin="0" xMax="469" yMax="552">
      <contour>
        <pt x="469" y="148" on="1"/>
        <pt x="459" y="0" on="1"/>
        <pt x="52" y="0" on="1"/>
        <pt x="52" y="552" on="1"/>
        <pt x="461" y="552" on="1"/>
        <pt x="461" y="403" on="1"/>
        <pt x="254" y="403" on="1"/>
        <pt x="254" y="333" on="1"/>
        <pt x="417" y="333" on="1"/>
        <pt x="417" y="220" on="1"/>
        <pt x="254" y="220" on="1"/>
        <pt x="254" y="148" on="1"/>
      </contour>
    </TTGlyph>
    <TTGlyph name="Eacute" xMin="57" yMin="0" xMax="495" yMax="914">
      <contour>
        <pt x="126" y="737" on="1"/>
        <pt x="186" y="771" on="0"/>
        <pt x="311" y="865" on="0"/>
        <pt x="363" y="914" on="1"/>
        <pt x="475" y="770" on="1"/>
        <pt x="404" y="725" on="0"/>
        <pt x="234" y="667" on="0"/>
        <pt x="156" y="657" on="1"/>
      </contour>
      <contour>
        <pt x="495" y="161" on="1"/>
        <pt x="484" y="0" on="1"/>
        <pt x="57" y="0" on="1"/>
        <pt x="57" y="620" on="1"/>
        <pt x="487" y="620" on="1"/>
        <pt x="487" y="459" on="1"/>
        <pt x="264" y="459" on="1"/>
        <pt x="264" y="373" on="1"/>
        <pt x="441" y="373" on="1"/>
        <pt x="441" y="249" on="1"/>
        <pt x="264" y="249" on="1"/>
        <pt x="264" y="161" on="1"/>
      </contour>
    </TTGlyph>
    <TTGlyph name="Eacute.sc" xMin="52" yMin="0" xMax="469" yMax="846">
      <contour>
        <pt x="110" y="669" on="1"/>
        <pt x="170" y="703" on="0"/>
        <pt x="295" y="797" on="0"/>
        <pt x="347" y="846" on="1"/>
        <pt x="459" y="702" on="1"/>
        <pt x="388" y="657" on="0"/>
        <pt x="218" y="599" on="0"/>
        <pt x="140" y="589" on="1"/>
      </contour>
      <contour>
        <pt x="469" y="148" on="1"/>
        <pt x="459" y="0" on="1"/>
        <pt x="52" y="0" on="1"/>
        <pt x="52" y="552" on="1"/>
        <pt x="461" y="552" on="1"/>
        <pt x="461" y="403" on="1"/>
        <pt x="254" y="403" on="1"/>
        <pt x="254" y="333" on="1"/>
        <pt x="417" y="333" on="1"/>
        <pt x="417" y="220" on="1"/>
        <pt x="254" y="220" on="1"/>
        <pt x="254" y="148" on="1"/>
      </contour>
    </TTGlyph>
    <TTGlyph name="Ebreve" xMin="57" yMin="0" xMax="495" yMax="885">
      <contour>
        <pt x="271" y="661" on="1"/>
        <pt x="202" y="661" on="0"/>
        <pt x="98" y="750" on="0"/>
        <pt x="64" y="823" on="1"/>
        <pt x="180" y="885" on="1"/>
        <pt x="205" y="849" on="0"/>
        <pt x="257" y="813" on="0"/>
        <pt x="285" y="813" on="1"/>
        <pt x="313" y="813" on="0"/>
        <pt x="364" y="850" on="0"/>
        <pt x="387" y="884" on="1"/>
        <pt x="484" y="839" on="1"/>
        <pt x="450" y="763" on="0"/>
        <pt x="343" y="661" on="0"/>
      </contour>
      <contour>
        <pt x="495" y="161" on="1"/>
        <pt x="484" y="0" on="1"/>
        <pt x="57" y="0" on="1"/>
        <pt x="57" y="620" on="1"/>
        <pt x="487" y="620" on="1"/>
        <pt x="487" y="459" on="1"/>
        <pt x="264" y="459" on="1"/>
        <pt x="264" y="373" on="1"/>
        <pt x="441" y="373" on="1"/>
        <pt x="441" y="249" on="1"/>
        <pt x="264" y="249" on="1"/>
        <pt x="264" y="161" on="1"/>
      </contour>
    </TTGlyph>
    <TTGlyph name="Ebreve.sc" xMin="48" yMin="0" xMax="469" yMax="817">
      <contour>
        <pt x="255" y="593" on="1"/>
        <pt x="186" y="593" on="0"/>
        <pt x="82" y="682" on="0"/>
        <pt x="48" y="755" on="1"/>
        <pt x="164" y="817" on="1"/>
        <pt x="189" y="781" on="0"/>
        <pt x="241" y="745" on="0"/>
        <pt x="269" y="745" on="1"/>
        <pt x="297" y="745" on="0"/>
        <pt x="348" y="782" on="0"/>
        <pt x="371" y="816" on="1"/>
        <pt x="468" y="771" on="1"/>
        <pt x="434" y="695" on="0"/>
        <pt x="327" y="593" on="0"/>
      </contour>
      <contour>
        <pt x="469" y="148" on="1"/>
        <pt x="459" y="0" on="1"/>
        <pt x="52" y="0" on="1"/>
        <pt x="52" y="552" on="1"/>
        <pt x="461" y="552" on="1"/>
        <pt x="461" y="403" on="1"/>
        <pt x="254" y="403" on="1"/>
        <pt x="254" y="333" on="1"/>
        <pt x="417" y="333" on="1"/>
        <pt x="417" y="220" on="1"/>
        <pt x="254" y="220" on="1"/>
        <pt x="254" y="148" on="1"/>
      </contour>
    </TTGlyph>
    <TTGlyph name="Ecaron" xMin="57" yMin="0" xMax="495" yMax="893">
      <contour>
        <pt x="293" y="655" on="1"/>
        <pt x="254" y="655" on="1"/>
        <pt x="74" y="790" on="1"/>
        <pt x="172" y="893" on="1"/>
        <pt x="285" y="808" on="1"/>
        <pt x="396" y="893" on="1"/>
        <pt x="473" y="802" on="1"/>
      </contour>
      <contour>
        <pt x="495" y="161" on="1"/>
        <pt x="484" y="0" on="1"/>
        <pt x="57" y="0" on="1"/>
        <pt x="57" y="620" on="1"/>
        <pt x="487" y="620" on="1"/>
        <pt x="487" y="459" on="1"/>
        <pt x="264" y="459" on="1"/>
        <pt x="264" y="373" on="1"/>
        <pt x="441" y="373" on="1"/>
        <pt x="441" y="249" on="1"/>
        <pt x="264" y="249" on="1"/>
        <pt x="264" y="161" on="1"/>
      </contour>
    </TTGlyph>
    <TTGlyph name="Ecaron.sc" xMin="52" yMin="0" xMax="469" yMax="825">
      <contour>
        <pt x="277" y="587" on="1"/>
        <pt x="238" y="587" on="1"/>
        <pt x="58" y="722" on="1"/>
        <pt x="156" y="825" on="1"/>
        <pt x="269" y="740" on="1"/>
        <pt x="380" y="825" on="1"/>
        <pt x="457" y="734" on="1"/>
      </contour>
      <contour>
        <pt x="469" y="148" on="1"/>
        <pt x="459" y="0" on="1"/>
        <pt x="52" y="0" on="1"/>
        <pt x="52" y="552" on="1"/>
        <pt x="461" y="552" on="1"/>
        <pt x="461" y="403" on="1"/>
        <pt x="254" y="403" on="1"/>
        <pt x="254" y="333" on="1"/>
        <pt x="417" y="333" on="1"/>
        <pt x="417" y="220" on="1"/>
        <pt x="254" y="220" on="1"/>
        <pt x="254" y="148" on="1"/>
      </contour>
    </TTGlyph>
    <TTGlyph name="Ecircumflex" xMin="57" yMin="0" xMax="495" yMax="894">
      <contour>
        <pt x="377" y="656" on="1"/>
        <pt x="264" y="742" on="1"/>
        <pt x="153" y="656" on="1"/>
        <pt x="75" y="747" on="1"/>
        <pt x="256" y="894" on="1"/>
        <pt x="295" y="894" on="1"/>
        <pt x="474" y="759" on="1"/>
      </contour>
      <contour>
        <pt x="495" y="161" on="1"/>
        <pt x="484" y="0" on="1"/>
        <pt x="57" y="0" on="1"/>
        <pt x="57" y="620" on="1"/>
        <pt x="487" y="620" on="1"/>
        <pt x="487" y="459" on="1"/>
        <pt x="264" y="459" on="1"/>
        <pt x="264" y="373" on="1"/>
        <pt x="441" y="373" on="1"/>
        <pt x="441" y="249" on="1"/>
        <pt x="264" y="249" on="1"/>
        <pt x="264" y="161" on="1"/>
      </contour>
    </TTGlyph>
    <TTGlyph name="Ecircumflex.sc" xMin="52" yMin="0" xMax="469" yMax="826">
      <contour>
        <pt x="361" y="588" on="1"/>
        <pt x="248" y="674" on="1"/>
        <pt x="137" y="588" on="1"/>
        <pt x="59" y="679" on="1"/>
        <pt x="240" y="826" on="1"/>
        <pt x="279" y="826" on="1"/>
        <pt x="458" y="691" on="1"/>
      </contour>
      <contour>
        <pt x="469" y="148" on="1"/>
        <pt x="459" y="0" on="1"/>
        <pt x="52" y="0" on="1"/>
        <pt x="52" y="552" on="1"/>
        <pt x="461" y="552" on="1"/>
        <pt x="461" y="403" on="1"/>
        <pt x="254" y="403" on="1"/>
        <pt x="254" y="333" on="1"/>
        <pt x="417" y="333" on="1"/>
        <pt x="417" y="220" on="1"/>
        <pt x="254" y="220" on="1"/>
        <pt x="254" y="148" on="1"/>
      </contour>
    </TTGlyph>
    <TTGlyph name="Edieresis" xMin="57" yMin="0" xMax="495" yMax="845">
      <contour>
        <pt x="482" y="675" on="1"/>
        <pt x="298" y="675" on="1"/>
        <pt x="300" y="845" on="1"/>
        <pt x="485" y="845" on="1"/>
      </contour>
      <contour>
        <pt x="245" y="675" on="1"/>
        <pt x="60" y="675" on="1"/>
        <pt x="63" y="845" on="1"/>
        <pt x="247" y="845" on="1"/>
      </contour>
      <contour>
        <pt x="495" y="161" on="1"/>
        <pt x="484" y="0" on="1"/>
        <pt x="57" y="0" on="1"/>
        <pt x="57" y="620" on="1"/>
        <pt x="487" y="620" on="1"/>
        <pt x="487" y="459" on="1"/>
        <pt x="264" y="459" on="1"/>
        <pt x="264" y="373" on="1"/>
        <pt x="441" y="373" on="1"/>
        <pt x="441" y="249" on="1"/>
        <pt x="264" y="249" on="1"/>
        <pt x="264" y="161" on="1"/>
      </contour>
    </TTGlyph>
    <TTGlyph name="Edieresis.sc" xMin="44" yMin="0" xMax="469" yMax="777">
      <contour>
        <pt x="466" y="607" on="1"/>
        <pt x="282" y="607" on="1"/>
        <pt x="284" y="777" on="1"/>
        <pt x="469" y="777" on="1"/>
      </contour>
      <contour>
        <pt x="229" y="607" on="1"/>
        <pt x="44" y="607" on="1"/>
        <pt x="47" y="777" on="1"/>
        <pt x="231" y="777" on="1"/>
      </contour>
      <contour>
        <pt x="469" y="148" on="1"/>
        <pt x="459" y="0" on="1"/>
        <pt x="52" y="0" on="1"/>
        <pt x="52" y="552" on="1"/>
        <pt x="461" y="552" on="1"/>
        <pt x="461" y="403" on="1"/>
        <pt x="254" y="403" on="1"/>
        <pt x="254" y="333" on="1"/>
        <pt x="417" y="333" on="1"/>
        <pt x="417" y="220" on="1"/>
        <pt x="254" y="220" on="1"/>
        <pt x="254" y="148" on="1"/>
      </contour>
    </TTGlyph>
    <TTGlyph name="Edotaccent" xMin="57" yMin="0" xMax="495" yMax="845">
      <contour>
        <pt x="373" y="675" on="1"/>
        <pt x="169" y="675" on="1"/>
        <pt x="175" y="845" on="1"/>
        <pt x="379" y="845" on="1"/>
      </contour>
      <contour>
        <pt x="495" y="161" on="1"/>
        <pt x="484" y="0" on="1"/>
        <pt x="57" y="0" on="1"/>
        <pt x="57" y="620" on="1"/>
        <pt x="487" y="620" on="1"/>
        <pt x="487" y="459" on="1"/>
        <pt x="264" y="459" on="1"/>
        <pt x="264" y="373" on="1"/>
        <pt x="441" y="373" on="1"/>
        <pt x="441" y="249" on="1"/>
        <pt x="264" y="249" on="1"/>
        <pt x="264" y="161" on="1"/>
      </contour>
    </TTGlyph>
    <TTGlyph name="Edotaccent.sc" xMin="52" yMin="0" xMax="469" yMax="777">
      <contour>
        <pt x="357" y="607" on="1"/>
        <pt x="153" y="607" on="1"/>
        <pt x="159" y="777" on="1"/>
        <pt x="363" y="777" on="1"/>
      </contour>
      <contour>
        <pt x="469" y="148" on="1"/>
        <pt x="459" y="0" on="1"/>
        <pt x="52" y="0" on="1"/>
        <pt x="52" y="552" on="1"/>
        <pt x="461" y="552" on="1"/>
        <pt x="461" y="403" on="1"/>
        <pt x="254" y="403" on="1"/>
        <pt x="254" y="333" on="1"/>
        <pt x="417" y="333" on="1"/>
        <pt x="417" y="220" on="1"/>
        <pt x="254" y="220" on="1"/>
        <pt x="254" y="148" on="1"/>
      </contour>
    </TTGlyph>
    <TTGlyph name="Egrave" xMin="57" yMin="0" xMax="495" yMax="914">
      <contour>
        <pt x="418" y="737" on="1"/>
        <pt x="383" y="656" on="1"/>
        <pt x="306" y="671" on="0"/>
        <pt x="140" y="728" on="0"/>
        <pt x="70" y="769" on="1"/>
        <pt x="174" y="914" on="1"/>
        <pt x="228" y="869" on="0"/>
        <pt x="358" y="774" on="0"/>
      </contour>
      <contour>
        <pt x="495" y="161" on="1"/>
        <pt x="484" y="0" on="1"/>
        <pt x="57" y="0" on="1"/>
        <pt x="57" y="620" on="1"/>
        <pt x="487" y="620" on="1"/>
        <pt x="487" y="459" on="1"/>
        <pt x="264" y="459" on="1"/>
        <pt x="264" y="373" on="1"/>
        <pt x="441" y="373" on="1"/>
        <pt x="441" y="249" on="1"/>
        <pt x="264" y="249" on="1"/>
        <pt x="264" y="161" on="1"/>
      </contour>
    </TTGlyph>
    <TTGlyph name="Egrave.sc" xMin="52" yMin="0" xMax="469" yMax="846">
      <contour>
        <pt x="402" y="669" on="1"/>
        <pt x="367" y="588" on="1"/>
        <pt x="290" y="603" on="0"/>
        <pt x="124" y="660" on="0"/>
        <pt x="54" y="701" on="1"/>
        <pt x="158" y="846" on="1"/>
        <pt x="212" y="801" on="0"/>
        <pt x="342" y="706" on="0"/>
      </contour>
      <contour>
        <pt x="469" y="148" on="1"/>
        <pt x="459" y="0" on="1"/>
        <pt x="52" y="0" on="1"/>
        <pt x="52" y="552" on="1"/>
        <pt x="461" y="552" on="1"/>
        <pt x="461" y="403" on="1"/>
        <pt x="254" y="403" on="1"/>
        <pt x="254" y="333" on="1"/>
        <pt x="417" y="333" on="1"/>
        <pt x="417" y="220" on="1"/>
        <pt x="254" y="220" on="1"/>
        <pt x="254" y="148" on="1"/>
      </contour>
    </TTGlyph>
    <TTGlyph name="Emacron" xMin="57" yMin="0" xMax="495" yMax="841">
      <contour>
        <pt x="460" y="841" on="1"/>
        <pt x="460" y="680" on="1"/>
        <pt x="84" y="680" on="1"/>
        <pt x="84" y="841" on="1"/>
      </contour>
      <contour>
        <pt x="495" y="161" on="1"/>
        <pt x="484" y="0" on="1"/>
        <pt x="57" y="0" on="1"/>
        <pt x="57" y="620" on="1"/>
        <pt x="487" y="620" on="1"/>
        <pt x="487" y="459" on="1"/>
        <pt x="264" y="459" on="1"/>
        <pt x="264" y="373" on="1"/>
        <pt x="441" y="373" on="1"/>
        <pt x="441" y="249" on="1"/>
        <pt x="264" y="249" on="1"/>
        <pt x="264" y="161" on="1"/>
      </contour>
    </TTGlyph>
    <TTGlyph name="Emacron.sc" xMin="52" yMin="0" xMax="469" yMax="773">
      <contour>
        <pt x="444" y="773" on="1"/>
        <pt x="444" y="612" on="1"/>
        <pt x="68" y="612" on="1"/>
        <pt x="68" y="773" on="1"/>
      </contour>
      <contour>
        <pt x="469" y="148" on="1"/>
        <pt x="459" y="0" on="1"/>
        <pt x="52" y="0" on="1"/>
        <pt x="52" y="552" on="1"/>
        <pt x="461" y="552" on="1"/>
        <pt x="461" y="403" on="1"/>
        <pt x="254" y="403" on="1"/>
        <pt x="254" y="333" on="1"/>
        <pt x="417" y="333" on="1"/>
        <pt x="417" y="220" on="1"/>
        <pt x="254" y="220" on="1"/>
        <pt x="254" y="148" on="1"/>
      </contour>
    </TTGlyph>
    <TTGlyph name="Eogonek" xMin="57" yMin="-249" xMax="495" yMax="620">
      <contour>
        <pt x="470" y="-105" on="1"/>
        <pt x="456" y="-249" on="1"/>
        <pt x="382" y="-245" on="0"/>
        <pt x="282" y="-220" on="0"/>
        <pt x="223" y="-186" on="0"/>
        <pt x="198" y="-143" on="0"/>
        <pt x="198" y="-121" on="1"/>
        <pt x="198" y="-88" on="0"/>
        <pt x="248" y="-28" on="0"/>
        <pt x="300" y="0" on="1"/>
        <pt x="57" y="0" on="1"/>
        <pt x="57" y="620" on="1"/>
        <pt x="487" y="620" on="1"/>
        <pt x="487" y="459" on="1"/>
        <pt x="264" y="459" on="1"/>
        <pt x="264" y="373" on="1"/>
        <pt x="441" y="373" on="1"/>
        <pt x="441" y="249" on="1"/>
        <pt x="264" y="249" on="1"/>
        <pt x="264" y="161" on="1"/>
        <pt x="495" y="161" on="1"/>
        <pt x="484" y="0" on="1"/>
        <pt x="406" y="-26" on="0"/>
        <pt x="355" y="-58" on="0"/>
        <pt x="355" y="-71" on="1"/>
        <pt x="355" y="-86" on="0"/>
        <pt x="409" y="-101" on="0"/>
      </contour>
    </TTGlyph>
    <TTGlyph name="Eogonek.sc" xMin="52" yMin="-249" xMax="469" yMax="552">
      <contour>
        <pt x="445" y="-105" on="1"/>
        <pt x="431" y="-249" on="1"/>
        <pt x="357" y="-245" on="0"/>
        <pt x="257" y="-220" on="0"/>
        <pt x="198" y="-186" on="0"/>
        <pt x="173" y="-143" on="0"/>
        <pt x="173" y="-121" on="1"/>
        <pt x="173" y="-88" on="0"/>
        <pt x="223" y="-28" on="0"/>
        <pt x="275" y="0" on="1"/>
        <pt x="52" y="0" on="1"/>
        <pt x="52" y="552" on="1"/>
        <pt x="461" y="552" on="1"/>
        <pt x="461" y="403" on="1"/>
        <pt x="254" y="403" on="1"/>
        <pt x="254" y="333" on="1"/>
        <pt x="417" y="333" on="1"/>
        <pt x="417" y="220" on="1"/>
        <pt x="254" y="220" on="1"/>
        <pt x="254" y="148" on="1"/>
        <pt x="469" y="148" on="1"/>
        <pt x="459" y="0" on="1"/>
        <pt x="381" y="-26" on="0"/>
        <pt x="330" y="-58" on="0"/>
        <pt x="330" y="-71" on="1"/>
        <pt x="330" y="-86" on="0"/>
        <pt x="384" y="-101" on="0"/>
      </contour>
    </TTGlyph>
    <TTGlyph name="Eth" xMin="3" yMin="-8" xMax="601" yMax="628">
      <contour>
        <pt x="188" y="-8" on="1"/>
        <pt x="157" y="-8" on="0"/>
        <pt x="92" y="-4" on="0"/>
        <pt x="57" y="0" on="1"/>
        <pt x="57" y="256" on="1"/>
        <pt x="3" y="256" on="1"/>
        <pt x="3" y="368" on="1"/>
        <pt x="57" y="368" on="1"/>
        <pt x="57" y="620" on="1"/>
        <pt x="98" y="624" on="0"/>
        <pt x="175" y="628" on="0"/>
        <pt x="209" y="628" on="1"/>
        <pt x="416" y="628" on="0"/>
        <pt x="601" y="478" on="0"/>
        <pt x="601" y="324" on="1"/>
        <pt x="601" y="171" on="0"/>
        <pt x="395" y="-8" on="0"/>
      </contour>
      <contour>
        <pt x="287" y="152" on="1"/>
        <pt x="345" y="152" on="0"/>
        <pt x="402" y="222" on="0"/>
        <pt x="402" y="306" on="1"/>
        <pt x="402" y="390" on="0"/>
        <pt x="335" y="469" on="0"/>
        <pt x="272" y="469" on="1"/>
        <pt x="268" y="469" on="0"/>
        <pt x="258" y="468" on="0"/>
        <pt x="254" y="468" on="1"/>
        <pt x="254" y="368" on="1"/>
        <pt x="335" y="368" on="1"/>
        <pt x="329" y="256" on="1"/>
        <pt x="254" y="256" on="1"/>
        <pt x="254" y="154" on="1"/>
        <pt x="263" y="153" on="0"/>
        <pt x="280" y="152" on="0"/>
      </contour>
    </TTGlyph>
    <TTGlyph name="Eth.sc" xMin="1" yMin="-10" xMax="568" yMax="561">
      <contour>
        <pt x="186" y="-10" on="1"/>
        <pt x="155" y="-10" on="0"/>
        <pt x="88" y="-4" on="0"/>
        <pt x="52" y="0" on="1"/>
        <pt x="52" y="227" on="1"/>
        <pt x="1" y="227" on="1"/>
        <pt x="1" y="329" on="1"/>
        <pt x="52" y="329" on="1"/>
        <pt x="52" y="552" on="1"/>
        <pt x="95" y="556" on="0"/>
        <pt x="173" y="561" on="0"/>
        <pt x="208" y="561" on="1"/>
        <pt x="397" y="561" on="0"/>
        <pt x="568" y="424" on="0"/>
        <pt x="568" y="289" on="1"/>
        <pt x="568" y="221" on="0"/>
        <pt x="520" y="111" on="0"/>
        <pt x="426" y="33" on="0"/>
        <pt x="282" y="-10" on="0"/>
      </contour>
      <contour>
        <pt x="273" y="139" on="1"/>
        <pt x="322" y="139" on="0"/>
        <pt x="371" y="200" on="0"/>
        <pt x="371" y="273" on="1"/>
        <pt x="371" y="345" on="0"/>
        <pt x="314" y="414" on="0"/>
        <pt x="260" y="414" on="1"/>
        <pt x="257" y="414" on="0"/>
        <pt x="250" y="413" on="0"/>
        <pt x="246" y="413" on="1"/>
        <pt x="246" y="329" on="1"/>
        <pt x="312" y="329" on="1"/>
        <pt x="307" y="227" on="1"/>
        <pt x="246" y="227" on="1"/>
        <pt x="246" y="141" on="1"/>
        <pt x="253" y="140" on="0"/>
        <pt x="267" y="139" on="0"/>
      </contour>
    </TTGlyph>
    <TTGlyph name="Euro" xMin="34" yMin="-18" xMax="505" yMax="644">
      <contour>
        <pt x="505" y="137" on="1"/>
        <pt x="488" y="-18" on="1"/>
        <pt x="392" y="-15" on="0"/>
        <pt x="255" y="15" on="0"/>
        <pt x="166" y="66" on="0"/>
        <pt x="115" y="139" on="0"/>
        <pt x="104" y="185" on="1"/>
        <pt x="35" y="185" on="1"/>
        <pt x="35" y="278" on="1"/>
        <pt x="92" y="278" on="1"/>
        <pt x="91" y="286" on="0"/>
        <pt x="91" y="303" on="0"/>
        <pt x="91" y="312" on="1"/>
        <pt x="91" y="316" on="0"/>
        <pt x="91" y="322" on="0"/>
        <pt x="91" y="326" on="1"/>
        <pt x="34" y="326" on="1"/>
        <pt x="34" y="420" on="1"/>
        <pt x="103" y="420" on="1"/>
        <pt x="114" y="461" on="0"/>
        <pt x="162" y="534" on="0"/>
        <pt x="249" y="591" on="0"/>
        <pt x="381" y="633" on="0"/>
        <pt x="475" y="644" on="1"/>
        <pt x="497" y="471" on="1"/>
        <pt x="393" y="460" on="0"/>
        <pt x="295" y="433" on="0"/>
        <pt x="279" y="405" on="1"/>
        <pt x="457" y="405" on="1"/>
        <pt x="453" y="326" on="1"/>
        <pt x="265" y="326" on="1"/>
        <pt x="265" y="323" on="0"/>
        <pt x="265" y="318" on="0"/>
        <pt x="265" y="315" on="1"/>
        <pt x="265" y="305" on="0"/>
        <pt x="265" y="287" on="0"/>
        <pt x="266" y="279" on="1"/>
        <pt x="448" y="279" on="1"/>
        <pt x="444" y="200" on="1"/>
        <pt x="288" y="200" on="1"/>
        <pt x="309" y="174" on="0"/>
        <pt x="409" y="145" on="0"/>
      </contour>
    </TTGlyph>
    <TTGlyph name="F" xMin="57" yMin="0" xMax="484" yMax="620">
      <contour>
        <pt x="437" y="207" on="1"/>
        <pt x="269" y="207" on="1"/>
        <pt x="269" y="0" on="1"/>
        <pt x="57" y="0" on="1"/>
        <pt x="57" y="620" on="1"/>
        <pt x="484" y="620" on="1"/>
        <pt x="484" y="454" on="1"/>
        <pt x="269" y="454" on="1"/>
        <pt x="269" y="361" on="1"/>
        <pt x="437" y="361" on="1"/>
      </contour>
    </TTGlyph>
    <TTGlyph name="F.sc" xMin="52" yMin="0" xMax="458" yMax="552">
      <contour>
        <pt x="414" y="179" on="1"/>
        <pt x="260" y="179" on="1"/>
        <pt x="260" y="0" on="1"/>
        <pt x="52" y="0" on="1"/>
        <pt x="52" y="552" on="1"/>
        <pt x="458" y="552" on="1"/>
        <pt x="458" y="398" on="1"/>
        <pt x="260" y="398" on="1"/>
        <pt x="260" y="323" on="1"/>
        <pt x="414" y="323" on="1"/>
      </contour>
    </TTGlyph>
    <TTGlyph name="G" xMin="29" yMin="-7" xMax="543" yMax="631">
      <contour>
        <pt x="543" y="8" on="1"/>
        <pt x="497" y="1" on="0"/>
        <pt x="415" y="-7" on="0"/>
        <pt x="378" y="-7" on="1"/>
        <pt x="283" y="-7" on="0"/>
        <pt x="150" y="39" on="0"/>
        <pt x="67" y="119" on="0"/>
        <pt x="29" y="230" on="0"/>
        <pt x="29" y="293" on="1"/>
        <pt x="29" y="361" on="0"/>
        <pt x="75" y="484" on="0"/>
        <pt x="182" y="576" on="0"/>
        <pt x="361" y="631" on="0"/>
        <pt x="493" y="631" on="1"/>
        <pt x="500" y="631" on="1"/>
        <pt x="512" y="446" on="1"/>
        <pt x="492" y="447" on="0"/>
        <pt x="454" y="448" on="0"/>
        <pt x="438" y="448" on="1"/>
        <pt x="374" y="448" on="0"/>
        <pt x="295" y="433" on="0"/>
        <pt x="253" y="400" on="0"/>
        <pt x="239" y="348" on="0"/>
        <pt x="239" y="311" on="1"/>
        <pt x="239" y="242" on="0"/>
        <pt x="300" y="160" on="0"/>
        <pt x="372" y="147" on="1"/>
        <pt x="370" y="186" on="0"/>
        <pt x="366" y="273" on="0"/>
        <pt x="365" y="310" on="1"/>
        <pt x="542" y="310" on="1"/>
        <pt x="542" y="217" on="0"/>
        <pt x="543" y="67" on="0"/>
      </contour>
    </TTGlyph>
    <TTGlyph name="G.sc" xMin="27" yMin="-8" xMax="510" yMax="561">
      <contour>
        <pt x="510" y="5" on="1"/>
        <pt x="467" y="-2" on="0"/>
        <pt x="391" y="-8" on="0"/>
        <pt x="357" y="-8" on="1"/>
        <pt x="266" y="-8" on="0"/>
        <pt x="139" y="34" on="0"/>
        <pt x="61" y="106" on="0"/>
        <pt x="27" y="205" on="0"/>
        <pt x="27" y="261" on="1"/>
        <pt x="27" y="321" on="0"/>
        <pt x="70" y="431" on="0"/>
        <pt x="170" y="513" on="0"/>
        <pt x="337" y="561" on="0"/>
        <pt x="460" y="561" on="1"/>
        <pt x="471" y="561" on="1"/>
        <pt x="482" y="392" on="1"/>
        <pt x="463" y="393" on="0"/>
        <pt x="428" y="394" on="0"/>
        <pt x="412" y="394" on="1"/>
        <pt x="354" y="394" on="0"/>
        <pt x="282" y="381" on="0"/>
        <pt x="244" y="353" on="0"/>
        <pt x="231" y="307" on="0"/>
        <pt x="231" y="275" on="1"/>
        <pt x="231" y="218" on="0"/>
        <pt x="283" y="148" on="0"/>
        <pt x="346" y="135" on="1"/>
        <pt x="344" y="169" on="0"/>
        <pt x="340" y="244" on="0"/>
        <pt x="339" y="275" on="1"/>
        <pt x="509" y="275" on="1"/>
        <pt x="509" y="192" on="0"/>
        <pt x="510" y="58" on="0"/>
      </contour>
    </TTGlyph>
    <TTGlyph name="Gbreve" xMin="29" yMin="-7" xMax="543" yMax="888">
      <contour>
        <pt x="313" y="664" on="1"/>
        <pt x="244" y="664" on="0"/>
        <pt x="140" y="753" on="0"/>
        <pt x="106" y="826" on="1"/>
        <pt x="222" y="888" on="1"/>
        <pt x="247" y="852" on="0"/>
        <pt x="299" y="816" on="0"/>
        <pt x="327" y="816" on="1"/>
        <pt x="355" y="816" on="0"/>
        <pt x="406" y="853" on="0"/>
        <pt x="429" y="887" on="1"/>
        <pt x="526" y="842" on="1"/>
        <pt x="492" y="766" on="0"/>
        <pt x="385" y="664" on="0"/>
      </contour>
      <contour>
        <pt x="543" y="8" on="1"/>
        <pt x="497" y="1" on="0"/>
        <pt x="415" y="-7" on="0"/>
        <pt x="378" y="-7" on="1"/>
        <pt x="283" y="-7" on="0"/>
        <pt x="150" y="39" on="0"/>
        <pt x="67" y="119" on="0"/>
        <pt x="29" y="230" on="0"/>
        <pt x="29" y="293" on="1"/>
        <pt x="29" y="361" on="0"/>
        <pt x="75" y="484" on="0"/>
        <pt x="182" y="576" on="0"/>
        <pt x="361" y="631" on="0"/>
        <pt x="493" y="631" on="1"/>
        <pt x="500" y="631" on="1"/>
        <pt x="512" y="446" on="1"/>
        <pt x="492" y="447" on="0"/>
        <pt x="454" y="448" on="0"/>
        <pt x="438" y="448" on="1"/>
        <pt x="374" y="448" on="0"/>
        <pt x="295" y="433" on="0"/>
        <pt x="253" y="400" on="0"/>
        <pt x="239" y="348" on="0"/>
        <pt x="239" y="311" on="1"/>
        <pt x="239" y="242" on="0"/>
        <pt x="300" y="160" on="0"/>
        <pt x="372" y="147" on="1"/>
        <pt x="370" y="186" on="0"/>
        <pt x="366" y="273" on="0"/>
        <pt x="365" y="310" on="1"/>
        <pt x="542" y="310" on="1"/>
        <pt x="542" y="217" on="0"/>
        <pt x="543" y="67" on="0"/>
      </contour>
    </TTGlyph>
    <TTGlyph name="Gbreve.sc" xMin="27" yMin="-8" xMax="510" yMax="822">
      <contour>
        <pt x="290" y="598" on="1"/>
        <pt x="221" y="598" on="0"/>
        <pt x="117" y="687" on="0"/>
        <pt x="83" y="760" on="1"/>
        <pt x="199" y="822" on="1"/>
        <pt x="224" y="786" on="0"/>
        <pt x="276" y="750" on="0"/>
        <pt x="304" y="750" on="1"/>
        <pt x="332" y="750" on="0"/>
        <pt x="383" y="787" on="0"/>
        <pt x="406" y="821" on="1"/>
        <pt x="503" y="776" on="1"/>
        <pt x="469" y="700" on="0"/>
        <pt x="362" y="598" on="0"/>
      </contour>
      <contour>
        <pt x="510" y="5" on="1"/>
        <pt x="467" y="-2" on="0"/>
        <pt x="391" y="-8" on="0"/>
        <pt x="357" y="-8" on="1"/>
        <pt x="266" y="-8" on="0"/>
        <pt x="139" y="34" on="0"/>
        <pt x="61" y="106" on="0"/>
        <pt x="27" y="205" on="0"/>
        <pt x="27" y="261" on="1"/>
        <pt x="27" y="321" on="0"/>
        <pt x="70" y="431" on="0"/>
        <pt x="170" y="513" on="0"/>
        <pt x="337" y="561" on="0"/>
        <pt x="460" y="561" on="1"/>
        <pt x="471" y="561" on="1"/>
        <pt x="482" y="392" on="1"/>
        <pt x="463" y="393" on="0"/>
        <pt x="428" y="394" on="0"/>
        <pt x="412" y="394" on="1"/>
        <pt x="354" y="394" on="0"/>
        <pt x="282" y="381" on="0"/>
        <pt x="244" y="353" on="0"/>
        <pt x="231" y="307" on="0"/>
        <pt x="231" y="275" on="1"/>
        <pt x="231" y="218" on="0"/>
        <pt x="283" y="148" on="0"/>
        <pt x="346" y="135" on="1"/>
        <pt x="344" y="169" on="0"/>
        <pt x="340" y="244" on="0"/>
        <pt x="339" y="275" on="1"/>
        <pt x="509" y="275" on="1"/>
        <pt x="509" y="192" on="0"/>
        <pt x="510" y="58" on="0"/>
      </contour>
    </TTGlyph>
    <TTGlyph name="Gcommaaccent" xMin="29" yMin="-323" xMax="543" yMax="631">
      <contour>
        <pt x="543" y="8" on="1"/>
        <pt x="497" y="1" on="0"/>
        <pt x="415" y="-7" on="0"/>
        <pt x="378" y="-7" on="1"/>
        <pt x="283" y="-7" on="0"/>
        <pt x="150" y="39" on="0"/>
        <pt x="67" y="119" on="0"/>
        <pt x="29" y="230" on="0"/>
        <pt x="29" y="293" on="1"/>
        <pt x="29" y="361" on="0"/>
        <pt x="75" y="484" on="0"/>
        <pt x="182" y="576" on="0"/>
        <pt x="361" y="631" on="0"/>
        <pt x="493" y="631" on="1"/>
        <pt x="500" y="631" on="1"/>
        <pt x="512" y="446" on="1"/>
        <pt x="492" y="447" on="0"/>
        <pt x="454" y="448" on="0"/>
        <pt x="438" y="448" on="1"/>
        <pt x="374" y="448" on="0"/>
        <pt x="295" y="433" on="0"/>
        <pt x="253" y="400" on="0"/>
        <pt x="239" y="348" on="0"/>
        <pt x="239" y="311" on="1"/>
        <pt x="239" y="242" on="0"/>
        <pt x="300" y="160" on="0"/>
        <pt x="372" y="147" on="1"/>
        <pt x="370" y="186" on="0"/>
        <pt x="366" y="273" on="0"/>
        <pt x="365" y="310" on="1"/>
        <pt x="542" y="310" on="1"/>
        <pt x="542" y="217" on="0"/>
        <pt x="543" y="67" on="0"/>
      </contour>
      <contour>
        <pt x="208" y="-289" on="1"/>
        <pt x="214" y="-260" on="0"/>
        <pt x="220" y="-202" on="0"/>
        <pt x="220" y="-172" on="1"/>
        <pt x="220" y="-147" on="0"/>
        <pt x="215" y="-94" on="0"/>
        <pt x="209" y="-66" on="1"/>
        <pt x="419" y="-59" on="1"/>
        <pt x="419" y="-64" on="1"/>
        <pt x="419" y="-141" on="0"/>
        <pt x="364" y="-271" on="0"/>
        <pt x="296" y="-323" on="1"/>
      </contour>
    </TTGlyph>
    <TTGlyph name="Gcommaaccent.sc" xMin="27" yMin="-324" xMax="510" yMax="561">
      <contour>
        <pt x="510" y="5" on="1"/>
        <pt x="467" y="-2" on="0"/>
        <pt x="391" y="-8" on="0"/>
        <pt x="357" y="-8" on="1"/>
        <pt x="266" y="-8" on="0"/>
        <pt x="139" y="34" on="0"/>
        <pt x="61" y="106" on="0"/>
        <pt x="27" y="205" on="0"/>
        <pt x="27" y="261" on="1"/>
        <pt x="27" y="321" on="0"/>
        <pt x="70" y="431" on="0"/>
        <pt x="170" y="513" on="0"/>
        <pt x="337" y="561" on="0"/>
        <pt x="460" y="561" on="1"/>
        <pt x="471" y="561" on="1"/>
        <pt x="482" y="392" on="1"/>
        <pt x="463" y="393" on="0"/>
        <pt x="428" y="394" on="0"/>
        <pt x="412" y="394" on="1"/>
        <pt x="354" y="394" on="0"/>
        <pt x="282" y="381" on="0"/>
        <pt x="244" y="353" on="0"/>
        <pt x="231" y="307" on="0"/>
        <pt x="231" y="275" on="1"/>
        <pt x="231" y="218" on="0"/>
        <pt x="283" y="148" on="0"/>
        <pt x="346" y="135" on="1"/>
        <pt x="344" y="169" on="0"/>
        <pt x="340" y="244" on="0"/>
        <pt x="339" y="275" on="1"/>
        <pt x="509" y="275" on="1"/>
        <pt x="509" y="192" on="0"/>
        <pt x="510" y="58" on="0"/>
      </contour>
      <contour>
        <pt x="185" y="-290" on="1"/>
        <pt x="191" y="-261" on="0"/>
        <pt x="197" y="-203" on="0"/>
        <pt x="197" y="-173" on="1"/>
        <pt x="197" y="-148" on="0"/>
        <pt x="192" y="-95" on="0"/>
        <pt x="186" y="-67" on="1"/>
        <pt x="396" y="-60" on="1"/>
        <pt x="396" y="-65" on="1"/>
        <pt x="396" y="-142" on="0"/>
        <pt x="341" y="-272" on="0"/>
        <pt x="273" y="-324" on="1"/>
      </contour>
    </TTGlyph>
    <TTGlyph name="Gdotaccent" xMin="29" yMin="-7" xMax="543" yMax="848">
      <contour>
        <pt x="415" y="678" on="1"/>
        <pt x="211" y="678" on="1"/>
        <pt x="217" y="848" on="1"/>
        <pt x="421" y="848" on="1"/>
      </contour>
      <contour>
        <pt x="543" y="8" on="1"/>
        <pt x="497" y="1" on="0"/>
        <pt x="415" y="-7" on="0"/>
        <pt x="378" y="-7" on="1"/>
        <pt x="283" y="-7" on="0"/>
        <pt x="150" y="39" on="0"/>
        <pt x="67" y="119" on="0"/>
        <pt x="29" y="230" on="0"/>
        <pt x="29" y="293" on="1"/>
        <pt x="29" y="361" on="0"/>
        <pt x="75" y="484" on="0"/>
        <pt x="182" y="576" on="0"/>
        <pt x="361" y="631" on="0"/>
        <pt x="493" y="631" on="1"/>
        <pt x="500" y="631" on="1"/>
        <pt x="512" y="446" on="1"/>
        <pt x="492" y="447" on="0"/>
        <pt x="454" y="448" on="0"/>
        <pt x="438" y="448" on="1"/>
        <pt x="374" y="448" on="0"/>
        <pt x="295" y="433" on="0"/>
        <pt x="253" y="400" on="0"/>
        <pt x="239" y="348" on="0"/>
        <pt x="239" y="311" on="1"/>
        <pt x="239" y="242" on="0"/>
        <pt x="300" y="160" on="0"/>
        <pt x="372" y="147" on="1"/>
        <pt x="370" y="186" on="0"/>
        <pt x="366" y="273" on="0"/>
        <pt x="365" y="310" on="1"/>
        <pt x="542" y="310" on="1"/>
        <pt x="542" y="217" on="0"/>
        <pt x="543" y="67" on="0"/>
      </contour>
    </TTGlyph>
    <TTGlyph name="Gdotaccent.sc" xMin="27" yMin="-8" xMax="510" yMax="782">
      <contour>
        <pt x="392" y="612" on="1"/>
        <pt x="188" y="612" on="1"/>
        <pt x="194" y="782" on="1"/>
        <pt x="398" y="782" on="1"/>
      </contour>
      <contour>
        <pt x="510" y="5" on="1"/>
        <pt x="467" y="-2" on="0"/>
        <pt x="391" y="-8" on="0"/>
        <pt x="357" y="-8" on="1"/>
        <pt x="266" y="-8" on="0"/>
        <pt x="139" y="34" on="0"/>
        <pt x="61" y="106" on="0"/>
        <pt x="27" y="205" on="0"/>
        <pt x="27" y="261" on="1"/>
        <pt x="27" y="321" on="0"/>
        <pt x="70" y="431" on="0"/>
        <pt x="170" y="513" on="0"/>
        <pt x="337" y="561" on="0"/>
        <pt x="460" y="561" on="1"/>
        <pt x="471" y="561" on="1"/>
        <pt x="482" y="392" on="1"/>
        <pt x="463" y="393" on="0"/>
        <pt x="428" y="394" on="0"/>
        <pt x="412" y="394" on="1"/>
        <pt x="354" y="394" on="0"/>
        <pt x="282" y="381" on="0"/>
        <pt x="244" y="353" on="0"/>
        <pt x="231" y="307" on="0"/>
        <pt x="231" y="275" on="1"/>
        <pt x="231" y="218" on="0"/>
        <pt x="283" y="148" on="0"/>
        <pt x="346" y="135" on="1"/>
        <pt x="344" y="169" on="0"/>
        <pt x="340" y="244" on="0"/>
        <pt x="339" y="275" on="1"/>
        <pt x="509" y="275" on="1"/>
        <pt x="509" y="192" on="0"/>
        <pt x="510" y="58" on="0"/>
      </contour>
    </TTGlyph>
    <TTGlyph name="H" xMin="57" yMin="0" xMax="609" yMax="620">
      <contour>
        <pt x="395" y="0" on="1"/>
        <pt x="395" y="230" on="1"/>
        <pt x="269" y="230" on="1"/>
        <pt x="269" y="0" on="1"/>
        <pt x="57" y="0" on="1"/>
        <pt x="57" y="620" on="1"/>
        <pt x="269" y="620" on="1"/>
        <pt x="269" y="394" on="1"/>
        <pt x="395" y="394" on="1"/>
        <pt x="395" y="620" on="1"/>
        <pt x="609" y="620" on="1"/>
        <pt x="609" y="0" on="1"/>
      </contour>
    </TTGlyph>
    <TTGlyph name="H.sc" xMin="52" yMin="0" xMax="577" yMax="552">
      <contour>
        <pt x="368" y="0" on="1"/>
        <pt x="368" y="202" on="1"/>
        <pt x="260" y="202" on="1"/>
        <pt x="260" y="0" on="1"/>
        <pt x="52" y="0" on="1"/>
        <pt x="52" y="552" on="1"/>
        <pt x="260" y="552" on="1"/>
        <pt x="260" y="354" on="1"/>
        <pt x="368" y="354" on="1"/>
        <pt x="368" y="552" on="1"/>
        <pt x="577" y="552" on="1"/>
        <pt x="577" y="0" on="1"/>
      </contour>
    </TTGlyph>
    <TTGlyph name="Hbar" xMin="3" yMin="0" xMax="663" yMax="620">
      <contour>
        <pt x="395" y="354" on="1"/>
        <pt x="395" y="434" on="1"/>
        <pt x="269" y="434" on="1"/>
        <pt x="269" y="354" on="1"/>
      </contour>
      <contour>
        <pt x="395" y="0" on="1"/>
        <pt x="395" y="193" on="1"/>
        <pt x="269" y="193" on="1"/>
        <pt x="269" y="0" on="1"/>
        <pt x="57" y="0" on="1"/>
        <pt x="57" y="429" on="1"/>
        <pt x="3" y="429" on="1"/>
        <pt x="3" y="542" on="1"/>
        <pt x="57" y="542" on="1"/>
        <pt x="57" y="620" on="1"/>
        <pt x="269" y="620" on="1"/>
        <pt x="269" y="537" on="1"/>
        <pt x="395" y="537" on="1"/>
        <pt x="395" y="620" on="1"/>
        <pt x="609" y="620" on="1"/>
        <pt x="609" y="542" on="1"/>
        <pt x="663" y="542" on="1"/>
        <pt x="663" y="429" on="1"/>
        <pt x="609" y="429" on="1"/>
        <pt x="609" y="0" on="1"/>
      </contour>
    </TTGlyph>
    <TTGlyph name="Hbar.sc" xMin="1" yMin="0" xMax="628" yMax="552">
      <contour>
        <pt x="368" y="322" on="1"/>
        <pt x="368" y="386" on="1"/>
        <pt x="260" y="386" on="1"/>
        <pt x="260" y="322" on="1"/>
      </contour>
      <contour>
        <pt x="368" y="0" on="1"/>
        <pt x="368" y="173" on="1"/>
        <pt x="260" y="173" on="1"/>
        <pt x="260" y="0" on="1"/>
        <pt x="52" y="0" on="1"/>
        <pt x="52" y="382" on="1"/>
        <pt x="1" y="382" on="1"/>
        <pt x="1" y="478" on="1"/>
        <pt x="52" y="478" on="1"/>
        <pt x="52" y="552" on="1"/>
        <pt x="260" y="552" on="1"/>
        <pt x="260" y="474" on="1"/>
        <pt x="368" y="474" on="1"/>
        <pt x="368" y="552" on="1"/>
        <pt x="577" y="552" on="1"/>
        <pt x="577" y="478" on="1"/>
        <pt x="628" y="478" on="1"/>
        <pt x="628" y="382" on="1"/>
        <pt x="577" y="382" on="1"/>
        <pt x="577" y="0" on="1"/>
      </contour>
    </TTGlyph>
    <TTGlyph name="I" xMin="43" yMin="0" xMax="492" yMax="620">
      <contour>
        <pt x="368" y="471" on="1"/>
        <pt x="368" y="149" on="1"/>
        <pt x="492" y="149" on="1"/>
        <pt x="482" y="0" on="1"/>
        <pt x="43" y="0" on="1"/>
        <pt x="43" y="149" on="1"/>
        <pt x="161" y="149" on="1"/>
        <pt x="161" y="471" on="1"/>
        <pt x="43" y="471" on="1"/>
        <pt x="43" y="620" on="1"/>
        <pt x="486" y="620" on="1"/>
        <pt x="486" y="471" on="1"/>
      </contour>
    </TTGlyph>
    <TTGlyph name="I.sc" xMin="38" yMin="0" xMax="465" yMax="552">
      <contour>
        <pt x="350" y="414" on="1"/>
        <pt x="350" y="138" on="1"/>
        <pt x="465" y="138" on="1"/>
        <pt x="456" y="0" on="1"/>
        <pt x="38" y="0" on="1"/>
        <pt x="38" y="138" on="1"/>
        <pt x="148" y="138" on="1"/>
        <pt x="148" y="414" on="1"/>
        <pt x="38" y="414" on="1"/>
        <pt x="38" y="552" on="1"/>
        <pt x="460" y="552" on="1"/>
        <pt x="460" y="414" on="1"/>
      </contour>
    </TTGlyph>
    <TTGlyph name="Iacute" xMin="43" yMin="0" xMax="492" yMax="914">
      <contour>
        <pt x="119" y="737" on="1"/>
        <pt x="179" y="771" on="0"/>
        <pt x="304" y="865" on="0"/>
        <pt x="356" y="914" on="1"/>
        <pt x="468" y="770" on="1"/>
        <pt x="397" y="725" on="0"/>
        <pt x="227" y="667" on="0"/>
        <pt x="149" y="657" on="1"/>
      </contour>
      <contour>
        <pt x="368" y="471" on="1"/>
        <pt x="368" y="149" on="1"/>
        <pt x="492" y="149" on="1"/>
        <pt x="482" y="0" on="1"/>
        <pt x="43" y="0" on="1"/>
        <pt x="43" y="149" on="1"/>
        <pt x="161" y="149" on="1"/>
        <pt x="161" y="471" on="1"/>
        <pt x="43" y="471" on="1"/>
        <pt x="43" y="620" on="1"/>
        <pt x="486" y="620" on="1"/>
        <pt x="486" y="471" on="1"/>
      </contour>
    </TTGlyph>
    <TTGlyph name="Iacute.sc" xMin="38" yMin="0" xMax="465" yMax="846">
      <contour>
        <pt x="104" y="669" on="1"/>
        <pt x="164" y="703" on="0"/>
        <pt x="289" y="797" on="0"/>
        <pt x="341" y="846" on="1"/>
        <pt x="453" y="702" on="1"/>
        <pt x="382" y="657" on="0"/>
        <pt x="212" y="599" on="0"/>
        <pt x="134" y="589" on="1"/>
      </contour>
      <contour>
        <pt x="350" y="414" on="1"/>
        <pt x="350" y="138" on="1"/>
        <pt x="465" y="138" on="1"/>
        <pt x="456" y="0" on="1"/>
        <pt x="38" y="0" on="1"/>
        <pt x="38" y="138" on="1"/>
        <pt x="148" y="138" on="1"/>
        <pt x="148" y="414" on="1"/>
        <pt x="38" y="414" on="1"/>
        <pt x="38" y="552" on="1"/>
        <pt x="460" y="552" on="1"/>
        <pt x="460" y="414" on="1"/>
      </contour>
    </TTGlyph>
    <TTGlyph name="Ibreve" xMin="43" yMin="0" xMax="492" yMax="885">
      <contour>
        <pt x="264" y="661" on="1"/>
        <pt x="195" y="661" on="0"/>
        <pt x="91" y="750" on="0"/>
        <pt x="57" y="823" on="1"/>
        <pt x="173" y="885" on="1"/>
        <pt x="198" y="849" on="0"/>
        <pt x="250" y="813" on="0"/>
        <pt x="278" y="813" on="1"/>
        <pt x="306" y="813" on="0"/>
        <pt x="357" y="850" on="0"/>
        <pt x="380" y="884" on="1"/>
        <pt x="477" y="839" on="1"/>
        <pt x="443" y="763" on="0"/>
        <pt x="336" y="661" on="0"/>
      </contour>
      <contour>
        <pt x="368" y="471" on="1"/>
        <pt x="368" y="149" on="1"/>
        <pt x="492" y="149" on="1"/>
        <pt x="482" y="0" on="1"/>
        <pt x="43" y="0" on="1"/>
        <pt x="43" y="149" on="1"/>
        <pt x="161" y="149" on="1"/>
        <pt x="161" y="471" on="1"/>
        <pt x="43" y="471" on="1"/>
        <pt x="43" y="620" on="1"/>
        <pt x="486" y="620" on="1"/>
        <pt x="486" y="471" on="1"/>
      </contour>
    </TTGlyph>
    <TTGlyph name="Ibreve.sc" xMin="38" yMin="0" xMax="465" yMax="817">
      <contour>
        <pt x="249" y="593" on="1"/>
        <pt x="180" y="593" on="0"/>
        <pt x="76" y="682" on="0"/>
        <pt x="42" y="755" on="1"/>
        <pt x="158" y="817" on="1"/>
        <pt x="183" y="781" on="0"/>
        <pt x="235" y="745" on="0"/>
        <pt x="263" y="745" on="1"/>
        <pt x="291" y="745" on="0"/>
        <pt x="342" y="782" on="0"/>
        <pt x="365" y="816" on="1"/>
        <pt x="462" y="771" on="1"/>
        <pt x="428" y="695" on="0"/>
        <pt x="321" y="593" on="0"/>
      </contour>
      <contour>
        <pt x="350" y="414" on="1"/>
        <pt x="350" y="138" on="1"/>
        <pt x="465" y="138" on="1"/>
        <pt x="456" y="0" on="1"/>
        <pt x="38" y="0" on="1"/>
        <pt x="38" y="138" on="1"/>
        <pt x="148" y="138" on="1"/>
        <pt x="148" y="414" on="1"/>
        <pt x="38" y="414" on="1"/>
        <pt x="38" y="552" on="1"/>
        <pt x="460" y="552" on="1"/>
        <pt x="460" y="414" on="1"/>
      </contour>
    </TTGlyph>
    <TTGlyph name="Icircumflex" xMin="43" yMin="0" xMax="492" yMax="894">
      <contour>
        <pt x="370" y="656" on="1"/>
        <pt x="257" y="742" on="1"/>
        <pt x="146" y="656" on="1"/>
        <pt x="68" y="747" on="1"/>
        <pt x="249" y="894" on="1"/>
        <pt x="288" y="894" on="1"/>
        <pt x="467" y="759" on="1"/>
      </contour>
      <contour>
        <pt x="368" y="471" on="1"/>
        <pt x="368" y="149" on="1"/>
        <pt x="492" y="149" on="1"/>
        <pt x="482" y="0" on="1"/>
        <pt x="43" y="0" on="1"/>
        <pt x="43" y="149" on="1"/>
        <pt x="161" y="149" on="1"/>
        <pt x="161" y="471" on="1"/>
        <pt x="43" y="471" on="1"/>
        <pt x="43" y="620" on="1"/>
        <pt x="486" y="620" on="1"/>
        <pt x="486" y="471" on="1"/>
      </contour>
    </TTGlyph>
    <TTGlyph name="Icircumflex.sc" xMin="38" yMin="0" xMax="465" yMax="826">
      <contour>
        <pt x="355" y="588" on="1"/>
        <pt x="242" y="674" on="1"/>
        <pt x="131" y="588" on="1"/>
        <pt x="53" y="679" on="1"/>
        <pt x="234" y="826" on="1"/>
        <pt x="273" y="826" on="1"/>
        <pt x="452" y="691" on="1"/>
      </contour>
      <contour>
        <pt x="350" y="414" on="1"/>
        <pt x="350" y="138" on="1"/>
        <pt x="465" y="138" on="1"/>
        <pt x="456" y="0" on="1"/>
        <pt x="38" y="0" on="1"/>
        <pt x="38" y="138" on="1"/>
        <pt x="148" y="138" on="1"/>
        <pt x="148" y="414" on="1"/>
        <pt x="38" y="414" on="1"/>
        <pt x="38" y="552" on="1"/>
        <pt x="460" y="552" on="1"/>
        <pt x="460" y="414" on="1"/>
      </contour>
    </TTGlyph>
    <TTGlyph name="Idieresis" xMin="43" yMin="0" xMax="492" yMax="845">
      <contour>
        <pt x="475" y="675" on="1"/>
        <pt x="291" y="675" on="1"/>
        <pt x="293" y="845" on="1"/>
        <pt x="478" y="845" on="1"/>
      </contour>
      <contour>
        <pt x="238" y="675" on="1"/>
        <pt x="53" y="675" on="1"/>
        <pt x="56" y="845" on="1"/>
        <pt x="240" y="845" on="1"/>
      </contour>
      <contour>
        <pt x="368" y="471" on="1"/>
        <pt x="368" y="149" on="1"/>
        <pt x="492" y="149" on="1"/>
        <pt x="482" y="0" on="1"/>
        <pt x="43" y="0" on="1"/>
        <pt x="43" y="149" on="1"/>
        <pt x="161" y="149" on="1"/>
        <pt x="161" y="471" on="1"/>
        <pt x="43" y="471" on="1"/>
        <pt x="43" y="620" on="1"/>
        <pt x="486" y="620" on="1"/>
        <pt x="486" y="471" on="1"/>
      </contour>
    </TTGlyph>
    <TTGlyph name="Idieresis.sc" xMin="38" yMin="0" xMax="465" yMax="777">
      <contour>
        <pt x="460" y="607" on="1"/>
        <pt x="276" y="607" on="1"/>
        <pt x="278" y="777" on="1"/>
        <pt x="463" y="777" on="1"/>
      </contour>
      <contour>
        <pt x="223" y="607" on="1"/>
        <pt x="38" y="607" on="1"/>
        <pt x="41" y="777" on="1"/>
        <pt x="225" y="777" on="1"/>
      </contour>
      <contour>
        <pt x="350" y="414" on="1"/>
        <pt x="350" y="138" on="1"/>
        <pt x="465" y="138" on="1"/>
        <pt x="456" y="0" on="1"/>
        <pt x="38" y="0" on="1"/>
        <pt x="38" y="138" on="1"/>
        <pt x="148" y="138" on="1"/>
        <pt x="148" y="414" on="1"/>
        <pt x="38" y="414" on="1"/>
        <pt x="38" y="552" on="1"/>
        <pt x="460" y="552" on="1"/>
        <pt x="460" y="414" on="1"/>
      </contour>
    </TTGlyph>
    <TTGlyph name="Idotaccent" xMin="43" yMin="0" xMax="492" yMax="845">
      <contour>
        <pt x="366" y="675" on="1"/>
        <pt x="162" y="675" on="1"/>
        <pt x="168" y="845" on="1"/>
        <pt x="372" y="845" on="1"/>
      </contour>
      <contour>
        <pt x="368" y="471" on="1"/>
        <pt x="368" y="149" on="1"/>
        <pt x="492" y="149" on="1"/>
        <pt x="482" y="0" on="1"/>
        <pt x="43" y="0" on="1"/>
        <pt x="43" y="149" on="1"/>
        <pt x="161" y="149" on="1"/>
        <pt x="161" y="471" on="1"/>
        <pt x="43" y="471" on="1"/>
        <pt x="43" y="620" on="1"/>
        <pt x="486" y="620" on="1"/>
        <pt x="486" y="471" on="1"/>
      </contour>
    </TTGlyph>
    <TTGlyph name="Idotaccent.sc" xMin="38" yMin="0" xMax="465" yMax="777">
      <contour>
        <pt x="352" y="607" on="1"/>
        <pt x="148" y="607" on="1"/>
        <pt x="154" y="777" on="1"/>
        <pt x="358" y="777" on="1"/>
      </contour>
      <contour>
        <pt x="350" y="414" on="1"/>
        <pt x="350" y="138" on="1"/>
        <pt x="465" y="138" on="1"/>
        <pt x="456" y="0" on="1"/>
        <pt x="38" y="0" on="1"/>
        <pt x="38" y="138" on="1"/>
        <pt x="148" y="138" on="1"/>
        <pt x="148" y="414" on="1"/>
        <pt x="38" y="414" on="1"/>
        <pt x="38" y="552" on="1"/>
        <pt x="460" y="552" on="1"/>
        <pt x="460" y="414" on="1"/>
      </contour>
    </TTGlyph>
    <TTGlyph name="Igrave" xMin="43" yMin="0" xMax="492" yMax="914">
      <contour>
        <pt x="412" y="737" on="1"/>
        <pt x="377" y="656" on="1"/>
        <pt x="300" y="671" on="0"/>
        <pt x="134" y="728" on="0"/>
        <pt x="64" y="769" on="1"/>
        <pt x="168" y="914" on="1"/>
        <pt x="222" y="869" on="0"/>
        <pt x="352" y="774" on="0"/>
      </contour>
      <contour>
        <pt x="368" y="471" on="1"/>
        <pt x="368" y="149" on="1"/>
        <pt x="492" y="149" on="1"/>
        <pt x="482" y="0" on="1"/>
        <pt x="43" y="0" on="1"/>
        <pt x="43" y="149" on="1"/>
        <pt x="161" y="149" on="1"/>
        <pt x="161" y="471" on="1"/>
        <pt x="43" y="471" on="1"/>
        <pt x="43" y="620" on="1"/>
        <pt x="486" y="620" on="1"/>
        <pt x="486" y="471" on="1"/>
      </contour>
    </TTGlyph>
    <TTGlyph name="Igrave.sc" xMin="38" yMin="0" xMax="465" yMax="846">
      <contour>
        <pt x="397" y="669" on="1"/>
        <pt x="362" y="588" on="1"/>
        <pt x="285" y="603" on="0"/>
        <pt x="119" y="660" on="0"/>
        <pt x="49" y="701" on="1"/>
        <pt x="153" y="846" on="1"/>
        <pt x="207" y="801" on="0"/>
        <pt x="337" y="706" on="0"/>
      </contour>
      <contour>
        <pt x="350" y="414" on="1"/>
        <pt x="350" y="138" on="1"/>
        <pt x="465" y="138" on="1"/>
        <pt x="456" y="0" on="1"/>
        <pt x="38" y="0" on="1"/>
        <pt x="38" y="138" on="1"/>
        <pt x="148" y="138" on="1"/>
        <pt x="148" y="414" on="1"/>
        <pt x="38" y="414" on="1"/>
        <pt x="38" y="552" on="1"/>
        <pt x="460" y="552" on="1"/>
        <pt x="460" y="414" on="1"/>
      </contour>
    </TTGlyph>
    <TTGlyph name="Imacron" xMin="43" yMin="0" xMax="492" yMax="841">
      <contour>
        <pt x="453" y="841" on="1"/>
        <pt x="453" y="680" on="1"/>
        <pt x="77" y="680" on="1"/>
        <pt x="77" y="841" on="1"/>
      </contour>
      <contour>
        <pt x="368" y="471" on="1"/>
        <pt x="368" y="149" on="1"/>
        <pt x="492" y="149" on="1"/>
        <pt x="482" y="0" on="1"/>
        <pt x="43" y="0" on="1"/>
        <pt x="43" y="149" on="1"/>
        <pt x="161" y="149" on="1"/>
        <pt x="161" y="471" on="1"/>
        <pt x="43" y="471" on="1"/>
        <pt x="43" y="620" on="1"/>
        <pt x="486" y="620" on="1"/>
        <pt x="486" y="471" on="1"/>
      </contour>
    </TTGlyph>
    <TTGlyph name="Imacron.sc" xMin="38" yMin="0" xMax="465" yMax="773">
      <contour>
        <pt x="438" y="773" on="1"/>
        <pt x="438" y="612" on="1"/>
        <pt x="62" y="612" on="1"/>
        <pt x="62" y="773" on="1"/>
      </contour>
      <contour>
        <pt x="350" y="414" on="1"/>
        <pt x="350" y="138" on="1"/>
        <pt x="465" y="138" on="1"/>
        <pt x="456" y="0" on="1"/>
        <pt x="38" y="0" on="1"/>
        <pt x="38" y="138" on="1"/>
        <pt x="148" y="138" on="1"/>
        <pt x="148" y="414" on="1"/>
        <pt x="38" y="414" on="1"/>
        <pt x="38" y="552" on="1"/>
        <pt x="460" y="552" on="1"/>
        <pt x="460" y="414" on="1"/>
      </contour>
    </TTGlyph>
    <TTGlyph name="Iogonek" xMin="43" yMin="-249" xMax="492" yMax="620">
      <contour>
        <pt x="389" y="-105" on="1"/>
        <pt x="376" y="-249" on="1"/>
        <pt x="301" y="-245" on="0"/>
        <pt x="201" y="-219" on="0"/>
        <pt x="141" y="-183" on="0"/>
        <pt x="116" y="-139" on="0"/>
        <pt x="116" y="-115" on="1"/>
        <pt x="116" y="-83" on="0"/>
        <pt x="158" y="-26" on="0"/>
        <pt x="202" y="0" on="1"/>
        <pt x="43" y="0" on="1"/>
        <pt x="43" y="149" on="1"/>
        <pt x="161" y="149" on="1"/>
        <pt x="161" y="471" on="1"/>
        <pt x="43" y="471" on="1"/>
        <pt x="43" y="620" on="1"/>
        <pt x="486" y="620" on="1"/>
        <pt x="486" y="471" on="1"/>
        <pt x="368" y="471" on="1"/>
        <pt x="368" y="149" on="1"/>
        <pt x="492" y="149" on="1"/>
        <pt x="482" y="0" on="1"/>
        <pt x="368" y="0" on="1"/>
        <pt x="312" y="-22" on="0"/>
        <pt x="273" y="-52" on="0"/>
        <pt x="273" y="-65" on="1"/>
        <pt x="273" y="-82" on="0"/>
        <pt x="328" y="-100" on="0"/>
      </contour>
    </TTGlyph>
    <TTGlyph name="Iogonek.sc" xMin="38" yMin="-249" xMax="465" yMax="552">
      <contour>
        <pt x="363" y="-105" on="1"/>
        <pt x="349" y="-249" on="1"/>
        <pt x="274" y="-245" on="0"/>
        <pt x="174" y="-219" on="0"/>
        <pt x="115" y="-183" on="0"/>
        <pt x="90" y="-139" on="0"/>
        <pt x="90" y="-115" on="1"/>
        <pt x="90" y="-84" on="0"/>
        <pt x="131" y="-26" on="0"/>
        <pt x="174" y="0" on="1"/>
        <pt x="38" y="0" on="1"/>
        <pt x="38" y="138" on="1"/>
        <pt x="148" y="138" on="1"/>
        <pt x="148" y="414" on="1"/>
        <pt x="38" y="414" on="1"/>
        <pt x="38" y="552" on="1"/>
        <pt x="460" y="552" on="1"/>
        <pt x="460" y="414" on="1"/>
        <pt x="350" y="414" on="1"/>
        <pt x="350" y="138" on="1"/>
        <pt x="465" y="138" on="1"/>
        <pt x="456" y="0" on="1"/>
        <pt x="342" y="0" on="1"/>
        <pt x="285" y="-22" on="0"/>
        <pt x="246" y="-52" on="0"/>
        <pt x="246" y="-65" on="1"/>
        <pt x="246" y="-82" on="0"/>
        <pt x="301" y="-100" on="0"/>
      </contour>
    </TTGlyph>
    <TTGlyph name="J" xMin="37" yMin="-8" xMax="440" yMax="620">
      <contour>
        <pt x="60" y="620" on="1"/>
        <pt x="440" y="620" on="1"/>
        <pt x="440" y="228" on="1"/>
        <pt x="440" y="171" on="0"/>
        <pt x="402" y="83" on="0"/>
        <pt x="316" y="23" on="0"/>
        <pt x="174" y="-8" on="0"/>
        <pt x="71" y="-8" on="1"/>
        <pt x="37" y="-8" on="1"/>
        <pt x="37" y="156" on="1"/>
        <pt x="59" y="155" on="0"/>
        <pt x="97" y="154" on="0"/>
        <pt x="113" y="154" on="1"/>
        <pt x="154" y="154" on="0"/>
        <pt x="199" y="161" on="0"/>
        <pt x="221" y="177" on="0"/>
        <pt x="225" y="203" on="0"/>
        <pt x="225" y="223" on="1"/>
        <pt x="225" y="459" on="1"/>
        <pt x="60" y="459" on="1"/>
      </contour>
    </TTGlyph>
    <TTGlyph name="J.sc" xMin="37" yMin="-8" xMax="421" yMax="552">
      <contour>
        <pt x="56" y="552" on="1"/>
        <pt x="421" y="552" on="1"/>
        <pt x="421" y="202" on="1"/>
        <pt x="421" y="151" on="0"/>
        <pt x="385" y="72" on="0"/>
        <pt x="303" y="19" on="0"/>
        <pt x="168" y="-8" on="0"/>
        <pt x="69" y="-8" on="1"/>
        <pt x="37" y="-8" on="1"/>
        <pt x="37" y="141" on="1"/>
        <pt x="53" y="141" on="0"/>
        <pt x="80" y="140" on="0"/>
        <pt x="92" y="140" on="1"/>
        <pt x="135" y="140" on="0"/>
        <pt x="184" y="145" on="0"/>
        <pt x="207" y="158" on="0"/>
        <pt x="212" y="181" on="0"/>
        <pt x="212" y="198" on="1"/>
        <pt x="212" y="403" on="1"/>
        <pt x="56" y="403" on="1"/>
      </contour>
    </TTGlyph>
    <TTGlyph name="K" xMin="57" yMin="-6" xMax="633" yMax="620">
      <contour>
        <pt x="411" y="-6" on="1"/>
        <pt x="290" y="229" on="1"/>
        <pt x="264" y="229" on="1"/>
        <pt x="264" y="0" on="1"/>
        <pt x="57" y="0" on="1"/>
        <pt x="57" y="620" on="1"/>
        <pt x="264" y="620" on="1"/>
        <pt x="264" y="394" on="1"/>
        <pt x="295" y="394" on="1"/>
        <pt x="403" y="620" on="1"/>
        <pt x="618" y="620" on="1"/>
        <pt x="458" y="320" on="1"/>
        <pt x="633" y="6" on="1"/>
      </contour>
    </TTGlyph>
    <TTGlyph name="K.sc" xMin="52" yMin="-4" xMax="600" yMax="552">
      <contour>
        <pt x="384" y="-4" on="1"/>
        <pt x="274" y="202" on="1"/>
        <pt x="254" y="202" on="1"/>
        <pt x="254" y="0" on="1"/>
        <pt x="52" y="0" on="1"/>
        <pt x="52" y="552" on="1"/>
        <pt x="254" y="552" on="1"/>
        <pt x="254" y="353" on="1"/>
        <pt x="279" y="353" on="1"/>
        <pt x="375" y="552" on="1"/>
        <pt x="584" y="552" on="1"/>
        <pt x="439" y="284" on="1"/>
        <pt x="600" y="4" on="1"/>
      </contour>
    </TTGlyph>
    <TTGlyph name="Kcommaaccent" xMin="57" yMin="-322" xMax="633" yMax="620">
      <contour>
        <pt x="411" y="-6" on="1"/>
        <pt x="290" y="229" on="1"/>
        <pt x="264" y="229" on="1"/>
        <pt x="264" y="0" on="1"/>
        <pt x="57" y="0" on="1"/>
        <pt x="57" y="620" on="1"/>
        <pt x="264" y="620" on="1"/>
        <pt x="264" y="394" on="1"/>
        <pt x="295" y="394" on="1"/>
        <pt x="403" y="620" on="1"/>
        <pt x="618" y="620" on="1"/>
        <pt x="458" y="320" on="1"/>
        <pt x="633" y="6" on="1"/>
      </contour>
      <contour>
        <pt x="211" y="-288" on="1"/>
        <pt x="217" y="-259" on="0"/>
        <pt x="223" y="-201" on="0"/>
        <pt x="223" y="-171" on="1"/>
        <pt x="223" y="-146" on="0"/>
        <pt x="218" y="-93" on="0"/>
        <pt x="212" y="-65" on="1"/>
        <pt x="422" y="-58" on="1"/>
        <pt x="422" y="-63" on="1"/>
        <pt x="422" y="-140" on="0"/>
        <pt x="367" y="-270" on="0"/>
        <pt x="299" y="-322" on="1"/>
      </contour>
    </TTGlyph>
    <TTGlyph name="Kcommaaccent.sc" xMin="52" yMin="-320" xMax="600" yMax="552">
      <contour>
        <pt x="384" y="-4" on="1"/>
        <pt x="274" y="202" on="1"/>
        <pt x="254" y="202" on="1"/>
        <pt x="254" y="0" on="1"/>
        <pt x="52" y="0" on="1"/>
        <pt x="52" y="552" on="1"/>
        <pt x="254" y="552" on="1"/>
        <pt x="254" y="353" on="1"/>
        <pt x="279" y="353" on="1"/>
        <pt x="375" y="552" on="1"/>
        <pt x="584" y="552" on="1"/>
        <pt x="439" y="284" on="1"/>
        <pt x="600" y="4" on="1"/>
      </contour>
      <contour>
        <pt x="188" y="-286" on="1"/>
        <pt x="194" y="-257" on="0"/>
        <pt x="200" y="-199" on="0"/>
        <pt x="200" y="-169" on="1"/>
        <pt x="200" y="-144" on="0"/>
        <pt x="195" y="-91" on="0"/>
        <pt x="189" y="-63" on="1"/>
        <pt x="399" y="-56" on="1"/>
        <pt x="399" y="-61" on="1"/>
        <pt x="399" y="-138" on="0"/>
        <pt x="344" y="-268" on="0"/>
        <pt x="276" y="-320" on="1"/>
      </contour>
    </TTGlyph>
    <TTGlyph name="L" xMin="57" yMin="0" xMax="490" yMax="620">
      <contour>
        <pt x="479" y="0" on="1"/>
        <pt x="57" y="0" on="1"/>
        <pt x="57" y="620" on="1"/>
        <pt x="269" y="620" on="1"/>
        <pt x="269" y="166" on="1"/>
        <pt x="490" y="166" on="1"/>
      </contour>
    </TTGlyph>
    <TTGlyph name="L.sc" xMin="52" yMin="0" xMax="464" yMax="552">
      <contour>
        <pt x="454" y="0" on="1"/>
        <pt x="52" y="0" on="1"/>
        <pt x="52" y="552" on="1"/>
        <pt x="260" y="552" on="1"/>
        <pt x="260" y="153" on="1"/>
        <pt x="464" y="153" on="1"/>
      </contour>
    </TTGlyph>
    <TTGlyph name="Lacute" xMin="57" yMin="0" xMax="490" yMax="914">
      <contour>
        <pt x="115" y="737" on="1"/>
        <pt x="175" y="771" on="0"/>
        <pt x="300" y="865" on="0"/>
        <pt x="352" y="914" on="1"/>
        <pt x="464" y="770" on="1"/>
        <pt x="393" y="725" on="0"/>
        <pt x="223" y="667" on="0"/>
        <pt x="145" y="657" on="1"/>
      </contour>
      <contour>
        <pt x="479" y="0" on="1"/>
        <pt x="57" y="0" on="1"/>
        <pt x="57" y="620" on="1"/>
        <pt x="269" y="620" on="1"/>
        <pt x="269" y="166" on="1"/>
        <pt x="490" y="166" on="1"/>
      </contour>
    </TTGlyph>
    <TTGlyph name="Lacute.sc" xMin="52" yMin="0" xMax="464" yMax="846">
      <contour>
        <pt x="93" y="669" on="1"/>
        <pt x="153" y="703" on="0"/>
        <pt x="278" y="797" on="0"/>
        <pt x="330" y="846" on="1"/>
        <pt x="442" y="702" on="1"/>
        <pt x="371" y="657" on="0"/>
        <pt x="201" y="599" on="0"/>
        <pt x="123" y="589" on="1"/>
      </contour>
      <contour>
        <pt x="454" y="0" on="1"/>
        <pt x="52" y="0" on="1"/>
        <pt x="52" y="552" on="1"/>
        <pt x="260" y="552" on="1"/>
        <pt x="260" y="153" on="1"/>
        <pt x="464" y="153" on="1"/>
      </contour>
    </TTGlyph>
    <TTGlyph name="Lcaron" xMin="57" yMin="0" xMax="512" yMax="665">
      <contour>
        <pt x="335" y="428" on="1"/>
        <pt x="339" y="459" on="0"/>
        <pt x="343" y="521" on="0"/>
        <pt x="343" y="552" on="1"/>
        <pt x="343" y="579" on="0"/>
        <pt x="340" y="634" on="0"/>
        <pt x="336" y="662" on="1"/>
        <pt x="512" y="665" on="1"/>
        <pt x="507" y="600" on="0"/>
        <pt x="462" y="472" on="0"/>
        <pt x="426" y="414" on="1"/>
      </contour>
      <contour>
        <pt x="479" y="0" on="1"/>
        <pt x="57" y="0" on="1"/>
        <pt x="57" y="620" on="1"/>
        <pt x="269" y="620" on="1"/>
        <pt x="269" y="166" on="1"/>
        <pt x="490" y="166" on="1"/>
      </contour>
    </TTGlyph>
    <TTGlyph name="Lcaron.sc" xMin="52" yMin="0" xMax="491" yMax="615">
      <contour>
        <pt x="314" y="378" on="1"/>
        <pt x="318" y="409" on="0"/>
        <pt x="322" y="471" on="0"/>
        <pt x="322" y="502" on="1"/>
        <pt x="322" y="529" on="0"/>
        <pt x="319" y="584" on="0"/>
        <pt x="315" y="612" on="1"/>
        <pt x="491" y="615" on="1"/>
        <pt x="486" y="550" on="0"/>
        <pt x="441" y="422" on="0"/>
        <pt x="405" y="364" on="1"/>
      </contour>
      <contour>
        <pt x="454" y="0" on="1"/>
        <pt x="52" y="0" on="1"/>
        <pt x="52" y="552" on="1"/>
        <pt x="260" y="552" on="1"/>
        <pt x="260" y="153" on="1"/>
        <pt x="464" y="153" on="1"/>
      </contour>
    </TTGlyph>
    <TTGlyph name="Lcommaaccent" xMin="57" yMin="-316" xMax="490" yMax="620">
      <contour>
        <pt x="479" y="0" on="1"/>
        <pt x="57" y="0" on="1"/>
        <pt x="57" y="620" on="1"/>
        <pt x="269" y="620" on="1"/>
        <pt x="269" y="166" on="1"/>
        <pt x="490" y="166" on="1"/>
      </contour>
      <contour>
        <pt x="155" y="-282" on="1"/>
        <pt x="161" y="-253" on="0"/>
        <pt x="167" y="-195" on="0"/>
        <pt x="167" y="-165" on="1"/>
        <pt x="167" y="-140" on="0"/>
        <pt x="162" y="-87" on="0"/>
        <pt x="156" y="-59" on="1"/>
        <pt x="366" y="-52" on="1"/>
        <pt x="366" y="-57" on="1"/>
        <pt x="366" y="-134" on="0"/>
        <pt x="311" y="-264" on="0"/>
        <pt x="243" y="-316" on="1"/>
      </contour>
    </TTGlyph>
    <TTGlyph name="Lcommaaccent.sc" xMin="52" yMin="-316" xMax="464" yMax="552">
      <contour>
        <pt x="454" y="0" on="1"/>
        <pt x="52" y="0" on="1"/>
        <pt x="52" y="552" on="1"/>
        <pt x="260" y="552" on="1"/>
        <pt x="260" y="153" on="1"/>
        <pt x="464" y="153" on="1"/>
      </contour>
      <contour>
        <pt x="134" y="-282" on="1"/>
        <pt x="140" y="-253" on="0"/>
        <pt x="146" y="-195" on="0"/>
        <pt x="146" y="-165" on="1"/>
        <pt x="146" y="-140" on="0"/>
        <pt x="141" y="-87" on="0"/>
        <pt x="135" y="-59" on="1"/>
        <pt x="345" y="-52" on="1"/>
        <pt x="345" y="-57" on="1"/>
        <pt x="345" y="-134" on="0"/>
        <pt x="290" y="-264" on="0"/>
        <pt x="222" y="-316" on="1"/>
      </contour>
    </TTGlyph>
    <TTGlyph name="Ldot" xMin="57" yMin="0" xMax="498" yMax="620">
      <contour>
        <pt x="479" y="0" on="1"/>
        <pt x="57" y="0" on="1"/>
        <pt x="57" y="620" on="1"/>
        <pt x="269" y="620" on="1"/>
        <pt x="269" y="166" on="1"/>
        <pt x="490" y="166" on="1"/>
      </contour>
      <contour>
        <pt x="489" y="264" on="1"/>
        <pt x="332" y="264" on="1"/>
        <pt x="341" y="440" on="1"/>
        <pt x="498" y="440" on="1"/>
      </contour>
    </TTGlyph>
    <TTGlyph name="Ldot.sc" xMin="52" yMin="0" xMax="475" yMax="552">
      <contour>
        <pt x="454" y="0" on="1"/>
        <pt x="52" y="0" on="1"/>
        <pt x="52" y="552" on="1"/>
        <pt x="260" y="552" on="1"/>
        <pt x="260" y="153" on="1"/>
        <pt x="464" y="153" on="1"/>
      </contour>
      <contour>
        <pt x="466" y="257" on="1"/>
        <pt x="318" y="257" on="1"/>
        <pt x="327" y="426" on="1"/>
        <pt x="475" y="426" on="1"/>
      </contour>
    </TTGlyph>
    <TTGlyph name="Lslash" xMin="-16" yMin="0" xMax="490" yMax="620">
      <contour>
        <pt x="479" y="0" on="1"/>
        <pt x="57" y="0" on="1"/>
        <pt x="57" y="239" on="1"/>
        <pt x="9" y="218" on="1"/>
        <pt x="-16" y="327" on="1"/>
        <pt x="57" y="359" on="1"/>
        <pt x="57" y="620" on="1"/>
        <pt x="269" y="620" on="1"/>
        <pt x="269" y="453" on="1"/>
        <pt x="354" y="490" on="1"/>
        <pt x="379" y="382" on="1"/>
        <pt x="269" y="333" on="1"/>
        <pt x="269" y="166" on="1"/>
        <pt x="490" y="166" on="1"/>
      </contour>
    </TTGlyph>
    <TTGlyph name="Lslash.sc" xMin="-17" yMin="0" xMax="464" yMax="552">
      <contour>
        <pt x="454" y="0" on="1"/>
        <pt x="52" y="0" on="1"/>
        <pt x="52" y="213" on="1"/>
        <pt x="9" y="194" on="1"/>
        <pt x="-17" y="295" on="1"/>
        <pt x="52" y="325" on="1"/>
        <pt x="52" y="552" on="1"/>
        <pt x="260" y="552" on="1"/>
        <pt x="260" y="415" on="1"/>
        <pt x="329" y="445" on="1"/>
        <pt x="355" y="344" on="1"/>
        <pt x="260" y="303" on="1"/>
        <pt x="260" y="153" on="1"/>
        <pt x="464" y="153" on="1"/>
      </contour>
    </TTGlyph>
    <TTGlyph name="M" xMin="56" yMin="0" xMax="697" yMax="620">
      <contour>
        <pt x="477" y="620" on="1"/>
        <pt x="696" y="620" on="1"/>
        <pt x="697" y="0" on="1"/>
        <pt x="507" y="0" on="1"/>
        <pt x="518" y="311" on="1"/>
        <pt x="511" y="311" on="1"/>
        <pt x="420" y="47" on="1"/>
        <pt x="334" y="47" on="1"/>
        <pt x="243" y="311" on="1"/>
        <pt x="237" y="311" on="1"/>
        <pt x="247" y="0" on="1"/>
        <pt x="56" y="0" on="1"/>
        <pt x="56" y="620" on="1"/>
        <pt x="287" y="620" on="1"/>
        <pt x="379" y="355" on="1"/>
        <pt x="384" y="355" on="1"/>
      </contour>
    </TTGlyph>
    <TTGlyph name="M.sc" xMin="52" yMin="0" xMax="652" yMax="552">
      <contour>
        <pt x="314" y="43" on="1"/>
        <pt x="234" y="262" on="1"/>
        <pt x="229" y="262" on="1"/>
        <pt x="239" y="0" on="1"/>
        <pt x="52" y="0" on="1"/>
        <pt x="52" y="552" on="1"/>
        <pt x="274" y="552" on="1"/>
        <pt x="356" y="327" on="1"/>
        <pt x="361" y="327" on="1"/>
        <pt x="443" y="552" on="1"/>
        <pt x="652" y="552" on="1"/>
        <pt x="652" y="0" on="1"/>
        <pt x="468" y="0" on="1"/>
        <pt x="478" y="262" on="1"/>
        <pt x="473" y="262" on="1"/>
        <pt x="392" y="42" on="1"/>
      </contour>
    </TTGlyph>
    <TTGlyph name="N" xMin="57" yMin="0" xMax="605" yMax="620">
      <contour>
        <pt x="398" y="0" on="1"/>
        <pt x="254" y="281" on="1"/>
        <pt x="249" y="281" on="1"/>
        <pt x="251" y="0" on="1"/>
        <pt x="57" y="0" on="1"/>
        <pt x="57" y="620" on="1"/>
        <pt x="259" y="620" on="1"/>
        <pt x="407" y="334" on="1"/>
        <pt x="412" y="334" on="1"/>
        <pt x="410" y="620" on="1"/>
        <pt x="605" y="620" on="1"/>
        <pt x="605" y="0" on="1"/>
      </contour>
    </TTGlyph>
    <TTGlyph name="N.sc" xMin="52" yMin="0" xMax="558" yMax="552">
      <contour>
        <pt x="364" y="0" on="1"/>
        <pt x="238" y="236" on="1"/>
        <pt x="233" y="236" on="1"/>
        <pt x="234" y="0" on="1"/>
        <pt x="52" y="0" on="1"/>
        <pt x="52" y="552" on="1"/>
        <pt x="238" y="552" on="1"/>
        <pt x="371" y="309" on="1"/>
        <pt x="377" y="309" on="1"/>
        <pt x="375" y="552" on="1"/>
        <pt x="558" y="552" on="1"/>
        <pt x="558" y="0" on="1"/>
      </contour>
    </TTGlyph>
    <TTGlyph name="Nacute" xMin="57" yMin="0" xMax="605" yMax="914">
      <contour>
        <pt x="190" y="737" on="1"/>
        <pt x="250" y="771" on="0"/>
        <pt x="375" y="865" on="0"/>
        <pt x="427" y="914" on="1"/>
        <pt x="539" y="770" on="1"/>
        <pt x="468" y="725" on="0"/>
        <pt x="298" y="667" on="0"/>
        <pt x="220" y="657" on="1"/>
      </contour>
      <contour>
        <pt x="398" y="0" on="1"/>
        <pt x="254" y="281" on="1"/>
        <pt x="249" y="281" on="1"/>
        <pt x="251" y="0" on="1"/>
        <pt x="57" y="0" on="1"/>
        <pt x="57" y="620" on="1"/>
        <pt x="259" y="620" on="1"/>
        <pt x="407" y="334" on="1"/>
        <pt x="412" y="334" on="1"/>
        <pt x="410" y="620" on="1"/>
        <pt x="605" y="620" on="1"/>
        <pt x="605" y="0" on="1"/>
      </contour>
    </TTGlyph>
    <TTGlyph name="Nacute.sc" xMin="52" yMin="0" xMax="558" yMax="846">
      <contour>
        <pt x="162" y="669" on="1"/>
        <pt x="222" y="703" on="0"/>
        <pt x="347" y="797" on="0"/>
        <pt x="399" y="846" on="1"/>
        <pt x="511" y="702" on="1"/>
        <pt x="440" y="657" on="0"/>
        <pt x="270" y="599" on="0"/>
        <pt x="192" y="589" on="1"/>
      </contour>
      <contour>
        <pt x="364" y="0" on="1"/>
        <pt x="238" y="236" on="1"/>
        <pt x="233" y="236" on="1"/>
        <pt x="234" y="0" on="1"/>
        <pt x="52" y="0" on="1"/>
        <pt x="52" y="552" on="1"/>
        <pt x="238" y="552" on="1"/>
        <pt x="371" y="309" on="1"/>
        <pt x="377" y="309" on="1"/>
        <pt x="375" y="552" on="1"/>
        <pt x="558" y="552" on="1"/>
        <pt x="558" y="0" on="1"/>
      </contour>
    </TTGlyph>
    <TTGlyph name="Ncaron" xMin="57" yMin="0" xMax="605" yMax="893">
      <contour>
        <pt x="357" y="655" on="1"/>
        <pt x="318" y="655" on="1"/>
        <pt x="138" y="790" on="1"/>
        <pt x="236" y="893" on="1"/>
        <pt x="349" y="808" on="1"/>
        <pt x="460" y="893" on="1"/>
        <pt x="537" y="802" on="1"/>
      </contour>
      <contour>
        <pt x="398" y="0" on="1"/>
        <pt x="254" y="281" on="1"/>
        <pt x="249" y="281" on="1"/>
        <pt x="251" y="0" on="1"/>
        <pt x="57" y="0" on="1"/>
        <pt x="57" y="620" on="1"/>
        <pt x="259" y="620" on="1"/>
        <pt x="407" y="334" on="1"/>
        <pt x="412" y="334" on="1"/>
        <pt x="410" y="620" on="1"/>
        <pt x="605" y="620" on="1"/>
        <pt x="605" y="0" on="1"/>
      </contour>
    </TTGlyph>
    <TTGlyph name="Ncaron.sc" xMin="52" yMin="0" xMax="558" yMax="825">
      <contour>
        <pt x="329" y="587" on="1"/>
        <pt x="290" y="587" on="1"/>
        <pt x="110" y="722" on="1"/>
        <pt x="208" y="825" on="1"/>
        <pt x="321" y="740" on="1"/>
        <pt x="432" y="825" on="1"/>
        <pt x="509" y="734" on="1"/>
      </contour>
      <contour>
        <pt x="364" y="0" on="1"/>
        <pt x="238" y="236" on="1"/>
        <pt x="233" y="236" on="1"/>
        <pt x="234" y="0" on="1"/>
        <pt x="52" y="0" on="1"/>
        <pt x="52" y="552" on="1"/>
        <pt x="238" y="552" on="1"/>
        <pt x="371" y="309" on="1"/>
        <pt x="377" y="309" on="1"/>
        <pt x="375" y="552" on="1"/>
        <pt x="558" y="552" on="1"/>
        <pt x="558" y="0" on="1"/>
      </contour>
    </TTGlyph>
    <TTGlyph name="Ncommaaccent" xMin="57" yMin="-316" xMax="605" yMax="620">
      <contour>
        <pt x="398" y="0" on="1"/>
        <pt x="254" y="281" on="1"/>
        <pt x="249" y="281" on="1"/>
        <pt x="251" y="0" on="1"/>
        <pt x="57" y="0" on="1"/>
        <pt x="57" y="620" on="1"/>
        <pt x="259" y="620" on="1"/>
        <pt x="407" y="334" on="1"/>
        <pt x="412" y="334" on="1"/>
        <pt x="410" y="620" on="1"/>
        <pt x="605" y="620" on="1"/>
        <pt x="605" y="0" on="1"/>
      </contour>
      <contour>
        <pt x="230" y="-282" on="1"/>
        <pt x="236" y="-253" on="0"/>
        <pt x="242" y="-195" on="0"/>
        <pt x="242" y="-165" on="1"/>
        <pt x="242" y="-140" on="0"/>
        <pt x="237" y="-87" on="0"/>
        <pt x="231" y="-59" on="1"/>
        <pt x="441" y="-52" on="1"/>
        <pt x="441" y="-57" on="1"/>
        <pt x="441" y="-134" on="0"/>
        <pt x="386" y="-264" on="0"/>
        <pt x="318" y="-316" on="1"/>
      </contour>
    </TTGlyph>
    <TTGlyph name="Ncommaaccent.sc" xMin="52" yMin="-316" xMax="558" yMax="552">
      <contour>
        <pt x="364" y="0" on="1"/>
        <pt x="238" y="236" on="1"/>
        <pt x="233" y="236" on="1"/>
        <pt x="234" y="0" on="1"/>
        <pt x="52" y="0" on="1"/>
        <pt x="52" y="552" on="1"/>
        <pt x="238" y="552" on="1"/>
        <pt x="371" y="309" on="1"/>
        <pt x="377" y="309" on="1"/>
        <pt x="375" y="552" on="1"/>
        <pt x="558" y="552" on="1"/>
        <pt x="558" y="0" on="1"/>
      </contour>
      <contour>
        <pt x="203" y="-282" on="1"/>
        <pt x="209" y="-253" on="0"/>
        <pt x="215" y="-195" on="0"/>
        <pt x="215" y="-165" on="1"/>
        <pt x="215" y="-140" on="0"/>
        <pt x="210" y="-87" on="0"/>
        <pt x="204" y="-59" on="1"/>
        <pt x="414" y="-52" on="1"/>
        <pt x="414" y="-57" on="1"/>
        <pt x="414" y="-134" on="0"/>
        <pt x="359" y="-264" on="0"/>
        <pt x="291" y="-316" on="1"/>
      </contour>
    </TTGlyph>
    <TTGlyph name="Ntilde" xMin="57" yMin="0" xMax="605" yMax="873">
      <contour>
        <pt x="421" y="666" on="1"/>
        <pt x="396" y="666" on="0"/>
        <pt x="351" y="684" on="0"/>
        <pt x="313" y="707" on="0"/>
        <pt x="280" y="725" on="0"/>
        <pt x="267" y="725" on="1"/>
        <pt x="255" y="725" on="0"/>
        <pt x="232" y="700" on="0"/>
        <pt x="217" y="669" on="1"/>
        <pt x="122" y="705" on="1"/>
        <pt x="144" y="777" on="0"/>
        <pt x="217" y="872" on="0"/>
        <pt x="271" y="872" on="1"/>
        <pt x="295" y="872" on="0"/>
        <pt x="339" y="853" on="0"/>
        <pt x="377" y="831" on="0"/>
        <pt x="410" y="812" on="0"/>
        <pt x="423" y="812" on="1"/>
        <pt x="435" y="812" on="0"/>
        <pt x="459" y="839" on="0"/>
        <pt x="477" y="873" on="1"/>
        <pt x="572" y="838" on="1"/>
        <pt x="549" y="764" on="0"/>
        <pt x="475" y="666" on="0"/>
      </contour>
      <contour>
        <pt x="398" y="0" on="1"/>
        <pt x="254" y="281" on="1"/>
        <pt x="249" y="281" on="1"/>
        <pt x="251" y="0" on="1"/>
        <pt x="57" y="0" on="1"/>
        <pt x="57" y="620" on="1"/>
        <pt x="259" y="620" on="1"/>
        <pt x="407" y="334" on="1"/>
        <pt x="412" y="334" on="1"/>
        <pt x="410" y="620" on="1"/>
        <pt x="605" y="620" on="1"/>
        <pt x="605" y="0" on="1"/>
      </contour>
    </TTGlyph>
    <TTGlyph name="Ntilde.sc" xMin="52" yMin="0" xMax="558" yMax="805">
      <contour>
        <pt x="393" y="598" on="1"/>
        <pt x="368" y="598" on="0"/>
        <pt x="323" y="616" on="0"/>
        <pt x="285" y="639" on="0"/>
        <pt x="252" y="657" on="0"/>
        <pt x="239" y="657" on="1"/>
        <pt x="227" y="657" on="0"/>
        <pt x="204" y="632" on="0"/>
        <pt x="189" y="601" on="1"/>
        <pt x="94" y="637" on="1"/>
        <pt x="116" y="709" on="0"/>
        <pt x="189" y="804" on="0"/>
        <pt x="243" y="804" on="1"/>
        <pt x="267" y="804" on="0"/>
        <pt x="311" y="785" on="0"/>
        <pt x="349" y="763" on="0"/>
        <pt x="382" y="744" on="0"/>
        <pt x="395" y="744" on="1"/>
        <pt x="407" y="744" on="0"/>
        <pt x="431" y="771" on="0"/>
        <pt x="449" y="805" on="1"/>
        <pt x="544" y="770" on="1"/>
        <pt x="521" y="696" on="0"/>
        <pt x="447" y="598" on="0"/>
      </contour>
      <contour>
        <pt x="364" y="0" on="1"/>
        <pt x="238" y="236" on="1"/>
        <pt x="233" y="236" on="1"/>
        <pt x="234" y="0" on="1"/>
        <pt x="52" y="0" on="1"/>
        <pt x="52" y="552" on="1"/>
        <pt x="238" y="552" on="1"/>
        <pt x="371" y="309" on="1"/>
        <pt x="377" y="309" on="1"/>
        <pt x="375" y="552" on="1"/>
        <pt x="558" y="552" on="1"/>
        <pt x="558" y="0" on="1"/>
      </contour>
    </TTGlyph>
    <TTGlyph name="O" xMin="29" yMin="-14" xMax="623" yMax="634">
      <contour>
        <pt x="305" y="-14" on="1"/>
        <pt x="245" y="-14" on="0"/>
        <pt x="144" y="28" on="0"/>
        <pt x="70" y="106" on="0"/>
        <pt x="29" y="218" on="0"/>
        <pt x="29" y="288" on="1"/>
        <pt x="29" y="369" on="0"/>
        <pt x="79" y="498" on="0"/>
        <pt x="165" y="587" on="0"/>
        <pt x="281" y="634" on="0"/>
        <pt x="347" y="634" on="1"/>
        <pt x="407" y="634" on="0"/>
        <pt x="508" y="592" on="0"/>
        <pt x="582" y="514" on="0"/>
        <pt x="623" y="402" on="0"/>
        <pt x="623" y="332" on="1"/>
        <pt x="623" y="251" on="0"/>
        <pt x="573" y="122" on="0"/>
        <pt x="487" y="33" on="0"/>
        <pt x="370" y="-14" on="0"/>
      </contour>
      <contour>
        <pt x="321" y="465" on="1"/>
        <pt x="284" y="465" on="0"/>
        <pt x="245" y="390" on="0"/>
        <pt x="245" y="318" on="1"/>
        <pt x="245" y="241" on="0"/>
        <pt x="292" y="156" on="0"/>
        <pt x="331" y="156" on="1"/>
        <pt x="368" y="156" on="0"/>
        <pt x="408" y="230" on="0"/>
        <pt x="408" y="302" on="1"/>
        <pt x="408" y="379" on="0"/>
        <pt x="360" y="465" on="0"/>
      </contour>
    </TTGlyph>
    <TTGlyph name="O.sc" xMin="27" yMin="-13" xMax="589" yMax="565">
      <contour>
        <pt x="288" y="-13" on="1"/>
        <pt x="231" y="-13" on="0"/>
        <pt x="135" y="25" on="0"/>
        <pt x="66" y="94" on="0"/>
        <pt x="27" y="194" on="0"/>
        <pt x="27" y="256" on="1"/>
        <pt x="27" y="328" on="0"/>
        <pt x="74" y="444" on="0"/>
        <pt x="155" y="523" on="0"/>
        <pt x="265" y="565" on="0"/>
        <pt x="327" y="565" on="1"/>
        <pt x="383" y="565" on="0"/>
        <pt x="480" y="527" on="0"/>
        <pt x="549" y="458" on="0"/>
        <pt x="589" y="358" on="0"/>
        <pt x="589" y="296" on="1"/>
        <pt x="589" y="223" on="0"/>
        <pt x="541" y="108" on="0"/>
        <pt x="460" y="29" on="0"/>
        <pt x="350" y="-13" on="0"/>
      </contour>
      <contour>
        <pt x="303" y="410" on="1"/>
        <pt x="271" y="410" on="0"/>
        <pt x="238" y="345" on="0"/>
        <pt x="238" y="283" on="1"/>
        <pt x="238" y="217" on="0"/>
        <pt x="278" y="144" on="0"/>
        <pt x="312" y="144" on="1"/>
        <pt x="343" y="144" on="0"/>
        <pt x="378" y="207" on="0"/>
        <pt x="378" y="270" on="1"/>
        <pt x="378" y="336" on="0"/>
        <pt x="336" y="410" on="0"/>
      </contour>
    </TTGlyph>
    <TTGlyph name="OE" xMin="29" yMin="0" xMax="800" yMax="620">
      <contour>
        <pt x="233" y="313" on="1"/>
        <pt x="233" y="228" on="0"/>
        <pt x="302" y="163" on="0"/>
        <pt x="372" y="160" on="1"/>
        <pt x="372" y="459" on="1"/>
        <pt x="300" y="457" on="0"/>
        <pt x="233" y="399" on="0"/>
      </contour>
      <contour>
        <pt x="800" y="161" on="1"/>
        <pt x="789" y="0" on="1"/>
        <pt x="436" y="0" on="1"/>
        <pt x="336" y="0" on="0"/>
        <pt x="183" y="29" on="0"/>
        <pt x="81" y="97" on="0"/>
        <pt x="29" y="211" on="0"/>
        <pt x="29" y="295" on="1"/>
        <pt x="29" y="376" on="0"/>
        <pt x="86" y="498" on="0"/>
        <pt x="191" y="579" on="0"/>
        <pt x="344" y="620" on="0"/>
        <pt x="438" y="620" on="1"/>
        <pt x="792" y="620" on="1"/>
        <pt x="792" y="459" on="1"/>
        <pt x="568" y="459" on="1"/>
        <pt x="568" y="373" on="1"/>
        <pt x="746" y="373" on="1"/>
        <pt x="746" y="249" on="1"/>
        <pt x="568" y="249" on="1"/>
        <pt x="568" y="161" on="1"/>
      </contour>
    </TTGlyph>
    <TTGlyph name="OE.sc" xMin="27" yMin="0" xMax="749" yMax="552">
      <contour>
        <pt x="226" y="279" on="1"/>
        <pt x="226" y="208" on="0"/>
        <pt x="286" y="147" on="0"/>
        <pt x="346" y="147" on="1"/>
        <pt x="345" y="404" on="1"/>
        <pt x="282" y="404" on="0"/>
        <pt x="226" y="350" on="0"/>
      </contour>
      <contour>
        <pt x="749" y="148" on="1"/>
        <pt x="738" y="0" on="1"/>
        <pt x="414" y="0" on="1"/>
        <pt x="318" y="0" on="0"/>
        <pt x="173" y="26" on="0"/>
        <pt x="76" y="86" on="0"/>
        <pt x="27" y="188" on="0"/>
        <pt x="27" y="263" on="1"/>
        <pt x="27" y="405" on="0"/>
        <pt x="230" y="552" on="0"/>
        <pt x="414" y="552" on="1"/>
        <pt x="741" y="552" on="1"/>
        <pt x="741" y="403" on="1"/>
        <pt x="534" y="403" on="1"/>
        <pt x="534" y="333" on="1"/>
        <pt x="697" y="333" on="1"/>
        <pt x="697" y="220" on="1"/>
        <pt x="534" y="220" on="1"/>
        <pt x="534" y="148" on="1"/>
      </contour>
    </TTGlyph>
    <TTGlyph name="Oacute" xMin="29" yMin="-14" xMax="623" yMax="923">
      <contour>
        <pt x="185" y="746" on="1"/>
        <pt x="245" y="780" on="0"/>
        <pt x="370" y="874" on="0"/>
        <pt x="422" y="923" on="1"/>
        <pt x="534" y="779" on="1"/>
        <pt x="463" y="734" on="0"/>
        <pt x="293" y="676" on="0"/>
        <pt x="215" y="666" on="1"/>
      </contour>
      <contour>
        <pt x="305" y="-14" on="1"/>
        <pt x="245" y="-14" on="0"/>
        <pt x="144" y="28" on="0"/>
        <pt x="70" y="106" on="0"/>
        <pt x="29" y="218" on="0"/>
        <pt x="29" y="288" on="1"/>
        <pt x="29" y="369" on="0"/>
        <pt x="79" y="498" on="0"/>
        <pt x="165" y="587" on="0"/>
        <pt x="281" y="634" on="0"/>
        <pt x="347" y="634" on="1"/>
        <pt x="407" y="634" on="0"/>
        <pt x="508" y="592" on="0"/>
        <pt x="582" y="514" on="0"/>
        <pt x="623" y="402" on="0"/>
        <pt x="623" y="332" on="1"/>
        <pt x="623" y="251" on="0"/>
        <pt x="573" y="122" on="0"/>
        <pt x="487" y="33" on="0"/>
        <pt x="370" y="-14" on="0"/>
      </contour>
      <contour>
        <pt x="321" y="465" on="1"/>
        <pt x="284" y="465" on="0"/>
        <pt x="245" y="390" on="0"/>
        <pt x="245" y="318" on="1"/>
        <pt x="245" y="241" on="0"/>
        <pt x="292" y="156" on="0"/>
        <pt x="331" y="156" on="1"/>
        <pt x="368" y="156" on="0"/>
        <pt x="408" y="230" on="0"/>
        <pt x="408" y="302" on="1"/>
        <pt x="408" y="379" on="0"/>
        <pt x="360" y="465" on="0"/>
      </contour>
    </TTGlyph>
    <TTGlyph name="Oacute.sc" xMin="27" yMin="-13" xMax="589" yMax="854">
      <contour>
        <pt x="166" y="677" on="1"/>
        <pt x="226" y="711" on="0"/>
        <pt x="351" y="805" on="0"/>
        <pt x="403" y="854" on="1"/>
        <pt x="515" y="710" on="1"/>
        <pt x="444" y="665" on="0"/>
        <pt x="274" y="607" on="0"/>
        <pt x="196" y="597" on="1"/>
      </contour>
      <contour>
        <pt x="288" y="-13" on="1"/>
        <pt x="231" y="-13" on="0"/>
        <pt x="135" y="25" on="0"/>
        <pt x="66" y="94" on="0"/>
        <pt x="27" y="194" on="0"/>
        <pt x="27" y="256" on="1"/>
        <pt x="27" y="328" on="0"/>
        <pt x="74" y="444" on="0"/>
        <pt x="155" y="523" on="0"/>
        <pt x="265" y="565" on="0"/>
        <pt x="327" y="565" on="1"/>
        <pt x="383" y="565" on="0"/>
        <pt x="480" y="527" on="0"/>
        <pt x="549" y="458" on="0"/>
        <pt x="589" y="358" on="0"/>
        <pt x="589" y="296" on="1"/>
        <pt x="589" y="223" on="0"/>
        <pt x="541" y="108" on="0"/>
        <pt x="460" y="29" on="0"/>
        <pt x="350" y="-13" on="0"/>
      </contour>
      <contour>
        <pt x="303" y="410" on="1"/>
        <pt x="271" y="410" on="0"/>
        <pt x="238" y="345" on="0"/>
        <pt x="238" y="283" on="1"/>
        <pt x="238" y="217" on="0"/>
        <pt x="278" y="144" on="0"/>
        <pt x="312" y="144" on="1"/>
        <pt x="343" y="144" on="0"/>
        <pt x="378" y="207" on="0"/>
        <pt x="378" y="270" on="1"/>
        <pt x="378" y="336" on="0"/>
        <pt x="336" y="410" on="0"/>
      </contour>
    </TTGlyph>
    <TTGlyph name="Obreve" xMin="29" yMin="-14" xMax="623" yMax="894">
      <contour>
        <pt x="331" y="670" on="1"/>
        <pt x="262" y="670" on="0"/>
        <pt x="158" y="759" on="0"/>
        <pt x="124" y="832" on="1"/>
        <pt x="240" y="894" on="1"/>
        <pt x="265" y="858" on="0"/>
        <pt x="317" y="822" on="0"/>
        <pt x="345" y="822" on="1"/>
        <pt x="373" y="822" on="0"/>
        <pt x="424" y="859" on="0"/>
        <pt x="447" y="893" on="1"/>
        <pt x="544" y="848" on="1"/>
        <pt x="510" y="772" on="0"/>
        <pt x="403" y="670" on="0"/>
      </contour>
      <contour>
        <pt x="305" y="-14" on="1"/>
        <pt x="245" y="-14" on="0"/>
        <pt x="144" y="28" on="0"/>
        <pt x="70" y="106" on="0"/>
        <pt x="29" y="218" on="0"/>
        <pt x="29" y="288" on="1"/>
        <pt x="29" y="369" on="0"/>
        <pt x="79" y="498" on="0"/>
        <pt x="165" y="587" on="0"/>
        <pt x="281" y="634" on="0"/>
        <pt x="347" y="634" on="1"/>
        <pt x="407" y="634" on="0"/>
        <pt x="508" y="592" on="0"/>
        <pt x="582" y="514" on="0"/>
        <pt x="623" y="402" on="0"/>
        <pt x="623" y="332" on="1"/>
        <pt x="623" y="251" on="0"/>
        <pt x="573" y="122" on="0"/>
        <pt x="487" y="33" on="0"/>
        <pt x="370" y="-14" on="0"/>
      </contour>
      <contour>
        <pt x="321" y="465" on="1"/>
        <pt x="284" y="465" on="0"/>
        <pt x="245" y="390" on="0"/>
        <pt x="245" y="318" on="1"/>
        <pt x="245" y="241" on="0"/>
        <pt x="292" y="156" on="0"/>
        <pt x="331" y="156" on="1"/>
        <pt x="368" y="156" on="0"/>
        <pt x="408" y="230" on="0"/>
        <pt x="408" y="302" on="1"/>
        <pt x="408" y="379" on="0"/>
        <pt x="360" y="465" on="0"/>
      </contour>
    </TTGlyph>
    <TTGlyph name="Obreve.sc" xMin="27" yMin="-13" xMax="589" yMax="825">
      <contour>
        <pt x="311" y="601" on="1"/>
        <pt x="242" y="601" on="0"/>
        <pt x="138" y="690" on="0"/>
        <pt x="104" y="763" on="1"/>
        <pt x="220" y="825" on="1"/>
        <pt x="245" y="789" on="0"/>
        <pt x="297" y="753" on="0"/>
        <pt x="325" y="753" on="1"/>
        <pt x="353" y="753" on="0"/>
        <pt x="404" y="790" on="0"/>
        <pt x="427" y="824" on="1"/>
        <pt x="524" y="779" on="1"/>
        <pt x="490" y="703" on="0"/>
        <pt x="383" y="601" on="0"/>
      </contour>
      <contour>
        <pt x="288" y="-13" on="1"/>
        <pt x="231" y="-13" on="0"/>
        <pt x="135" y="25" on="0"/>
        <pt x="66" y="94" on="0"/>
        <pt x="27" y="194" on="0"/>
        <pt x="27" y="256" on="1"/>
        <pt x="27" y="328" on="0"/>
        <pt x="74" y="444" on="0"/>
        <pt x="155" y="523" on="0"/>
        <pt x="265" y="565" on="0"/>
        <pt x="327" y="565" on="1"/>
        <pt x="383" y="565" on="0"/>
        <pt x="480" y="527" on="0"/>
        <pt x="549" y="458" on="0"/>
        <pt x="589" y="358" on="0"/>
        <pt x="589" y="296" on="1"/>
        <pt x="589" y="223" on="0"/>
        <pt x="541" y="108" on="0"/>
        <pt x="460" y="29" on="0"/>
        <pt x="350" y="-13" on="0"/>
      </contour>
      <contour>
        <pt x="303" y="410" on="1"/>
        <pt x="271" y="410" on="0"/>
        <pt x="238" y="345" on="0"/>
        <pt x="238" y="283" on="1"/>
        <pt x="238" y="217" on="0"/>
        <pt x="278" y="144" on="0"/>
        <pt x="312" y="144" on="1"/>
        <pt x="343" y="144" on="0"/>
        <pt x="378" y="207" on="0"/>
        <pt x="378" y="270" on="1"/>
        <pt x="378" y="336" on="0"/>
        <pt x="336" y="410" on="0"/>
      </contour>
    </TTGlyph>
    <TTGlyph name="Ocircumflex" xMin="29" yMin="-14" xMax="623" yMax="903">
      <contour>
        <pt x="437" y="665" on="1"/>
        <pt x="324" y="751" on="1"/>
        <pt x="213" y="665" on="1"/>
        <pt x="135" y="756" on="1"/>
        <pt x="316" y="903" on="1"/>
        <pt x="355" y="903" on="1"/>
        <pt x="534" y="768" on="1"/>
      </contour>
      <contour>
        <pt x="305" y="-14" on="1"/>
        <pt x="245" y="-14" on="0"/>
        <pt x="144" y="28" on="0"/>
        <pt x="70" y="106" on="0"/>
        <pt x="29" y="218" on="0"/>
        <pt x="29" y="288" on="1"/>
        <pt x="29" y="369" on="0"/>
        <pt x="79" y="498" on="0"/>
        <pt x="165" y="587" on="0"/>
        <pt x="281" y="634" on="0"/>
        <pt x="347" y="634" on="1"/>
        <pt x="407" y="634" on="0"/>
        <pt x="508" y="592" on="0"/>
        <pt x="582" y="514" on="0"/>
        <pt x="623" y="402" on="0"/>
        <pt x="623" y="332" on="1"/>
        <pt x="623" y="251" on="0"/>
        <pt x="573" y="122" on="0"/>
        <pt x="487" y="33" on="0"/>
        <pt x="370" y="-14" on="0"/>
      </contour>
      <contour>
        <pt x="321" y="465" on="1"/>
        <pt x="284" y="465" on="0"/>
        <pt x="245" y="390" on="0"/>
        <pt x="245" y="318" on="1"/>
        <pt x="245" y="241" on="0"/>
        <pt x="292" y="156" on="0"/>
        <pt x="331" y="156" on="1"/>
        <pt x="368" y="156" on="0"/>
        <pt x="408" y="230" on="0"/>
        <pt x="408" y="302" on="1"/>
        <pt x="408" y="379" on="0"/>
        <pt x="360" y="465" on="0"/>
      </contour>
    </TTGlyph>
    <TTGlyph name="Ocircumflex.sc" xMin="27" yMin="-13" xMax="589" yMax="834">
      <contour>
        <pt x="418" y="596" on="1"/>
        <pt x="305" y="682" on="1"/>
        <pt x="194" y="596" on="1"/>
        <pt x="116" y="687" on="1"/>
        <pt x="297" y="834" on="1"/>
        <pt x="336" y="834" on="1"/>
        <pt x="515" y="699" on="1"/>
      </contour>
      <contour>
        <pt x="288" y="-13" on="1"/>
        <pt x="231" y="-13" on="0"/>
        <pt x="135" y="25" on="0"/>
        <pt x="66" y="94" on="0"/>
        <pt x="27" y="194" on="0"/>
        <pt x="27" y="256" on="1"/>
        <pt x="27" y="328" on="0"/>
        <pt x="74" y="444" on="0"/>
        <pt x="155" y="523" on="0"/>
        <pt x="265" y="565" on="0"/>
        <pt x="327" y="565" on="1"/>
        <pt x="383" y="565" on="0"/>
        <pt x="480" y="527" on="0"/>
        <pt x="549" y="458" on="0"/>
        <pt x="589" y="358" on="0"/>
        <pt x="589" y="296" on="1"/>
        <pt x="589" y="223" on="0"/>
        <pt x="541" y="108" on="0"/>
        <pt x="460" y="29" on="0"/>
        <pt x="350" y="-13" on="0"/>
      </contour>
      <contour>
        <pt x="303" y="410" on="1"/>
        <pt x="271" y="410" on="0"/>
        <pt x="238" y="345" on="0"/>
        <pt x="238" y="283" on="1"/>
        <pt x="238" y="217" on="0"/>
        <pt x="278" y="144" on="0"/>
        <pt x="312" y="144" on="1"/>
        <pt x="343" y="144" on="0"/>
        <pt x="378" y="207" on="0"/>
        <pt x="378" y="270" on="1"/>
        <pt x="378" y="336" on="0"/>
        <pt x="336" y="410" on="0"/>
      </contour>
    </TTGlyph>
    <TTGlyph name="Odieresis" xMin="29" yMin="-14" xMax="623" yMax="854">
      <contour>
        <pt x="542" y="684" on="1"/>
        <pt x="358" y="684" on="1"/>
        <pt x="360" y="854" on="1"/>
        <pt x="545" y="854" on="1"/>
      </contour>
      <contour>
        <pt x="305" y="684" on="1"/>
        <pt x="120" y="684" on="1"/>
        <pt x="123" y="854" on="1"/>
        <pt x="307" y="854" on="1"/>
      </contour>
      <contour>
        <pt x="305" y="-14" on="1"/>
        <pt x="245" y="-14" on="0"/>
        <pt x="144" y="28" on="0"/>
        <pt x="70" y="106" on="0"/>
        <pt x="29" y="218" on="0"/>
        <pt x="29" y="288" on="1"/>
        <pt x="29" y="369" on="0"/>
        <pt x="79" y="498" on="0"/>
        <pt x="165" y="587" on="0"/>
        <pt x="281" y="634" on="0"/>
        <pt x="347" y="634" on="1"/>
        <pt x="407" y="634" on="0"/>
        <pt x="508" y="592" on="0"/>
        <pt x="582" y="514" on="0"/>
        <pt x="623" y="402" on="0"/>
        <pt x="623" y="332" on="1"/>
        <pt x="623" y="251" on="0"/>
        <pt x="573" y="122" on="0"/>
        <pt x="487" y="33" on="0"/>
        <pt x="370" y="-14" on="0"/>
      </contour>
      <contour>
        <pt x="321" y="465" on="1"/>
        <pt x="284" y="465" on="0"/>
        <pt x="245" y="390" on="0"/>
        <pt x="245" y="318" on="1"/>
        <pt x="245" y="241" on="0"/>
        <pt x="292" y="156" on="0"/>
        <pt x="331" y="156" on="1"/>
        <pt x="368" y="156" on="0"/>
        <pt x="408" y="230" on="0"/>
        <pt x="408" y="302" on="1"/>
        <pt x="408" y="379" on="0"/>
        <pt x="360" y="465" on="0"/>
      </contour>
    </TTGlyph>
    <TTGlyph name="Odieresis.sc" xMin="27" yMin="-13" xMax="589" yMax="785">
      <contour>
        <pt x="523" y="615" on="1"/>
        <pt x="339" y="615" on="1"/>
        <pt x="341" y="785" on="1"/>
        <pt x="526" y="785" on="1"/>
      </contour>
      <contour>
        <pt x="286" y="615" on="1"/>
        <pt x="101" y="615" on="1"/>
        <pt x="104" y="785" on="1"/>
        <pt x="288" y="785" on="1"/>
      </contour>
      <contour>
        <pt x="288" y="-13" on="1"/>
        <pt x="231" y="-13" on="0"/>
        <pt x="135" y="25" on="0"/>
        <pt x="66" y="94" on="0"/>
        <pt x="27" y="194" on="0"/>
        <pt x="27" y="256" on="1"/>
        <pt x="27" y="328" on="0"/>
        <pt x="74" y="444" on="0"/>
        <pt x="155" y="523" on="0"/>
        <pt x="265" y="565" on="0"/>
        <pt x="327" y="565" on="1"/>
        <pt x="383" y="565" on="0"/>
        <pt x="480" y="527" on="0"/>
        <pt x="549" y="458" on="0"/>
        <pt x="589" y="358" on="0"/>
        <pt x="589" y="296" on="1"/>
        <pt x="589" y="223" on="0"/>
        <pt x="541" y="108" on="0"/>
        <pt x="460" y="29" on="0"/>
        <pt x="350" y="-13" on="0"/>
      </contour>
      <contour>
        <pt x="303" y="410" on="1"/>
        <pt x="271" y="410" on="0"/>
        <pt x="238" y="345" on="0"/>
        <pt x="238" y="283" on="1"/>
        <pt x="238" y="217" on="0"/>
        <pt x="278" y="144" on="0"/>
        <pt x="312" y="144" on="1"/>
        <pt x="343" y="144" on="0"/>
        <pt x="378" y="207" on="0"/>
        <pt x="378" y="270" on="1"/>
        <pt x="378" y="336" on="0"/>
        <pt x="336" y="410" on="0"/>
      </contour>
    </TTGlyph>
    <TTGlyph name="Ograve" xMin="29" yMin="-14" xMax="623" yMax="923">
      <contour>
        <pt x="478" y="746" on="1"/>
        <pt x="443" y="665" on="1"/>
        <pt x="366" y="680" on="0"/>
        <pt x="200" y="737" on="0"/>
        <pt x="130" y="778" on="1"/>
        <pt x="234" y="923" on="1"/>
        <pt x="288" y="878" on="0"/>
        <pt x="418" y="783" on="0"/>
      </contour>
      <contour>
        <pt x="305" y="-14" on="1"/>
        <pt x="245" y="-14" on="0"/>
        <pt x="144" y="28" on="0"/>
        <pt x="70" y="106" on="0"/>
        <pt x="29" y="218" on="0"/>
        <pt x="29" y="288" on="1"/>
        <pt x="29" y="369" on="0"/>
        <pt x="79" y="498" on="0"/>
        <pt x="165" y="587" on="0"/>
        <pt x="281" y="634" on="0"/>
        <pt x="347" y="634" on="1"/>
        <pt x="407" y="634" on="0"/>
        <pt x="508" y="592" on="0"/>
        <pt x="582" y="514" on="0"/>
        <pt x="623" y="402" on="0"/>
        <pt x="623" y="332" on="1"/>
        <pt x="623" y="251" on="0"/>
        <pt x="573" y="122" on="0"/>
        <pt x="487" y="33" on="0"/>
        <pt x="370" y="-14" on="0"/>
      </contour>
      <contour>
        <pt x="321" y="465" on="1"/>
        <pt x="284" y="465" on="0"/>
        <pt x="245" y="390" on="0"/>
        <pt x="245" y="318" on="1"/>
        <pt x="245" y="241" on="0"/>
        <pt x="292" y="156" on="0"/>
        <pt x="331" y="156" on="1"/>
        <pt x="368" y="156" on="0"/>
        <pt x="408" y="230" on="0"/>
        <pt x="408" y="302" on="1"/>
        <pt x="408" y="379" on="0"/>
        <pt x="360" y="465" on="0"/>
      </contour>
    </TTGlyph>
    <TTGlyph name="Ograve.sc" xMin="27" yMin="-13" xMax="589" yMax="854">
      <contour>
        <pt x="459" y="677" on="1"/>
        <pt x="424" y="596" on="1"/>
        <pt x="347" y="611" on="0"/>
        <pt x="181" y="668" on="0"/>
        <pt x="111" y="709" on="1"/>
        <pt x="215" y="854" on="1"/>
        <pt x="269" y="809" on="0"/>
        <pt x="399" y="714" on="0"/>
      </contour>
      <contour>
        <pt x="288" y="-13" on="1"/>
        <pt x="231" y="-13" on="0"/>
        <pt x="135" y="25" on="0"/>
        <pt x="66" y="94" on="0"/>
        <pt x="27" y="194" on="0"/>
        <pt x="27" y="256" on="1"/>
        <pt x="27" y="328" on="0"/>
        <pt x="74" y="444" on="0"/>
        <pt x="155" y="523" on="0"/>
        <pt x="265" y="565" on="0"/>
        <pt x="327" y="565" on="1"/>
        <pt x="383" y="565" on="0"/>
        <pt x="480" y="527" on="0"/>
        <pt x="549" y="458" on="0"/>
        <pt x="589" y="358" on="0"/>
        <pt x="589" y="296" on="1"/>
        <pt x="589" y="223" on="0"/>
        <pt x="541" y="108" on="0"/>
        <pt x="460" y="29" on="0"/>
        <pt x="350" y="-13" on="0"/>
      </contour>
      <contour>
        <pt x="303" y="410" on="1"/>
        <pt x="271" y="410" on="0"/>
        <pt x="238" y="345" on="0"/>
        <pt x="238" y="283" on="1"/>
        <pt x="238" y="217" on="0"/>
        <pt x="278" y="144" on="0"/>
        <pt x="312" y="144" on="1"/>
        <pt x="343" y="144" on="0"/>
        <pt x="378" y="207" on="0"/>
        <pt x="378" y="270" on="1"/>
        <pt x="378" y="336" on="0"/>
        <pt x="336" y="410" on="0"/>
      </contour>
    </TTGlyph>
    <TTGlyph name="Ohungarumlaut" xMin="29" yMin="-14" xMax="627" yMax="937">
      <contour>
        <pt x="138" y="712" on="1"/>
        <pt x="169" y="761" on="0"/>
        <pt x="229" y="884" on="0"/>
        <pt x="249" y="937" on="1"/>
        <pt x="400" y="857" on="1"/>
        <pt x="362" y="802" on="0"/>
        <pt x="266" y="706" on="0"/>
        <pt x="213" y="668" on="1"/>
      </contour>
      <contour>
        <pt x="354" y="708" on="1"/>
        <pt x="387" y="759" on="0"/>
        <pt x="445" y="872" on="0"/>
        <pt x="467" y="927" on="1"/>
        <pt x="627" y="852" on="1"/>
        <pt x="586" y="799" on="0"/>
        <pt x="486" y="706" on="0"/>
        <pt x="433" y="668" on="1"/>
      </contour>
      <contour>
        <pt x="305" y="-14" on="1"/>
        <pt x="245" y="-14" on="0"/>
        <pt x="144" y="28" on="0"/>
        <pt x="70" y="106" on="0"/>
        <pt x="29" y="218" on="0"/>
        <pt x="29" y="288" on="1"/>
        <pt x="29" y="369" on="0"/>
        <pt x="79" y="498" on="0"/>
        <pt x="165" y="587" on="0"/>
        <pt x="281" y="634" on="0"/>
        <pt x="347" y="634" on="1"/>
        <pt x="407" y="634" on="0"/>
        <pt x="508" y="592" on="0"/>
        <pt x="582" y="514" on="0"/>
        <pt x="623" y="402" on="0"/>
        <pt x="623" y="332" on="1"/>
        <pt x="623" y="251" on="0"/>
        <pt x="573" y="122" on="0"/>
        <pt x="487" y="33" on="0"/>
        <pt x="370" y="-14" on="0"/>
      </contour>
      <contour>
        <pt x="321" y="465" on="1"/>
        <pt x="284" y="465" on="0"/>
        <pt x="245" y="390" on="0"/>
        <pt x="245" y="318" on="1"/>
        <pt x="245" y="241" on="0"/>
        <pt x="292" y="156" on="0"/>
        <pt x="331" y="156" on="1"/>
        <pt x="368" y="156" on="0"/>
        <pt x="408" y="230" on="0"/>
        <pt x="408" y="302" on="1"/>
        <pt x="408" y="379" on="0"/>
        <pt x="360" y="465" on="0"/>
      </contour>
    </TTGlyph>
    <TTGlyph name="Ohungarumlaut.sc" xMin="27" yMin="-13" xMax="608" yMax="868">
      <contour>
        <pt x="119" y="643" on="1"/>
        <pt x="150" y="692" on="0"/>
        <pt x="210" y="815" on="0"/>
        <pt x="230" y="868" on="1"/>
        <pt x="381" y="788" on="1"/>
        <pt x="343" y="733" on="0"/>
        <pt x="247" y="637" on="0"/>
        <pt x="194" y="599" on="1"/>
      </contour>
      <contour>
        <pt x="335" y="639" on="1"/>
        <pt x="368" y="690" on="0"/>
        <pt x="426" y="803" on="0"/>
        <pt x="448" y="858" on="1"/>
        <pt x="608" y="783" on="1"/>
        <pt x="567" y="730" on="0"/>
        <pt x="467" y="637" on="0"/>
        <pt x="414" y="599" on="1"/>
      </contour>
      <contour>
        <pt x="288" y="-13" on="1"/>
        <pt x="231" y="-13" on="0"/>
        <pt x="135" y="25" on="0"/>
        <pt x="66" y="94" on="0"/>
        <pt x="27" y="194" on="0"/>
        <pt x="27" y="256" on="1"/>
        <pt x="27" y="328" on="0"/>
        <pt x="74" y="444" on="0"/>
        <pt x="155" y="523" on="0"/>
        <pt x="265" y="565" on="0"/>
        <pt x="327" y="565" on="1"/>
        <pt x="383" y="565" on="0"/>
        <pt x="480" y="527" on="0"/>
        <pt x="549" y="458" on="0"/>
        <pt x="589" y="358" on="0"/>
        <pt x="589" y="296" on="1"/>
        <pt x="589" y="223" on="0"/>
        <pt x="541" y="108" on="0"/>
        <pt x="460" y="29" on="0"/>
        <pt x="350" y="-13" on="0"/>
      </contour>
      <contour>
        <pt x="303" y="410" on="1"/>
        <pt x="271" y="410" on="0"/>
        <pt x="238" y="345" on="0"/>
        <pt x="238" y="283" on="1"/>
        <pt x="238" y="217" on="0"/>
        <pt x="278" y="144" on="0"/>
        <pt x="312" y="144" on="1"/>
        <pt x="343" y="144" on="0"/>
        <pt x="378" y="207" on="0"/>
        <pt x="378" y="270" on="1"/>
        <pt x="378" y="336" on="0"/>
        <pt x="336" y="410" on="0"/>
      </contour>
    </TTGlyph>
    <TTGlyph name="Omacron" xMin="29" yMin="-14" xMax="623" yMax="850">
      <contour>
        <pt x="520" y="850" on="1"/>
        <pt x="520" y="689" on="1"/>
        <pt x="144" y="689" on="1"/>
        <pt x="144" y="850" on="1"/>
      </contour>
      <contour>
        <pt x="305" y="-14" on="1"/>
        <pt x="245" y="-14" on="0"/>
        <pt x="144" y="28" on="0"/>
        <pt x="70" y="106" on="0"/>
        <pt x="29" y="218" on="0"/>
        <pt x="29" y="288" on="1"/>
        <pt x="29" y="369" on="0"/>
        <pt x="79" y="498" on="0"/>
        <pt x="165" y="587" on="0"/>
        <pt x="281" y="634" on="0"/>
        <pt x="347" y="634" on="1"/>
        <pt x="407" y="634" on="0"/>
        <pt x="508" y="592" on="0"/>
        <pt x="582" y="514" on="0"/>
        <pt x="623" y="402" on="0"/>
        <pt x="623" y="332" on="1"/>
        <pt x="623" y="251" on="0"/>
        <pt x="573" y="122" on="0"/>
        <pt x="487" y="33" on="0"/>
        <pt x="370" y="-14" on="0"/>
      </contour>
      <contour>
        <pt x="321" y="465" on="1"/>
        <pt x="284" y="465" on="0"/>
        <pt x="245" y="390" on="0"/>
        <pt x="245" y="318" on="1"/>
        <pt x="245" y="241" on="0"/>
        <pt x="292" y="156" on="0"/>
        <pt x="331" y="156" on="1"/>
        <pt x="368" y="156" on="0"/>
        <pt x="408" y="230" on="0"/>
        <pt x="408" y="302" on="1"/>
        <pt x="408" y="379" on="0"/>
        <pt x="360" y="465" on="0"/>
      </contour>
    </TTGlyph>
    <TTGlyph name="Omacron.sc" xMin="27" yMin="-13" xMax="589" yMax="781">
      <contour>
        <pt x="501" y="781" on="1"/>
        <pt x="501" y="620" on="1"/>
        <pt x="125" y="620" on="1"/>
        <pt x="125" y="781" on="1"/>
      </contour>
      <contour>
        <pt x="288" y="-13" on="1"/>
        <pt x="231" y="-13" on="0"/>
        <pt x="135" y="25" on="0"/>
        <pt x="66" y="94" on="0"/>
        <pt x="27" y="194" on="0"/>
        <pt x="27" y="256" on="1"/>
        <pt x="27" y="328" on="0"/>
        <pt x="74" y="444" on="0"/>
        <pt x="155" y="523" on="0"/>
        <pt x="265" y="565" on="0"/>
        <pt x="327" y="565" on="1"/>
        <pt x="383" y="565" on="0"/>
        <pt x="480" y="527" on="0"/>
        <pt x="549" y="458" on="0"/>
        <pt x="589" y="358" on="0"/>
        <pt x="589" y="296" on="1"/>
        <pt x="589" y="223" on="0"/>
        <pt x="541" y="108" on="0"/>
        <pt x="460" y="29" on="0"/>
        <pt x="350" y="-13" on="0"/>
      </contour>
      <contour>
        <pt x="303" y="410" on="1"/>
        <pt x="271" y="410" on="0"/>
        <pt x="238" y="345" on="0"/>
        <pt x="238" y="283" on="1"/>
        <pt x="238" y="217" on="0"/>
        <pt x="278" y="144" on="0"/>
        <pt x="312" y="144" on="1"/>
        <pt x="343" y="144" on="0"/>
        <pt x="378" y="207" on="0"/>
        <pt x="378" y="270" on="1"/>
        <pt x="378" y="336" on="0"/>
        <pt x="336" y="410" on="0"/>
      </contour>
    </TTGlyph>
    <TTGlyph name="Omega" xMin="29" yMin="0" xMax="613" yMax="634">
      <contour>
        <pt x="291" y="6" on="1"/>
        <pt x="288" y="0" on="1"/>
        <pt x="29" y="0" on="1"/>
        <pt x="29" y="167" on="1"/>
        <pt x="123" y="167" on="1"/>
        <pt x="92" y="223" on="0"/>
        <pt x="60" y="335" on="0"/>
        <pt x="60" y="384" on="1"/>
        <pt x="60" y="439" on="0"/>
        <pt x="99" y="531" on="0"/>
        <pt x="170" y="597" on="0"/>
        <pt x="270" y="634" on="0"/>
        <pt x="330" y="634" on="1"/>
        <pt x="389" y="634" on="0"/>
        <pt x="483" y="597" on="0"/>
        <pt x="547" y="532" on="0"/>
        <pt x="582" y="441" on="0"/>
        <pt x="582" y="388" on="1"/>
        <pt x="582" y="339" on="0"/>
        <pt x="549" y="224" on="0"/>
        <pt x="518" y="167" on="1"/>
        <pt x="613" y="167" on="1"/>
        <pt x="613" y="0" on="1"/>
        <pt x="354" y="0" on="1"/>
        <pt x="351" y="6" on="1"/>
        <pt x="372" y="103" on="0"/>
        <pt x="392" y="258" on="0"/>
        <pt x="392" y="312" on="1"/>
        <pt x="392" y="385" on="0"/>
        <pt x="354" y="456" on="0"/>
        <pt x="321" y="456" on="1"/>
        <pt x="288" y="456" on="0"/>
        <pt x="250" y="385" on="0"/>
        <pt x="250" y="312" on="1"/>
        <pt x="250" y="258" on="0"/>
        <pt x="270" y="103" on="0"/>
      </contour>
    </TTGlyph>
    <TTGlyph name="Oslash" xMin="29" yMin="-54" xMax="623" yMax="674">
      <contour>
        <pt x="236" y="318" on="1"/>
        <pt x="236" y="300" on="0"/>
        <pt x="239" y="267" on="0"/>
        <pt x="241" y="252" on="1"/>
        <pt x="376" y="449" on="1"/>
        <pt x="365" y="461" on="0"/>
        <pt x="337" y="474" on="0"/>
        <pt x="321" y="474" on="1"/>
        <pt x="279" y="474" on="0"/>
        <pt x="236" y="394" on="0"/>
      </contour>
      <contour>
        <pt x="331" y="147" on="1"/>
        <pt x="372" y="147" on="0"/>
        <pt x="417" y="225" on="0"/>
        <pt x="417" y="302" on="1"/>
        <pt x="417" y="321" on="0"/>
        <pt x="414" y="356" on="0"/>
        <pt x="411" y="371" on="1"/>
        <pt x="275" y="173" on="1"/>
        <pt x="286" y="160" on="0"/>
        <pt x="315" y="147" on="0"/>
      </contour>
      <contour>
        <pt x="305" y="-14" on="1"/>
        <pt x="274" y="-14" on="0"/>
        <pt x="217" y="-2" on="0"/>
        <pt x="191" y="8" on="1"/>
        <pt x="149" y="-54" on="1"/>
        <pt x="47" y="10" on="1"/>
        <pt x="95" y="80" on="1"/>
        <pt x="64" y="119" on="0"/>
        <pt x="29" y="224" on="0"/>
        <pt x="29" y="288" on="1"/>
        <pt x="29" y="369" on="0"/>
        <pt x="79" y="498" on="0"/>
        <pt x="165" y="587" on="0"/>
        <pt x="281" y="634" on="0"/>
        <pt x="347" y="634" on="1"/>
        <pt x="378" y="634" on="0"/>
        <pt x="436" y="622" on="0"/>
        <pt x="461" y="612" on="1"/>
        <pt x="504" y="674" on="1"/>
        <pt x="606" y="610" on="1"/>
        <pt x="557" y="539" on="1"/>
        <pt x="588" y="501" on="0"/>
        <pt x="623" y="395" on="0"/>
        <pt x="623" y="332" on="1"/>
        <pt x="623" y="251" on="0"/>
        <pt x="573" y="122" on="0"/>
        <pt x="487" y="33" on="0"/>
        <pt x="370" y="-14" on="0"/>
      </contour>
    </TTGlyph>
    <TTGlyph name="Oslash.sc" xMin="27" yMin="-50" xMax="589" yMax="603">
      <contour>
        <pt x="230" y="283" on="1"/>
        <pt x="230" y="269" on="0"/>
        <pt x="232" y="243" on="0"/>
        <pt x="234" y="231" on="1"/>
        <pt x="348" y="398" on="1"/>
        <pt x="338" y="407" on="0"/>
        <pt x="316" y="417" on="0"/>
        <pt x="303" y="417" on="1"/>
        <pt x="267" y="417" on="0"/>
        <pt x="230" y="349" on="0"/>
      </contour>
      <contour>
        <pt x="312" y="136" on="1"/>
        <pt x="348" y="136" on="0"/>
        <pt x="387" y="203" on="0"/>
        <pt x="387" y="269" on="1"/>
        <pt x="387" y="285" on="0"/>
        <pt x="384" y="316" on="0"/>
        <pt x="381" y="329" on="1"/>
        <pt x="263" y="158" on="1"/>
        <pt x="273" y="148" on="0"/>
        <pt x="298" y="136" on="0"/>
      </contour>
      <contour>
        <pt x="288" y="-13" on="1"/>
        <pt x="259" y="-13" on="0"/>
        <pt x="205" y="-3" on="0"/>
        <pt x="181" y="7" on="1"/>
        <pt x="141" y="-50" on="1"/>
        <pt x="46" y="7" on="1"/>
        <pt x="90" y="70" on="1"/>
        <pt x="60" y="104" on="0"/>
        <pt x="27" y="199" on="0"/>
        <pt x="27" y="256" on="1"/>
        <pt x="27" y="328" on="0"/>
        <pt x="74" y="444" on="0"/>
        <pt x="155" y="523" on="0"/>
        <pt x="265" y="565" on="0"/>
        <pt x="327" y="565" on="1"/>
        <pt x="355" y="565" on="0"/>
        <pt x="409" y="555" on="0"/>
        <pt x="433" y="546" on="1"/>
        <pt x="473" y="603" on="1"/>
        <pt x="569" y="546" on="1"/>
        <pt x="524" y="482" on="1"/>
        <pt x="555" y="448" on="0"/>
        <pt x="589" y="353" on="0"/>
        <pt x="589" y="296" on="1"/>
        <pt x="589" y="223" on="0"/>
        <pt x="541" y="108" on="0"/>
        <pt x="460" y="29" on="0"/>
        <pt x="350" y="-13" on="0"/>
      </contour>
    </TTGlyph>
    <TTGlyph name="Oslashacute" xMin="29" yMin="-54" xMax="623" yMax="928">
      <contour>
        <pt x="184" y="751" on="1"/>
        <pt x="244" y="785" on="0"/>
        <pt x="369" y="879" on="0"/>
        <pt x="421" y="928" on="1"/>
        <pt x="533" y="784" on="1"/>
        <pt x="462" y="739" on="0"/>
        <pt x="292" y="681" on="0"/>
        <pt x="214" y="671" on="1"/>
      </contour>
      <contour>
        <pt x="236" y="318" on="1"/>
        <pt x="236" y="300" on="0"/>
        <pt x="239" y="267" on="0"/>
        <pt x="241" y="252" on="1"/>
        <pt x="376" y="449" on="1"/>
        <pt x="365" y="461" on="0"/>
        <pt x="337" y="474" on="0"/>
        <pt x="321" y="474" on="1"/>
        <pt x="279" y="474" on="0"/>
        <pt x="236" y="394" on="0"/>
      </contour>
      <contour>
        <pt x="331" y="147" on="1"/>
        <pt x="372" y="147" on="0"/>
        <pt x="417" y="225" on="0"/>
        <pt x="417" y="302" on="1"/>
        <pt x="417" y="321" on="0"/>
        <pt x="414" y="356" on="0"/>
        <pt x="411" y="371" on="1"/>
        <pt x="275" y="173" on="1"/>
        <pt x="286" y="160" on="0"/>
        <pt x="315" y="147" on="0"/>
      </contour>
      <contour>
        <pt x="305" y="-14" on="1"/>
        <pt x="274" y="-14" on="0"/>
        <pt x="217" y="-2" on="0"/>
        <pt x="191" y="8" on="1"/>
        <pt x="149" y="-54" on="1"/>
        <pt x="47" y="10" on="1"/>
        <pt x="95" y="80" on="1"/>
        <pt x="64" y="119" on="0"/>
        <pt x="29" y="224" on="0"/>
        <pt x="29" y="288" on="1"/>
        <pt x="29" y="369" on="0"/>
        <pt x="79" y="498" on="0"/>
        <pt x="165" y="587" on="0"/>
        <pt x="281" y="634" on="0"/>
        <pt x="347" y="634" on="1"/>
        <pt x="378" y="634" on="0"/>
        <pt x="436" y="622" on="0"/>
        <pt x="461" y="612" on="1"/>
        <pt x="504" y="674" on="1"/>
        <pt x="606" y="610" on="1"/>
        <pt x="557" y="539" on="1"/>
        <pt x="588" y="501" on="0"/>
        <pt x="623" y="395" on="0"/>
        <pt x="623" y="332" on="1"/>
        <pt x="623" y="251" on="0"/>
        <pt x="573" y="122" on="0"/>
        <pt x="487" y="33" on="0"/>
        <pt x="370" y="-14" on="0"/>
      </contour>
    </TTGlyph>
    <TTGlyph name="Oslashacute.sc" xMin="27" yMin="-50" xMax="589" yMax="859">
      <contour>
        <pt x="165" y="682" on="1"/>
        <pt x="225" y="716" on="0"/>
        <pt x="350" y="810" on="0"/>
        <pt x="402" y="859" on="1"/>
        <pt x="514" y="715" on="1"/>
        <pt x="443" y="670" on="0"/>
        <pt x="273" y="612" on="0"/>
        <pt x="195" y="602" on="1"/>
      </contour>
      <contour>
        <pt x="230" y="283" on="1"/>
        <pt x="230" y="269" on="0"/>
        <pt x="232" y="243" on="0"/>
        <pt x="234" y="231" on="1"/>
        <pt x="348" y="398" on="1"/>
        <pt x="338" y="407" on="0"/>
        <pt x="316" y="417" on="0"/>
        <pt x="303" y="417" on="1"/>
        <pt x="267" y="417" on="0"/>
        <pt x="230" y="349" on="0"/>
      </contour>
      <contour>
        <pt x="312" y="136" on="1"/>
        <pt x="348" y="136" on="0"/>
        <pt x="387" y="203" on="0"/>
        <pt x="387" y="269" on="1"/>
        <pt x="387" y="285" on="0"/>
        <pt x="384" y="316" on="0"/>
        <pt x="381" y="329" on="1"/>
        <pt x="263" y="158" on="1"/>
        <pt x="273" y="148" on="0"/>
        <pt x="298" y="136" on="0"/>
      </contour>
      <contour>
        <pt x="288" y="-13" on="1"/>
        <pt x="259" y="-13" on="0"/>
        <pt x="205" y="-3" on="0"/>
        <pt x="181" y="7" on="1"/>
        <pt x="141" y="-50" on="1"/>
        <pt x="46" y="7" on="1"/>
        <pt x="90" y="70" on="1"/>
        <pt x="60" y="104" on="0"/>
        <pt x="27" y="199" on="0"/>
        <pt x="27" y="256" on="1"/>
        <pt x="27" y="328" on="0"/>
        <pt x="74" y="444" on="0"/>
        <pt x="155" y="523" on="0"/>
        <pt x="265" y="565" on="0"/>
        <pt x="327" y="565" on="1"/>
        <pt x="355" y="565" on="0"/>
        <pt x="409" y="555" on="0"/>
        <pt x="433" y="546" on="1"/>
        <pt x="473" y="603" on="1"/>
        <pt x="569" y="546" on="1"/>
        <pt x="524" y="482" on="1"/>
        <pt x="555" y="448" on="0"/>
        <pt x="589" y="353" on="0"/>
        <pt x="589" y="296" on="1"/>
        <pt x="589" y="223" on="0"/>
        <pt x="541" y="108" on="0"/>
        <pt x="460" y="29" on="0"/>
        <pt x="350" y="-13" on="0"/>
      </contour>
    </TTGlyph>
    <TTGlyph name="Otilde" xMin="29" yMin="-14" xMax="623" yMax="882">
      <contour>
        <pt x="417" y="675" on="1"/>
        <pt x="392" y="675" on="0"/>
        <pt x="347" y="693" on="0"/>
        <pt x="309" y="716" on="0"/>
        <pt x="276" y="734" on="0"/>
        <pt x="263" y="734" on="1"/>
        <pt x="251" y="734" on="0"/>
        <pt x="228" y="709" on="0"/>
        <pt x="213" y="678" on="1"/>
        <pt x="118" y="714" on="1"/>
        <pt x="140" y="786" on="0"/>
        <pt x="213" y="881" on="0"/>
        <pt x="267" y="881" on="1"/>
        <pt x="291" y="881" on="0"/>
        <pt x="335" y="862" on="0"/>
        <pt x="373" y="840" on="0"/>
        <pt x="406" y="821" on="0"/>
        <pt x="419" y="821" on="1"/>
        <pt x="431" y="821" on="0"/>
        <pt x="455" y="848" on="0"/>
        <pt x="473" y="882" on="1"/>
        <pt x="568" y="847" on="1"/>
        <pt x="545" y="773" on="0"/>
        <pt x="471" y="675" on="0"/>
      </contour>
      <contour>
        <pt x="305" y="-14" on="1"/>
        <pt x="245" y="-14" on="0"/>
        <pt x="144" y="28" on="0"/>
        <pt x="70" y="106" on="0"/>
        <pt x="29" y="218" on="0"/>
        <pt x="29" y="288" on="1"/>
        <pt x="29" y="369" on="0"/>
        <pt x="79" y="498" on="0"/>
        <pt x="165" y="587" on="0"/>
        <pt x="281" y="634" on="0"/>
        <pt x="347" y="634" on="1"/>
        <pt x="407" y="634" on="0"/>
        <pt x="508" y="592" on="0"/>
        <pt x="582" y="514" on="0"/>
        <pt x="623" y="402" on="0"/>
        <pt x="623" y="332" on="1"/>
        <pt x="623" y="251" on="0"/>
        <pt x="573" y="122" on="0"/>
        <pt x="487" y="33" on="0"/>
        <pt x="370" y="-14" on="0"/>
      </contour>
      <contour>
        <pt x="321" y="465" on="1"/>
        <pt x="284" y="465" on="0"/>
        <pt x="245" y="390" on="0"/>
        <pt x="245" y="318" on="1"/>
        <pt x="245" y="241" on="0"/>
        <pt x="292" y="156" on="0"/>
        <pt x="331" y="156" on="1"/>
        <pt x="368" y="156" on="0"/>
        <pt x="408" y="230" on="0"/>
        <pt x="408" y="302" on="1"/>
        <pt x="408" y="379" on="0"/>
        <pt x="360" y="465" on="0"/>
      </contour>
    </TTGlyph>
    <TTGlyph name="Otilde.sc" xMin="27" yMin="-13" xMax="589" yMax="813">
      <contour>
        <pt x="398" y="606" on="1"/>
        <pt x="373" y="606" on="0"/>
        <pt x="328" y="624" on="0"/>
        <pt x="290" y="647" on="0"/>
        <pt x="257" y="665" on="0"/>
        <pt x="244" y="665" on="1"/>
        <pt x="232" y="665" on="0"/>
        <pt x="209" y="640" on="0"/>
        <pt x="194" y="609" on="1"/>
        <pt x="99" y="645" on="1"/>
        <pt x="121" y="717" on="0"/>
        <pt x="194" y="812" on="0"/>
        <pt x="248" y="812" on="1"/>
        <pt x="272" y="812" on="0"/>
        <pt x="316" y="793" on="0"/>
        <pt x="354" y="771" on="0"/>
        <pt x="387" y="752" on="0"/>
        <pt x="400" y="752" on="1"/>
        <pt x="412" y="752" on="0"/>
        <pt x="436" y="779" on="0"/>
        <pt x="454" y="813" on="1"/>
        <pt x="549" y="778" on="1"/>
        <pt x="526" y="704" on="0"/>
        <pt x="452" y="606" on="0"/>
      </contour>
      <contour>
        <pt x="288" y="-13" on="1"/>
        <pt x="231" y="-13" on="0"/>
        <pt x="135" y="25" on="0"/>
        <pt x="66" y="94" on="0"/>
        <pt x="27" y="194" on="0"/>
        <pt x="27" y="256" on="1"/>
        <pt x="27" y="328" on="0"/>
        <pt x="74" y="444" on="0"/>
        <pt x="155" y="523" on="0"/>
        <pt x="265" y="565" on="0"/>
        <pt x="327" y="565" on="1"/>
        <pt x="383" y="565" on="0"/>
        <pt x="480" y="527" on="0"/>
        <pt x="549" y="458" on="0"/>
        <pt x="589" y="358" on="0"/>
        <pt x="589" y="296" on="1"/>
        <pt x="589" y="223" on="0"/>
        <pt x="541" y="108" on="0"/>
        <pt x="460" y="29" on="0"/>
        <pt x="350" y="-13" on="0"/>
      </contour>
      <contour>
        <pt x="303" y="410" on="1"/>
        <pt x="271" y="410" on="0"/>
        <pt x="238" y="345" on="0"/>
        <pt x="238" y="283" on="1"/>
        <pt x="238" y="217" on="0"/>
        <pt x="278" y="144" on="0"/>
        <pt x="312" y="144" on="1"/>
        <pt x="343" y="144" on="0"/>
        <pt x="378" y="207" on="0"/>
        <pt x="378" y="270" on="1"/>
        <pt x="378" y="336" on="0"/>
        <pt x="336" y="410" on="0"/>
      </contour>
    </TTGlyph>
    <TTGlyph name="P" xMin="57" yMin="0" xMax="569" yMax="629">
      <contour>
        <pt x="261" y="0" on="1"/>
        <pt x="57" y="0" on="1"/>
        <pt x="57" y="619" on="1"/>
        <pt x="106" y="624" on="0"/>
        <pt x="193" y="629" on="0"/>
        <pt x="231" y="629" on="1"/>
        <pt x="410" y="629" on="0"/>
        <pt x="569" y="519" on="0"/>
        <pt x="569" y="412" on="1"/>
        <pt x="569" y="354" on="0"/>
        <pt x="523" y="264" on="0"/>
        <pt x="442" y="199" on="0"/>
        <pt x="329" y="155" on="0"/>
        <pt x="261" y="143" on="1"/>
      </contour>
      <contour>
        <pt x="293" y="292" on="1"/>
        <pt x="330" y="292" on="0"/>
        <pt x="372" y="332" on="0"/>
        <pt x="372" y="375" on="1"/>
        <pt x="372" y="418" on="0"/>
        <pt x="322" y="463" on="0"/>
        <pt x="277" y="463" on="1"/>
        <pt x="273" y="463" on="0"/>
        <pt x="265" y="463" on="0"/>
        <pt x="261" y="462" on="1"/>
        <pt x="261" y="295" on="1"/>
        <pt x="269" y="294" on="0"/>
        <pt x="286" y="292" on="0"/>
      </contour>
    </TTGlyph>
    <TTGlyph name="P.sc" xMin="52" yMin="0" xMax="540" yMax="561">
      <contour>
        <pt x="252" y="0" on="1"/>
        <pt x="52" y="0" on="1"/>
        <pt x="52" y="552" on="1"/>
        <pt x="98" y="556" on="0"/>
        <pt x="181" y="561" on="0"/>
        <pt x="218" y="561" on="1"/>
        <pt x="390" y="561" on="0"/>
        <pt x="540" y="463" on="0"/>
        <pt x="540" y="365" on="1"/>
        <pt x="540" y="314" on="0"/>
        <pt x="497" y="233" on="0"/>
        <pt x="421" y="175" on="0"/>
        <pt x="315" y="135" on="0"/>
        <pt x="252" y="124" on="1"/>
      </contour>
      <contour>
        <pt x="280" y="262" on="1"/>
        <pt x="311" y="262" on="0"/>
        <pt x="347" y="295" on="0"/>
        <pt x="347" y="332" on="1"/>
        <pt x="347" y="370" on="0"/>
        <pt x="303" y="408" on="0"/>
        <pt x="263" y="408" on="1"/>
        <pt x="260" y="408" on="0"/>
        <pt x="255" y="408" on="0"/>
        <pt x="252" y="408" on="1"/>
        <pt x="252" y="265" on="1"/>
        <pt x="259" y="264" on="0"/>
        <pt x="274" y="262" on="0"/>
      </contour>
    </TTGlyph>
    <TTGlyph name="Q" xMin="29" yMin="-157" xMax="623" yMax="634">
      <contour>
        <pt x="567" y="-157" on="1"/>
        <pt x="237" y="-113" on="1"/>
        <pt x="256" y="-10" on="1"/>
        <pt x="156" y="6" on="0"/>
        <pt x="29" y="163" on="0"/>
        <pt x="29" y="288" on="1"/>
        <pt x="29" y="369" on="0"/>
        <pt x="79" y="498" on="0"/>
        <pt x="165" y="587" on="0"/>
        <pt x="281" y="634" on="0"/>
        <pt x="347" y="634" on="1"/>
        <pt x="407" y="634" on="0"/>
        <pt x="508" y="592" on="0"/>
        <pt x="582" y="514" on="0"/>
        <pt x="623" y="402" on="0"/>
        <pt x="623" y="332" on="1"/>
        <pt x="623" y="231" on="0"/>
        <pt x="545" y="81" on="0"/>
        <pt x="482" y="38" on="1"/>
        <pt x="482" y="36" on="1"/>
        <pt x="587" y="23" on="1"/>
      </contour>
      <contour>
        <pt x="321" y="465" on="1"/>
        <pt x="284" y="465" on="0"/>
        <pt x="245" y="390" on="0"/>
        <pt x="245" y="318" on="1"/>
        <pt x="245" y="241" on="0"/>
        <pt x="292" y="156" on="0"/>
        <pt x="331" y="156" on="1"/>
        <pt x="368" y="156" on="0"/>
        <pt x="408" y="230" on="0"/>
        <pt x="408" y="302" on="1"/>
        <pt x="408" y="379" on="0"/>
        <pt x="360" y="465" on="0"/>
      </contour>
    </TTGlyph>
    <TTGlyph name="Q.sc" xMin="27" yMin="-142" xMax="589" yMax="565">
      <contour>
        <pt x="537" y="-142" on="1"/>
        <pt x="223" y="-104" on="1"/>
        <pt x="240" y="-6" on="1"/>
        <pt x="146" y="8" on="0"/>
        <pt x="27" y="148" on="0"/>
        <pt x="27" y="258" on="1"/>
        <pt x="27" y="330" on="0"/>
        <pt x="74" y="445" on="0"/>
        <pt x="155" y="523" on="0"/>
        <pt x="265" y="565" on="0"/>
        <pt x="327" y="565" on="1"/>
        <pt x="383" y="565" on="0"/>
        <pt x="480" y="528" on="0"/>
        <pt x="549" y="459" on="0"/>
        <pt x="589" y="360" on="0"/>
        <pt x="589" y="298" on="1"/>
        <pt x="589" y="208" on="0"/>
        <pt x="517" y="75" on="0"/>
        <pt x="458" y="38" on="1"/>
        <pt x="458" y="36" on="1"/>
        <pt x="556" y="24" on="1"/>
      </contour>
      <contour>
        <pt x="303" y="410" on="1"/>
        <pt x="271" y="410" on="0"/>
        <pt x="238" y="346" on="0"/>
        <pt x="238" y="284" on="1"/>
        <pt x="238" y="219" on="0"/>
        <pt x="278" y="147" on="0"/>
        <pt x="312" y="147" on="1"/>
        <pt x="343" y="147" on="0"/>
        <pt x="378" y="210" on="0"/>
        <pt x="378" y="271" on="1"/>
        <pt x="378" y="337" on="0"/>
        <pt x="336" y="410" on="0"/>
      </contour>
    </TTGlyph>
    <TTGlyph name="R" xMin="57" yMin="-6" xMax="614" yMax="628">
      <contour>
        <pt x="393" y="-6" on="1"/>
        <pt x="310" y="179" on="1"/>
        <pt x="258" y="178" on="1"/>
        <pt x="258" y="0" on="1"/>
        <pt x="57" y="0" on="1"/>
        <pt x="57" y="619" on="1"/>
        <pt x="106" y="623" on="0"/>
        <pt x="193" y="628" on="0"/>
        <pt x="230" y="628" on="1"/>
        <pt x="327" y="628" on="0"/>
        <pt x="456" y="601" on="0"/>
        <pt x="533" y="553" on="0"/>
        <pt x="565" y="485" on="0"/>
        <pt x="565" y="444" on="1"/>
        <pt x="565" y="390" on="0"/>
        <pt x="510" y="309" on="0"/>
        <pt x="466" y="278" on="1"/>
        <pt x="614" y="6" on="1"/>
      </contour>
      <contour>
        <pt x="258" y="466" on="1"/>
        <pt x="258" y="311" on="1"/>
        <pt x="321" y="312" on="1"/>
        <pt x="342" y="326" on="0"/>
        <pt x="366" y="368" on="0"/>
        <pt x="366" y="396" on="1"/>
        <pt x="366" y="430" on="0"/>
        <pt x="321" y="467" on="0"/>
        <pt x="280" y="467" on="1"/>
        <pt x="275" y="467" on="0"/>
        <pt x="264" y="467" on="0"/>
      </contour>
    </TTGlyph>
    <TTGlyph name="R.sc" xMin="52" yMin="-4" xMax="581" yMax="560">
      <contour>
        <pt x="366" y="-4" on="1"/>
        <pt x="293" y="157" on="1"/>
        <pt x="249" y="156" on="1"/>
        <pt x="249" y="0" on="1"/>
        <pt x="52" y="0" on="1"/>
        <pt x="52" y="552" on="1"/>
        <pt x="98" y="556" on="0"/>
        <pt x="181" y="560" on="0"/>
        <pt x="218" y="560" on="1"/>
        <pt x="310" y="560" on="0"/>
        <pt x="433" y="536" on="0"/>
        <pt x="506" y="493" on="0"/>
        <pt x="536" y="432" on="0"/>
        <pt x="536" y="395" on="1"/>
        <pt x="536" y="347" on="0"/>
        <pt x="485" y="276" on="0"/>
        <pt x="444" y="248" on="1"/>
        <pt x="581" y="4" on="1"/>
      </contour>
      <contour>
        <pt x="249" y="412" on="1"/>
        <pt x="249" y="278" on="1"/>
        <pt x="302" y="279" on="1"/>
        <pt x="320" y="291" on="0"/>
        <pt x="342" y="326" on="0"/>
        <pt x="342" y="351" on="1"/>
        <pt x="342" y="382" on="0"/>
        <pt x="303" y="413" on="0"/>
        <pt x="266" y="413" on="1"/>
        <pt x="262" y="413" on="0"/>
        <pt x="253" y="412" on="0"/>
      </contour>
    </TTGlyph>
    <TTGlyph name="R_p" xMin="46" yMin="-177" xMax="923" yMax="630">
      <contour>
        <pt x="313" y="-9" on="1"/>
        <pt x="253" y="186" on="1"/>
        <pt x="213" y="185" on="1"/>
        <pt x="213" y="0" on="1"/>
        <pt x="46" y="0" on="1"/>
        <pt x="46" y="619" on="1"/>
        <pt x="89" y="624" on="0"/>
        <pt x="164" y="630" on="0"/>
        <pt x="197" y="630" on="1"/>
        <pt x="348" y="630" on="0"/>
        <pt x="462" y="530" on="0"/>
        <pt x="462" y="449" on="1"/>
        <pt x="462" y="395" on="0"/>
        <pt x="420" y="314" on="0"/>
        <pt x="386" y="283" on="1"/>
        <pt x="486" y="9" on="1"/>
      </contour>
      <contour>
        <pt x="213" y="481" on="1"/>
        <pt x="213" y="310" on="1"/>
        <pt x="261" y="311" on="1"/>
        <pt x="277" y="327" on="0"/>
        <pt x="295" y="375" on="0"/>
        <pt x="295" y="405" on="1"/>
        <pt x="295" y="444" on="0"/>
        <pt x="262" y="482" on="0"/>
        <pt x="229" y="482" on="1"/>
        <pt x="225" y="482" on="0"/>
        <pt x="217" y="482" on="0"/>
      </contour>
      <contour>
        <pt x="701" y="138" on="1"/>
        <pt x="728" y="138" on="0"/>
        <pt x="759" y="190" on="0"/>
        <pt x="759" y="255" on="1"/>
        <pt x="759" y="317" on="0"/>
        <pt x="727" y="375" on="0"/>
        <pt x="699" y="375" on="1"/>
        <pt x="693" y="375" on="0"/>
        <pt x="678" y="372" on="0"/>
        <pt x="671" y="368" on="1"/>
        <pt x="672" y="324" on="0"/>
        <pt x="673" y="205" on="0"/>
        <pt x="673" y="142" on="1"/>
        <pt x="680" y="140" on="0"/>
        <pt x="694" y="138" on="0"/>
      </contour>
      <contour>
        <pt x="674" y="-163" on="1"/>
        <pt x="507" y="-177" on="1"/>
        <pt x="507" y="-16" on="1"/>
        <pt x="507" y="185" on="0"/>
        <pt x="504" y="446" on="0"/>
        <pt x="500" y="518" on="1"/>
        <pt x="656" y="526" on="1"/>
        <pt x="662" y="475" on="1"/>
        <pt x="682" y="500" on="0"/>
        <pt x="739" y="534" on="0"/>
        <pt x="776" y="534" on="1"/>
        <pt x="846" y="534" on="0"/>
        <pt x="923" y="401" on="0"/>
        <pt x="923" y="289" on="1"/>
        <pt x="923" y="145" on="0"/>
        <pt x="789" y="-11" on="0"/>
        <pt x="676" y="-11" on="1"/>
        <pt x="674" y="-11" on="1"/>
        <pt x="674" y="-16" on="1"/>
      </contour>
    </TTGlyph>
    <TTGlyph name="Racute" xMin="57" yMin="-6" xMax="614" yMax="922">
      <contour>
        <pt x="139" y="745" on="1"/>
        <pt x="199" y="779" on="0"/>
        <pt x="324" y="873" on="0"/>
        <pt x="376" y="922" on="1"/>
        <pt x="488" y="778" on="1"/>
        <pt x="417" y="733" on="0"/>
        <pt x="247" y="675" on="0"/>
        <pt x="169" y="665" on="1"/>
      </contour>
      <contour>
        <pt x="393" y="-6" on="1"/>
        <pt x="310" y="179" on="1"/>
        <pt x="258" y="178" on="1"/>
        <pt x="258" y="0" on="1"/>
        <pt x="57" y="0" on="1"/>
        <pt x="57" y="619" on="1"/>
        <pt x="106" y="623" on="0"/>
        <pt x="193" y="628" on="0"/>
        <pt x="230" y="628" on="1"/>
        <pt x="327" y="628" on="0"/>
        <pt x="456" y="601" on="0"/>
        <pt x="533" y="553" on="0"/>
        <pt x="565" y="485" on="0"/>
        <pt x="565" y="444" on="1"/>
        <pt x="565" y="390" on="0"/>
        <pt x="510" y="309" on="0"/>
        <pt x="466" y="278" on="1"/>
        <pt x="614" y="6" on="1"/>
      </contour>
      <contour>
        <pt x="258" y="466" on="1"/>
        <pt x="258" y="311" on="1"/>
        <pt x="321" y="312" on="1"/>
        <pt x="342" y="326" on="0"/>
        <pt x="366" y="368" on="0"/>
        <pt x="366" y="396" on="1"/>
        <pt x="366" y="430" on="0"/>
        <pt x="321" y="467" on="0"/>
        <pt x="280" y="467" on="1"/>
        <pt x="275" y="467" on="0"/>
        <pt x="264" y="467" on="0"/>
      </contour>
    </TTGlyph>
    <TTGlyph name="Racute.sc" xMin="52" yMin="-4" xMax="581" yMax="854">
      <contour>
        <pt x="130" y="677" on="1"/>
        <pt x="190" y="711" on="0"/>
        <pt x="315" y="805" on="0"/>
        <pt x="367" y="854" on="1"/>
        <pt x="479" y="710" on="1"/>
        <pt x="408" y="665" on="0"/>
        <pt x="238" y="607" on="0"/>
        <pt x="160" y="597" on="1"/>
      </contour>
      <contour>
        <pt x="366" y="-4" on="1"/>
        <pt x="293" y="157" on="1"/>
        <pt x="249" y="156" on="1"/>
        <pt x="249" y="0" on="1"/>
        <pt x="52" y="0" on="1"/>
        <pt x="52" y="552" on="1"/>
        <pt x="98" y="556" on="0"/>
        <pt x="181" y="560" on="0"/>
        <pt x="218" y="560" on="1"/>
        <pt x="310" y="560" on="0"/>
        <pt x="433" y="536" on="0"/>
        <pt x="506" y="493" on="0"/>
        <pt x="536" y="432" on="0"/>
        <pt x="536" y="395" on="1"/>
        <pt x="536" y="347" on="0"/>
        <pt x="485" y="276" on="0"/>
        <pt x="444" y="248" on="1"/>
        <pt x="581" y="4" on="1"/>
      </contour>
      <contour>
        <pt x="249" y="412" on="1"/>
        <pt x="249" y="278" on="1"/>
        <pt x="302" y="279" on="1"/>
        <pt x="320" y="291" on="0"/>
        <pt x="342" y="326" on="0"/>
        <pt x="342" y="351" on="1"/>
        <pt x="342" y="382" on="0"/>
        <pt x="303" y="413" on="0"/>
        <pt x="266" y="413" on="1"/>
        <pt x="262" y="413" on="0"/>
        <pt x="253" y="412" on="0"/>
      </contour>
    </TTGlyph>
    <TTGlyph name="Rcaron" xMin="57" yMin="-6" xMax="614" yMax="901">
      <contour>
        <pt x="306" y="663" on="1"/>
        <pt x="267" y="663" on="1"/>
        <pt x="87" y="798" on="1"/>
        <pt x="185" y="901" on="1"/>
        <pt x="298" y="816" on="1"/>
        <pt x="409" y="901" on="1"/>
        <pt x="486" y="810" on="1"/>
      </contour>
      <contour>
        <pt x="393" y="-6" on="1"/>
        <pt x="310" y="179" on="1"/>
        <pt x="258" y="178" on="1"/>
        <pt x="258" y="0" on="1"/>
        <pt x="57" y="0" on="1"/>
        <pt x="57" y="619" on="1"/>
        <pt x="106" y="623" on="0"/>
        <pt x="193" y="628" on="0"/>
        <pt x="230" y="628" on="1"/>
        <pt x="327" y="628" on="0"/>
        <pt x="456" y="601" on="0"/>
        <pt x="533" y="553" on="0"/>
        <pt x="565" y="485" on="0"/>
        <pt x="565" y="444" on="1"/>
        <pt x="565" y="390" on="0"/>
        <pt x="510" y="309" on="0"/>
        <pt x="466" y="278" on="1"/>
        <pt x="614" y="6" on="1"/>
      </contour>
      <contour>
        <pt x="258" y="466" on="1"/>
        <pt x="258" y="311" on="1"/>
        <pt x="321" y="312" on="1"/>
        <pt x="342" y="326" on="0"/>
        <pt x="366" y="368" on="0"/>
        <pt x="366" y="396" on="1"/>
        <pt x="366" y="430" on="0"/>
        <pt x="321" y="467" on="0"/>
        <pt x="280" y="467" on="1"/>
        <pt x="275" y="467" on="0"/>
        <pt x="264" y="467" on="0"/>
      </contour>
    </TTGlyph>
</ttFont>
